<?xml version="1.0" encoding="UTF-8" standalone="no"?>
<svg width="46px" height="16px" viewBox="0 0 46 16" version="1.1" xmlns="http://www.w3.org/2000/svg" xmlns:xlink="http://www.w3.org/1999/xlink">
    <!-- Generator: Sketch 40.1 (33804) - http://www.bohemiancoding.com/sketch -->
    <title>Icon_Aviator</title>
    <desc>Created with Sketch.</desc>
    <defs></defs>
    <g id="Symbols" stroke="none" stroke-width="1" fill="none" fill-rule="evenodd">
        <g id="Icon_Aviator" fill="#969696">
            <path d="M41.0310065,7.4275 C41.0323613,7.6346875 41.0310065,9.48609375 40.5595226,10.7597656 L40.5405548,10.80625 C40.4579097,11.0798438 40.1151355,12.0414063 39.2006194,12.9803906 C39.0448129,13.1424219 38.8781677,13.2938281 38.7088129,13.4319531 L38.6559742,13.473125 C38.6221032,13.4970313 38.5706194,13.5315625 38.4744258,13.5939844 C38.4175226,13.6298438 38.3389419,13.6723438 38.2495226,13.7201563 L38.1722968,13.7626563 C38.0869419,13.8064844 37.9866839,13.8529688 37.8823613,13.8994531 C37.8335871,13.919375 37.7848129,13.940625 37.7319742,13.9605469 C37.6235871,14.0057031 37.5057161,14.0482031 37.3783613,14.0907031 C37.3363613,14.1039844 37.2943613,14.1172656 37.2510065,14.1305469 L37.145329,14.1610938 C37.0206839,14.1982813 36.8892645,14.2341406 36.7483613,14.2646875 C36.6697806,14.2832813 36.5857806,14.2978906 36.4787484,14.3164844 L36.3161677,14.3430469 C36.2077806,14.3616406 36.0993935,14.3815625 35.9828774,14.3948438 C35.8040387,14.4147656 35.6089419,14.4214063 35.4030065,14.429375 C35.4016516,14.429375 35.3772645,14.4307031 35.3759097,14.4307031 C35.3325548,14.4320313 35.2919097,14.4346875 35.2512645,14.4386719 C34.9166194,14.4585938 34.5264258,14.4426563 33.9804258,14.3789063 C33.9546839,14.37625 33.3734581,14.3058594 32.4752,13.9007813 C31.5904903,13.4996875 30.2072,12.6882031 28.6328774,11.093125 C28.3537806,10.8367969 26.897329,9.44359375 25.7294581,7.11140625 C25.7023613,7.05164063 25.0574581,5.64515625 25.4855871,4.11914063 C25.4869419,4.11648438 25.4869419,4.11117188 25.4882968,4.10851563 C25.4910065,4.0965625 25.7646839,2.83484375 27.1953935,2.19734375 C27.3512,2.09375 28.2223613,1.75507813 30.0974581,1.54789063 L30.1584258,1.54125 C30.5635226,1.48414063 31.6555226,1.35132813 33.0049419,1.35132813 C33.6904903,1.35132813 34.3638452,1.38851563 35.0263613,1.46421875 C35.0385548,1.46554688 36.2308129,1.53726563 37.5477161,1.95429688 C38.3118452,2.19734375 38.9553935,2.50414063 39.4593935,2.86671875 C40.0704258,3.305 40.4822968,3.8309375 40.6841677,4.43125 L40.6963613,4.46578125 C40.7844258,4.696875 41.0730065,5.53359375 41.0540387,6.60140625 L41.0310065,7.4275 Z M24.4532,2.51609375 C24.4504903,2.51476562 24.4477806,2.5134375 24.445071,2.51210938 C24.2215226,2.35671875 23.7879742,2.25445313 23.6606194,2.2265625 C23.5766194,2.20796875 23.4872,2.20132813 23.3652645,2.19335938 C23.327329,2.19203125 23.2893935,2.189375 23.2501032,2.1840625 L23.1132645,2.17078125 C23.0644903,2.16546875 23.0184258,2.15882813 22.9710065,2.1521875 L22.9588129,2.15085938 C22.8504258,2.13625 22.7366194,2.12164063 22.597071,2.12164063 L22.5835226,2.12164063 L22.4141677,2.14421875 C22.4101032,2.14554688 22.4060387,2.14554688 22.4019742,2.146875 C21.4725548,2.17742188 20.9319742,2.42445313 20.7422968,2.529375 C20.5526194,2.625 20.4022323,2.77242188 20.3006194,2.96367188 C20.0188129,2.47226562 19.5134581,1.87460938 18.6409419,1.49742188 C18.6301032,1.48945313 18.6179097,1.48148438 18.6057161,1.47484375 L26.5586194,1.46554688 C25.6833935,1.86265625 25.1766839,2.45898438 24.8894581,2.94773438 C24.7878452,2.75914063 24.6388129,2.61171875 24.4532,2.51609375 L24.4532,2.51609375 Z M19.4660387,7.12335937 C18.2832645,9.48476562 16.8674581,10.8328125 16.5964903,11.0785156 L16.5355226,11.1342969 C14.6008129,13.0919531 12.9479097,13.8967969 11.903329,14.2275 C11.5104258,14.3483594 11.2557161,14.3882031 11.2110065,14.3948437 C10.8302968,14.4386719 10.4577161,14.46125 10.1013935,14.46125 C7.92145806,14.46125 6.71294194,13.6232031 6.49616774,13.4571875 C5.21449032,12.4132813 4.75655484,11.1528906 4.6468129,10.7916406 C4.64545806,10.7889844 4.64545806,10.7876562 4.64410323,10.785 C4.15365161,9.47945312 4.16178065,7.63335938 4.16449032,7.42351563 L4.14010323,6.61070312 C4.11978065,5.49109375 4.42732903,4.64773438 4.48829677,4.49234375 L4.50726452,4.4471875 C4.70507097,3.85351563 5.11829677,3.32492188 5.73474839,2.8746875 C6.2495871,2.51078125 6.89313548,2.20265625 7.64642581,1.96226562 C8.86036129,1.57710938 9.96590968,1.48546875 10.1840387,1.47085938 C10.8397806,1.40179688 11.5131355,1.36726563 12.1892,1.36726563 C13.6659742,1.36726563 14.8216516,1.52664063 15.0275871,1.56515625 L15.0872,1.5784375 C17.3497806,1.81617188 18.0258452,2.23585938 18.0448129,2.2478125 C18.8766839,2.61570313 19.3075226,3.20804687 19.5229419,3.6396875 C19.6042323,3.80703125 19.6706194,3.98632813 19.7139742,4.155 C20.1529419,5.68765625 19.4728129,7.10875 19.4660387,7.12335937 L19.4660387,7.12335937 Z M42.9941677,6.40085938 C42.9494581,6.35570313 42.9061032,6.33179688 42.8776516,6.3171875 L42.8085548,6.28664063 C42.7611355,6.26804688 42.7204903,6.26007813 42.6839097,6.26007813 L41.9604258,6.26007813 C41.933329,5.2228125 41.6664258,4.39273438 41.5472,4.1178125 C41.5472,4.11117188 41.5458452,4.10453125 41.5431355,4.09789063 C41.4794581,3.91195313 41.3995226,3.73 41.3060387,3.55734375 C41.2261032,3.40992188 41.1244903,3.2571875 41.0012,3.09117188 C40.9971355,3.0871875 40.993071,3.08320313 40.9876516,3.07789063 C40.9849419,3.06992188 40.9795226,3.06195313 40.9741032,3.0553125 C40.8575871,2.90523438 40.7207484,2.75515625 40.5554581,2.59578125 C40.421329,2.46828125 40.2736516,2.34609375 40.1178452,2.22921875 L40.0040387,2.146875 C39.9999742,2.14421875 39.9972645,2.14289063 39.9932,2.14023438 C39.7669419,1.98484375 39.5176516,1.83875 39.1843613,1.67007813 C39.1098452,1.6315625 39.0366839,1.594375 38.9608129,1.55984375 C38.6708774,1.42570313 38.3619742,1.30617188 38.0164903,1.19328125 L37.9812645,1.17867188 C37.9541677,1.16671875 37.9257161,1.15476563 37.8945548,1.14546875 C36.4489419,0.68328125 35.1320387,0.60890625 35.1225548,0.60890625 C32.8152645,0.363203125 30.6841032,0.595625 29.8806839,0.705859375 C29.653071,0.73109375 29.4566194,0.755 29.2520387,0.7815625 C29.1639742,0.701875 29.0420387,0.67796875 28.9919097,0.689921875 L16.8552645,0.70453125 L16.8579742,0.703203125 L16.213071,0.703203125 L16.2022323,0.7071875 L16.145329,0.7178125 C16.1277161,0.72046875 16.1073935,0.719140625 16.0938452,0.724453125 C16.0911355,0.724453125 16.0924903,0.7284375 16.0911355,0.7284375 L16.0044258,0.745703125 C15.9868129,0.7496875 15.9678452,0.758984375 15.9542968,0.772265625 L15.935329,0.790859375 C15.7415871,0.7603125 15.5478452,0.737734375 15.3175226,0.716484375 C15.0573935,0.676640625 12.6959097,0.340625 10.0756516,0.615546875 C9.9388129,0.623515625 8.69371613,0.70984375 7.29416774,1.15210938 C5.89055484,1.59703125 4.85274839,2.24117188 4.21055484,3.07125 L4.16990968,3.1296875 C4.07371613,3.25984375 3.97210323,3.40328125 3.88945806,3.55734375 C3.79055484,3.73796875 3.70790968,3.92523438 3.64287742,4.1125 C3.64152258,4.11648438 3.64016774,4.12179688 3.64016774,4.12578125 C3.52229677,4.39140625 3.25403871,5.21882813 3.22829677,6.26671875 L2.46552258,6.26804688 C2.43571613,6.27203125 2.16745806,6.31054688 2.05907097,6.61867188 C2.01978065,6.71695313 1.99945806,6.82585938 1.99945806,6.95203125 C1.99945806,7.07289063 2.01978065,7.37703125 2.19455484,7.54703125 C2.27584516,7.62804688 2.38287742,7.67453125 2.49668387,7.67453125 L3.2432,7.67453125 C3.25810323,8.37445313 3.34074839,9.91242188 3.77429677,11.0705469 C3.88674839,11.52875 4.48287742,12.9697656 5.88378065,14.1079688 C5.8892,14.1119531 6.35661935,14.5010938 7.25894194,14.8317969 C7.82661935,15.0403125 8.76823226,15.2886719 10.0322968,15.2886719 C10.4089419,15.2886719 10.8235226,15.2647656 11.2191355,15.2209375 C11.2245548,15.2209375 11.887071,15.1797656 13.0075226,14.6724219 C13.9802968,14.2341406 15.4936516,13.3549219 17.1750065,11.6535938 C17.3606194,11.48625 19.0365548,9.93765625 20.3534581,7.31859375 C20.4022323,7.2096875 20.8303613,6.21625 20.7693935,4.88414063 C20.7639742,4.76328125 20.7544903,4.6490625 20.7436516,4.54148438 C20.8127484,4.49898438 20.8696516,4.441875 20.9089419,4.37015625 L20.9292645,4.35289063 C20.9482323,4.33296875 20.9604258,4.30773438 20.9604258,4.28117188 L20.9658452,3.47367188 C20.9658452,3.21335938 21.4061677,3.05796875 21.563329,3.02476563 C21.9562323,2.92515625 22.4073935,2.91851563 22.5428774,2.9171875 L22.7474581,2.90523438 C22.9019097,2.90921875 23.2053935,2.92382813 23.5075226,2.98359375 L23.5535871,2.99289063 L23.5752645,2.8959375 L23.5888129,3.00085938 L23.6457161,3.0128125 C23.7825548,3.05132813 24.2282968,3.19742188 24.2282968,3.47234375 L24.2404903,4.25460938 C24.2540387,4.325 24.2919742,4.39273438 24.3461677,4.44984375 C24.3272,4.4790625 24.3272,4.51625 24.3434581,4.548125 C24.361071,4.58 24.3962968,4.59992188 24.4328774,4.59992188 L24.4342323,4.59992188 C24.293329,6.11929688 24.8325548,7.29335938 24.8379742,7.30398438 C26.1575871,9.93101563 27.8253935,11.4636719 28.0069419,11.624375 C29.6923613,13.3323437 31.2057161,14.2115625 32.1784903,14.6485156 C33.2027484,15.1053906 33.8476516,15.1864062 33.9289419,15.1957031 L33.9316516,15.1957031 C34.3381032,15.2475 34.7486194,15.2740625 35.155071,15.2740625 C36.4204903,15.2740625 37.3607484,15.024375 37.927071,14.8158594 C38.4324258,14.63125 38.8754581,14.4028125 39.245329,14.1358594 L39.3022323,14.0946875 C40.7044903,12.9471875 41.3006194,11.5128125 41.4076516,11.0678906 C41.8479742,9.8978125 41.9292645,8.35984375 41.9428129,7.65859375 L42.6920387,7.65859375 C42.8031355,7.65859375 42.9088129,7.6134375 43.0117806,7.5125 L43.0646194,7.43148438 C43.067329,7.4275 43.0686839,7.42351563 43.0713935,7.41953125 C43.0713935,7.41820313 43.0727484,7.416875 43.0741032,7.41554688 C43.0984903,7.3690625 43.1282968,7.310625 43.1553935,7.19507813 C43.1689419,7.13664063 43.177071,7.0821875 43.1838452,7.02109375 C43.1865548,6.97460938 43.1879097,6.94140625 43.1879097,6.93609375 C43.1879097,6.70101563 43.1228774,6.52171875 42.9941677,6.40085938 L42.9941677,6.40085938 Z" id="Fill-1"></path>
        </g>
    </g>
</svg>