<?xml version="1.0" encoding="UTF-8" standalone="no"?>
<svg width="46px" height="16px" viewBox="0 0 46 16" version="1.1" xmlns="http://www.w3.org/2000/svg" xmlns:xlink="http://www.w3.org/1999/xlink">
    <!-- Generator: Sketch 40.1 (33804) - http://www.bohemiancoding.com/sketch -->
    <title>Icon_Wrap</title>
    <desc>Created with Sketch.</desc>
    <defs></defs>
    <g id="Symbols" stroke="none" stroke-width="1" fill="none" fill-rule="evenodd">
        <g id="Icon_Wrap" fill="#000000">
            <path d="M43.27872,10.9437818 C43.1540533,13.0092364 43.02352,12.3561455 43.02352,13.1517818 C43.02352,14.5946909 41.5480533,14.6106909 41.5333867,14.6106909 L33.7468533,14.6106909 C30.8281867,14.6106909 28.98752,13.7946909 28.2732533,12.1845091 C25.7564533,6.5016 24.2956533,7.1736 23.0900533,7.1736 L22.9052533,7.1736 C21.6996533,7.1736 20.2373867,6.5016 17.7205867,12.1845091 C17.0077867,13.7946909 15.1656533,14.6106909 12.2484533,14.6106909 L4.46192,14.6106909 C4.44725333,14.6106909 2.97032,14.5946909 2.97032,13.1517818 C2.97032,12.3561455 2.83978667,13.0106909 2.71512,10.9437818 C2.61245333,9.25505455 2.50685333,7.51105455 2.52298667,7.24196364 C2.52445333,7.20850909 2.52445333,7.16341818 2.52445333,7.10814545 C2.52005333,6.76341818 2.50978667,5.95469091 3.50565333,5.03832727 C5.21578667,3.46305455 9.88418667,1.58669091 22.4197867,1.58669091 L23.5740533,1.58669091 C36.1081867,1.58669091 40.77952,3.46305455 42.4896533,5.03832727 C43.4840533,5.95469091 43.4737867,6.76341818 43.4693867,7.10814545 C43.4693867,7.16341818 43.4693867,7.20850909 43.4708533,7.24196364 C43.4869867,7.5096 43.3813867,9.25505455 43.27872,10.9437818 M44.9301867,5.99832727 C44.9301867,3.29869091 39.6017867,0.500145455 23.4317867,0.500145455 L23.3569867,0.772145455 L22.6441867,0.772145455 L22.5693867,0.500145455 C6.39938667,0.500145455 1.07098667,3.29869091 1.07098667,5.99832727 C1.07098667,5.99832727 0.940453333,9.03541818 1.03285333,8.95105455 C1.07685333,8.95105455 1.44205333,9.27687273 1.73685333,9.54887273 C1.76178667,9.97650909 1.79112,10.4579636 1.82338667,10.9888727 C1.94218667,12.9481455 2.07712,12.3794182 2.07712,13.1503273 C2.07712,14.8070545 3.53938667,15.4252364 4.46192,15.4252364 L12.2484533,15.4252364 C15.5205867,15.4252364 17.6985867,14.4099636 18.5492533,12.4885091 C20.9149867,7.15032727 22.16752,7.98814545 22.9037867,7.98814545 L23.0885867,7.98814545 C23.82632,7.98814545 25.0788533,7.15032727 27.4445867,12.4885091 C28.2952533,14.4099636 30.4732533,15.4252364 33.7453867,15.4252364 L41.5333867,15.4252364 C42.45592,15.4252364 43.9181867,14.8070545 43.9181867,13.1503273 C43.9181867,12.3779636 44.05312,12.9481455 44.17192,10.9888727 C44.2041867,10.4594182 44.23352,9.98087273 44.2584533,9.55469091 C44.5532533,9.28269091 44.9228533,8.95105455 44.9668533,8.95105455 C45.0592533,9.03541818 44.9301867,5.99832727 44.9301867,5.99832727" id="Fill-1"></path>
        </g>
    </g>
</svg>