<?xml version="1.0" encoding="UTF-8" standalone="no"?>
<svg width="46px" height="16px" viewBox="0 0 46 16" version="1.1" xmlns="http://www.w3.org/2000/svg" xmlns:xlink="http://www.w3.org/1999/xlink">
    <!-- Generator: Sketch 40.1 (33804) - http://www.bohemiancoding.com/sketch -->
    <title>Icon_Cateye</title>
    <desc>Created with Sketch.</desc>
    <defs></defs>
    <g id="Symbols" stroke="none" stroke-width="1" fill="none" fill-rule="evenodd">
        <g id="Icon_Cateye" fill="#969696">
            <path d="M11.7574697,3.12663473 C9.64254534,2.76436959 7.78721985,2.76436959 6.19149327,3.12663473 C4.59430002,3.49036652 4.16456851,4.76342781 4.89789874,6.94728524 C5.63269563,9.12967601 6.51562523,10.6784695 7.54668754,11.5892656 C8.5792165,12.5029951 9.91387753,13.1483257 11.5492039,13.5267241 C13.903194,13.7921896 15.5957202,13.6469902 16.6282491,13.0911259 C17.6622448,12.5352616 18.3618418,11.958864 18.7285069,11.3619332 C19.4207707,10.1504717 19.7654359,9.00940985 19.7625025,7.94021437 C19.7581026,6.67741971 18.952906,5.64929073 17.3439794,4.85729408 C15.7350529,4.06529743 13.8723941,3.48889986 11.7574697,3.12663473 L11.7574697,3.12663473 Z M4.80843245,2.85530254 L3.79937005,2.07063919 L2.58644185,2.35810465 L3.47817141,3.07676827 L4.80843245,2.85530254 Z M24.4851492,4.7487612 C27.3598037,3.37156703 30.4089909,2.3449047 33.6312439,1.66584091 C37.0162962,1.12757652 40.4028153,0.916377409 43.7893343,1.03077693 C45.0843955,1.32410902 45.341061,2.06183923 44.5563977,3.24836755 L44.3657318,3.4727666 C44.1427994,3.69716565 43.8964005,3.87903155 43.626535,4.02129761 C43.4080025,4.24423 43.2232033,4.63729501 43.0721373,5.19902596 C42.5529395,7.59994914 41.5600104,9.65474046 40.0948166,11.3633999 C39.0828208,12.5792614 37.6880267,13.5091242 35.9104343,14.1559214 C35.3487033,14.3524539 34.8236389,14.50352 34.3352409,14.6120528 C33.846843,14.7161857 32.9199136,14.719119 31.552986,14.6237861 C28.5331321,14.2732543 26.6338068,13.1673923 25.8564768,11.3047335 C25.0850134,9.44207469 24.866481,8.15288014 25.2052795,7.43714983 C25.328479,6.95315188 25.0395469,6.74195277 24.3399499,6.80355251 C23.4423536,6.94288526 22.5506241,6.94288526 21.6618278,6.80355251 C20.9607641,6.74048611 20.671832,6.95168522 20.7950315,7.43714983 C21.1352967,8.15141348 20.9167643,9.44060803 20.1409009,11.3047335 C19.3650376,13.1688589 17.4671789,14.2747209 14.447325,14.6237861 C13.0803975,14.7176524 12.1534681,14.7132524 11.6650701,14.6091195 C11.1781388,14.5049866 10.6530744,14.3539206 10.0898768,14.1559214 C8.31375096,13.5091242 6.91895686,12.5792614 5.90549448,11.3633999 C4.44030067,9.65620712 3.4488382,7.60141581 2.92817373,5.19902596 C2.77857437,4.63729501 2.59230849,4.24423 2.37084276,4.02129761 C2.10244389,3.87903155 1.8575116,3.69716565 1.63457921,3.4727666 L1.44391334,3.24836755 C0.659249996,2.06183923 0.914448917,1.32264236 2.21244343,1.03077693 C5.59749578,0.914910749 8.98401479,1.12610986 12.3690671,1.66584091 C15.6250534,2.352238 18.702107,3.39063361 21.6031614,4.78542771 C22.093026,4.87929398 22.5740907,4.92769378 23.0463553,4.93356042 C23.4526203,4.9379604 23.9058184,4.88956061 24.4059496,4.78542771 C24.4323495,4.77369443 24.4587493,4.76049449 24.4851492,4.7487612 L24.4851492,4.7487612 Z M39.8058844,3.12663473 C38.2130912,2.76583625 36.3592324,2.76583625 34.2413746,3.12663473 C32.1264503,3.4874332 30.2637915,4.06529743 28.6563316,4.85729408 C27.0474051,5.64929073 26.2407418,6.67741971 26.2378085,7.94021437 C26.2334085,9.00940985 26.6118069,10.1504717 27.3686037,11.3619332 C27.700069,11.9309975 28.3747328,12.5015284 29.3925952,13.0705927 C30.4104575,13.6396569 32.0956504,13.7921896 34.4511071,13.5267241 C36.0864335,13.1497923 37.4196279,12.5044617 38.4506902,11.5921989 C39.4861525,10.6770028 40.3676154,9.12820935 41.099479,6.94728524 C41.8342759,4.76196115 41.4030777,3.48889986 39.8058844,3.12663473 L39.8058844,3.12663473 Z M42.200941,2.07063919 L41.1918786,2.85530254 L42.5280063,3.07090163 L43.4138692,2.35810465 L42.200941,2.07063919 Z" id="Fill-1"></path>
        </g>
    </g>
</svg>