<?xml version="1.0" encoding="UTF-8" standalone="no"?>
<svg width="46px" height="16px" viewBox="0 0 46 16" version="1.1" xmlns="http://www.w3.org/2000/svg" xmlns:xlink="http://www.w3.org/1999/xlink">
    <!-- Generator: Sketch 40.1 (33804) - http://www.bohemiancoding.com/sketch -->
    <title>Icon_Oval</title>
    <desc>Created with Sketch.</desc>
    <defs></defs>
    <g id="Symbols" stroke="none" stroke-width="1" fill="none" fill-rule="evenodd">
        <g id="Icon_Oval" fill="#000000">
            <path d="M41.7,10.40998 C40.6498667,11.84248 38.8004,12.86398 36.3496,13.22248 C35.6001333,13.32448 34.9005333,13.42648 34.2493333,13.42648 C28.9004,13.47748 26.7502667,9.94948 26.4496,6.62548 C26.3498667,5.19448 27.0494667,3.96748 28.4002667,3.25048 C29.7496,2.53498 31.9496,2.07448 34.1496,2.07448 C35.8993333,2.07448 41.7,2.38198 42.4494667,7.03498 C42.7002667,8.21098 42.3996,9.38698 41.7,10.40998 L41.7,10.40998 Z M11.8504,13.58098 C11.2006667,13.58098 10.4996,13.52998 9.75013333,13.42648 C7.24946667,13.06948 5.4,12.14848 4.34986667,10.66498 C3.6004,9.64348 3.3496,8.46748 3.50066667,7.23898 C4.20026667,2.58598 9.99946667,2.17648 11.7506667,2.17648 C13.9506667,2.17648 16.1506667,2.58598 17.5,3.25048 C18.8493333,3.91498 19.6002667,5.14348 19.5005333,6.62548 C19.3494667,9.94948 17.1993333,13.52998 11.8504,13.58098 L11.8504,13.58098 Z M45,6.93298 C45,6.62548 44.7506667,6.31948 44.4001333,6.31948 L43.3001333,6.31948 C42.4993333,2.94448 39.0996,0.94948 34.0997333,1.00048 C31.7501333,1.00048 29.4005333,1.51198 27.9001333,2.27998 C26.5493333,2.99548 25.7001333,4.17148 25.5006667,5.50048 C24.7497333,4.88698 23.7494667,4.58098 22.9002667,4.58098 C21.9498667,4.58098 21.1006667,4.83598 20.4494667,5.50048 C20.2001333,4.17148 19.2996,2.99548 18.0001333,2.33098 C16.4997333,1.56298 14.1002667,1.10248 11.8005333,1.10248 C6.9004,1.20598 3.6004,3.14848 2.74973333,6.31948 L1.59986667,6.31948 C1.30066667,6.31948 1,6.57448 1,6.93298 L1,8.41498 C1,8.72248 1.24933333,9.02998 1.59986667,9.02998 L2.60013333,9.02998 C2.74973333,9.84748 3.10026667,10.66498 3.6004,11.33098 C4.80013333,12.96748 6.9004,14.09248 9.6504,14.44948 C10.3998667,14.55148 11.1493333,14.60248 11.9002667,14.60248 C17.5498667,14.55148 20.0006667,11.02348 20.4993333,7.44448 C21.1505333,5.70598 22.45,5.60248 23,5.60248 C23.9005333,5.60248 25.3496,6.16498 25.6502667,7.44448 C26.1005333,10.97248 28.6496,14.44948 34.2493333,14.44948 C34.9504,14.44948 35.6998667,14.39848 36.4493333,14.24548 C39.1993333,13.78498 41.2996,12.71098 42.4494667,11.02348 C42.8997333,10.40998 43.2004,9.74548 43.35,9.02998 L44.4001333,9.02998 C44.6993333,9.02998 45,8.77348 45,8.41498 L45,6.93298 Z" id="Fill-1"></path>
        </g>
    </g>
</svg>