<?xml version="1.0" encoding="UTF-8" standalone="no"?>
<svg width="46px" height="17px" viewBox="0 0 46 17" version="1.1" xmlns="http://www.w3.org/2000/svg" xmlns:xlink="http://www.w3.org/1999/xlink">
    <!-- Generator: Sketch 40.1 (33804) - http://www.bohemiancoding.com/sketch -->
    <title>Icon_Round</title>
    <desc>Created with Sketch.</desc>
    <defs></defs>
    <g id="Symbols" stroke="none" stroke-width="1" fill="none" fill-rule="evenodd">
        <g id="Icon_Round" fill="#000000">
            <path d="M33.4415179,15.6818444 C29.6794107,15.6818444 26.6290536,12.6010296 26.6290536,8.79821481 C26.6290536,4.99821481 29.6794107,1.91599259 33.4415179,1.91599259 C37.203625,1.91599259 40.2525893,4.99680741 40.2525893,8.79821481 C40.2525893,12.5996222 37.203625,15.6818444 33.4415179,15.6818444 L33.4415179,15.6818444 Z M13.559875,15.6818444 C9.79776786,15.6818444 6.74741071,12.5996222 6.74741071,8.79821481 C6.74741071,4.99821481 9.79776786,1.91599259 13.559875,1.91599259 C17.3219821,1.91599259 20.3709464,4.99680741 20.3709464,8.79821481 C20.3709464,12.5996222 17.3219821,15.6818444 13.559875,15.6818444 L13.559875,15.6818444 Z M42.1970179,4.06088148 C40.5645893,4.06088148 38.5992679,2.43391852 38.5992679,2.43391852 L38.6006607,2.43814074 C37.223125,1.23199259 35.4305179,0.500140741 33.4665893,0.500140741 C30.9678036,0.500140741 28.7434107,1.68517778 27.3045893,3.52888148 L27.307375,3.52043704 C27.307375,3.52043704 26.2195536,3.42051111 25.2626607,3.25865926 C24.304375,3.09821481 22.4045179,3.1516963 21.7317679,3.25865926 C21.057625,3.36702963 19.6215893,3.42895556 19.6215893,3.42895556 L19.6215893,3.42895556 C18.181375,1.64154815 15.9904107,0.500140741 13.5361964,0.500140741 C11.5722679,0.500140741 9.77966071,1.23199259 8.402125,2.43814074 L8.40351786,2.43391852 C8.40351786,2.43391852 6.43819643,4.06088148 4.80576786,4.06088148 L3.99930357,4.06088148 L3.99930357,6.78702963 C3.99930357,6.78702963 5.69580357,6.50977037 5.71251786,7.74688148 C5.70416071,7.83695556 5.69719643,7.92562222 5.69301786,8.0171037 C5.69301786,8.01991852 5.69301786,8.02273333 5.691625,8.02695556 L5.691625,8.02695556 C5.68466071,8.17051111 5.68048214,8.31547407 5.68048214,8.46043704 C5.68048214,12.8571778 9.19605357,16.4207333 13.5348036,16.4207333 C17.8721607,16.4207333 21.389125,12.8571778 21.389125,8.46043704 C21.389125,8.03680741 21.3556964,7.62162222 21.2930179,7.21628889 L21.2930179,7.21628889 C21.2930179,7.21206667 21.291625,7.20925185 21.2902321,7.20502963 C21.2651607,7.04177037 21.233125,6.87991852 21.1983036,6.71947407 C20.9963393,5.09673333 22.2624464,5.18680741 22.2624464,5.18680741 L25.0133393,5.18680741 C25.8323393,5.19243704 25.9061607,5.95947407 25.8406964,6.54917778 C25.7877679,6.76732593 25.7431964,6.98828889 25.708375,7.21206667 C25.708375,7.21347407 25.7069821,7.21628889 25.7069821,7.21628889 L25.708375,7.21488148 C25.6456964,7.62021481 25.6122679,8.03680741 25.6122679,8.46184444 C25.6122679,12.8571778 29.1278393,16.4221407 33.4665893,16.4221407 C37.8039464,16.4221407 41.3209107,12.8571778 41.3209107,8.46184444 C41.3209107,8.31547407 41.3167321,8.17051111 41.308375,8.02695556 L41.3097679,8.02695556 C41.308375,8.02414074 41.308375,8.02132593 41.308375,8.0171037 C41.3028036,7.92702963 41.2958393,7.83695556 41.2874821,7.74828889 C41.3041964,6.51117778 42.9993036,6.78843704 42.9993036,6.78843704 L42.9993036,4.06228889 L42.1970179,4.06228889 L42.1970179,4.06088148 Z" id="Fill-1"></path>
        </g>
    </g>
</svg>