<?xml version="1.0" encoding="UTF-8" standalone="no"?>
<svg width="46px" height="16px" viewBox="0 0 46 16" version="1.1" xmlns="http://www.w3.org/2000/svg" xmlns:xlink="http://www.w3.org/1999/xlink">
    <!-- Generator: Sketch 40.1 (33804) - http://www.bohemiancoding.com/sketch -->
    <title>Icon_Square</title>
    <desc>Created with Sketch.</desc>
    <defs></defs>
    <g id="Symbols" stroke="none" stroke-width="1" fill="none" fill-rule="evenodd">
        <g id="Icon_Square" fill="#969696">
            <path d="M43.7515733,4.16838459 C43.5301067,4.16838459 43.3497067,3.99216237 43.3497067,3.77405126 C43.3497067,3.5544957 43.5301067,3.37827348 43.7515733,3.37827348 C43.97304,3.37827348 44.15344,3.5544957 44.15344,3.77405126 C44.15344,3.99216237 43.97304,4.16838459 43.7515733,4.16838459 M43.7515733,6.14438459 C43.5301067,6.14438459 43.3497067,5.96671792 43.3497067,5.74860681 C43.3497067,5.5304957 43.5301067,5.35282903 43.7515733,5.35282903 C43.97304,5.35282903 44.15344,5.5304957 44.15344,5.74860681 C44.15344,5.96671792 43.97304,6.14438459 43.7515733,6.14438459 M42.1015733,8.89316237 C41.9607733,12.6747179 38.4715733,13.2221624 38.4715733,13.2221624 C38.4715733,13.2221624 33.49224,13.5399401 30.8859733,13.4027179 C28.2797067,13.2669401 27.3967733,11.2172735 26.46544,7.93694015 C25.5355733,4.65805126 27.3043733,3.74660681 28.4205067,3.38260681 C33.95864,2.15194015 39.8209067,3.29160681 39.8209067,3.29160681 C42.5665067,3.97482903 42.2409067,5.11305126 42.1015733,8.89316237 M19.5339733,7.93694015 C18.6041067,11.2172735 17.7197067,13.2669401 15.11344,13.4027179 C12.5071733,13.5399401 7.52784,13.2221624 7.52784,13.2221624 C7.52784,13.2221624 4.03717333,12.6747179 3.89784,8.89316237 C3.75850667,5.11305126 3.43290667,3.97482903 6.17850667,3.29160681 C6.17850667,3.29160681 12.04224,2.15194015 17.5789067,3.38260681 C18.6965067,3.74660681 20.4653067,4.65805126 19.5339733,7.93694015 M2.22584,4.16838459 C2.00437333,4.16838459 1.82397333,3.99216237 1.82397333,3.77405126 C1.82397333,3.5544957 2.00437333,3.37827348 2.22584,3.37827348 C2.44730667,3.37827348 2.62624,3.5544957 2.62624,3.77405126 C2.62624,3.99216237 2.44730667,4.16838459 2.22584,4.16838459 M2.22584,6.14438459 C2.00437333,6.14438459 1.82397333,5.96671792 1.82397333,5.74860681 C1.82397333,5.5304957 2.00437333,5.35282903 2.22584,5.35282903 C2.44730667,5.35282903 2.62624,5.5304957 2.62624,5.74860681 C2.62624,5.96671792 2.44730667,6.14438459 2.22584,6.14438459 M35.17744,1.53371792 C30.78184,1.79805126 27.0139733,1.9294957 25.5341067,3.46638459 C25.0853067,3.9054957 22.9205067,3.85638459 22.9205067,3.85638459 C22.9205067,3.85638459 20.9141067,3.9054957 20.4653067,3.46638459 C18.98544,1.9294957 15.2175733,1.79805126 10.8219733,1.53371792 C6.42637333,1.27082903 0.999706667,2.6314957 0.999706667,2.6314957 L0.999706667,7.02260681 C0.999706667,7.02260681 2.79344,7.46027348 3.01784,9.39294015 C3.24224,11.3256068 4.65904,14.244829 7.70824,14.2896068 C10.7589067,14.3314957 15.75584,14.3546068 15.75584,14.3546068 C15.75584,14.3546068 19.4797067,14.1350513 20.60024,8.20705126 C20.82464,7.15405126 21.5873067,6.2324957 22.93224,6.32060681 L23.0671733,6.32060681 C24.4121067,6.2324957 25.17624,7.15405126 25.40064,8.20705126 C26.5211733,14.1350513 30.2435733,14.3546068 30.2435733,14.3546068 C30.2435733,14.3546068 35.0513067,14.2881624 38.1005067,14.244829 C41.1511733,14.2000513 42.7571733,11.3256068 42.9815733,9.39294015 C43.2059733,7.46171792 44.9997067,7.02260681 44.9997067,7.02260681 L44.9997067,2.6314957 C44.9997067,2.6314957 39.57304,1.27082903 35.17744,1.53371792" id="Fill-1"></path>
        </g>
    </g>
</svg>