<?xml version="1.0" encoding="UTF-8" standalone="no"?>
<svg width="46px" height="16px" viewBox="0 0 46 16" version="1.1" xmlns="http://www.w3.org/2000/svg" xmlns:xlink="http://www.w3.org/1999/xlink">
    <!-- Generator: Sketch 40.1 (33804) - http://www.bohemiancoding.com/sketch -->
    <title>Icon_Wayfarer</title>
    <desc>Created with Sketch.</desc>
    <defs></defs>
    <g id="Symbols" stroke="none" stroke-width="1" fill="none" fill-rule="evenodd">
        <g id="Icon_Wayfarer" fill="#000000">
            <path d="M44.1163333,4.05014167 C43.9564667,4.07414167 43.7951333,4.08164167 43.6323333,4.09664167 C43.5707333,4.10264167 43.5076667,4.10714167 43.4431333,4.11314167 C43.1674,4.14164167 42.8916667,4.18064167 42.613,4.19414167 C42.4282,4.20464167 42.2624667,3.95114167 42.3578,3.79064167 C42.4208667,3.68114167 42.5484667,3.57764167 42.6687333,3.54464167 C42.8462,3.49214167 43.0412667,3.49964167 43.229,3.49214167 C43.5047333,3.47714167 43.7804667,3.47714167 44.0547333,3.46064167 C44.2674,3.44864167 44.3612667,3.53264167 44.3612667,3.75314167 C44.3627333,3.97214167 44.3304667,4.01714167 44.1163333,4.05014167 M41.3047333,7.42514167 C41.2226,7.87814167 41.1786,8.34164167 41.073,8.78864167 C40.9512667,9.31364167 40.8104667,9.84014167 40.6212667,10.3441417 C40.4467333,10.8121417 40.215,11.2621417 39.9774,11.7046417 C39.7178,12.1936417 39.3203333,12.5671417 38.8598,12.8521417 C38.5092667,13.0696417 38.1338,13.2616417 37.7495333,13.4071417 C37.3535333,13.5556417 36.9340667,13.6411417 36.5204667,13.7386417 C36.2740667,13.7971417 36.0203333,13.8226417 35.771,13.8691417 C35.5114,13.9156417 35.2532667,13.9906417 34.9907333,14.0176417 C34.5698,14.0596417 34.1474,14.0821417 33.7235333,14.0986417 C33.3906,14.1106417 33.0547333,14.1106417 32.7203333,14.0986417 C32.4108667,14.0851417 32.1014,14.0596417 31.7934,14.0191417 C31.4443333,13.9741417 31.0967333,13.9126417 30.7506,13.8481417 C30.5496667,13.8106417 30.3516667,13.7566417 30.1551333,13.7041417 C30.0480667,13.6756417 29.9395333,13.6471417 29.8398,13.6006417 C29.7459333,13.5541417 29.6726,13.4551417 29.5772667,13.4266417 C29.1651333,13.2976417 28.8380667,13.0411417 28.5300667,12.7486417 C28.1076667,12.3436417 27.7234,11.9041417 27.4388667,11.3851417 C27.169,10.8916417 26.8874,10.4041417 26.6542,9.89114167 C26.4708667,9.49514167 26.3476667,9.06914167 26.2112667,8.65214167 C26.1232667,8.38064167 26.0367333,8.10614167 25.9942,7.82564167 C25.9604667,7.60214167 25.9267333,7.27814167 25.9018,6.98414167 C25.8680667,6.60914167 25.8475333,6.28514167 25.8548667,6.28514167 C25.8152667,5.66564167 25.9663333,4.98764167 26.2743333,4.45364167 C26.465,4.12064167 26.6982,3.81764167 27.0018,3.58964167 C27.3186,3.34964167 27.653,3.13364167 27.983,2.91614167 C28.0988667,2.83964167 28.2264667,2.78264167 28.3496667,2.72414167 C28.4288667,2.68664167 28.5139333,2.66414167 28.5931333,2.63114167 C28.6342,2.61314167 28.9378,2.50964167 29.0522,2.47814167 C29.5186,2.34764167 29.9806,2.19764167 30.4514,2.08964167 C30.9031333,1.98614167 31.3607333,1.91114167 31.8198,1.85114167 C32.3976667,1.77464167 32.977,1.70414167 33.5592667,1.67264167 C34.1224667,1.64264167 34.6900667,1.65464167 35.2547333,1.66814167 C35.6404667,1.67714167 36.0276667,1.70264167 36.4104667,1.75214167 C36.959,1.82564167 37.5060667,1.92764167 38.0531333,2.01764167 C38.6031333,2.10764167 39.1384667,2.24564167 39.6562,2.45714167 C40.1211333,2.64614167 40.5611333,2.86664167 40.9131333,3.25364167 C41.2842,3.66314167 41.4426,4.15364167 41.4616667,4.68314167 C41.4968667,5.59964167 41.4719333,6.51764167 41.3047333,7.42514167 M20.0967333,6.98414167 C20.0703333,7.27664167 20.0380667,7.60064167 20.0043333,7.82564167 C19.9618,8.10464167 19.8738,8.38064167 19.7872667,8.65064167 C19.6508667,9.06914167 19.5262,9.49364167 19.3443333,9.89114167 C19.1111333,10.4026417 18.8295333,10.8916417 18.5596667,11.3836417 C18.2751333,11.9041417 17.8908667,12.3421417 17.467,12.7471417 C17.1604667,13.0411417 16.8334,13.2976417 16.4212667,13.4266417 C16.3259333,13.4551417 16.2526,13.5526417 16.1587333,13.5991417 C16.0604667,13.6471417 15.9519333,13.6756417 15.8434,13.7041417 C15.6468667,13.7551417 15.4488667,13.8106417 15.2494,13.8481417 C14.9018,13.9126417 14.5542,13.9726417 14.2051333,14.0191417 C13.8971333,14.0581417 13.5876667,14.0851417 13.2782,14.0971417 C12.9438,14.1106417 12.6094,14.1106417 12.275,14.0986417 C11.8526,14.0821417 11.4287333,14.0596417 11.0078,14.0161417 C10.7467333,13.9891417 10.4886,13.9156417 10.2275333,13.8676417 C9.9782,13.8226417 9.72446667,13.7971417 9.47806667,13.7386417 C9.06593333,13.6411417 8.64646667,13.5556417 8.25046667,13.4071417 C7.8662,13.2616417 7.49073333,13.0696417 7.13873333,12.8521417 C6.67966667,12.5656417 6.2822,12.1921417 6.02113333,11.7046417 C5.785,11.2621417 5.55473333,10.8121417 5.37873333,10.3426417 C5.191,9.83864167 5.04873333,9.31214167 4.92553333,8.78864167 C4.8214,8.34014167 4.7774,7.87814167 4.69526667,7.42514167 C4.52806667,6.51764167 4.50313333,5.59964167 4.53833333,4.68164167 C4.55886667,4.15214167 4.7158,3.66164167 5.08833333,3.25364167 C5.43886667,2.86664167 5.88033333,2.64614167 6.3438,2.45564167 C6.86153333,2.24414167 7.39833333,2.10614167 7.94686667,2.01614167 C8.4954,1.92764167 9.041,1.82564167 9.58953333,1.75214167 C9.97233333,1.70264167 10.3595333,1.67714167 10.7467333,1.66664167 C11.3114,1.65314167 11.8775333,1.64264167 12.4422,1.67264167 C13.023,1.70264167 13.6038,1.77464167 14.1802,1.84964167 C14.6392667,1.91114167 15.0983333,1.98614167 15.5500667,2.08964167 C16.0208667,2.19764167 16.4828667,2.34764167 16.9492667,2.47814167 C17.0622,2.50814167 17.3658,2.61314167 17.4068667,2.62964167 C17.4860667,2.66414167 17.5711333,2.68664167 17.6488667,2.72264167 C17.7735333,2.78264167 17.9011333,2.83964167 18.0155333,2.91464167 C18.347,3.13364167 18.6799333,3.34964167 18.9967333,3.58814167 C19.3018,3.81764167 19.535,4.12064167 19.7256667,4.45214167 C20.0322,4.98614167 20.1847333,5.66414167 20.1451333,6.28514167 C20.151,6.28514167 20.1319333,6.60914167 20.0967333,6.98414167 M3.387,4.19414167 C3.10833333,4.18064167 2.8326,4.14164167 2.5554,4.11314167 C2.49233333,4.10714167 2.42926667,4.10264167 2.3662,4.09664167 C2.20486667,4.08164167 2.04206667,4.07564167 1.8822,4.05014167 C1.66953333,4.01714167 1.63726667,3.97214167 1.63873333,3.75464167 C1.63873333,3.53264167 1.7326,3.44864167 1.9438,3.46064167 C2.21953333,3.47714167 2.49526667,3.47714167 2.76953333,3.49214167 C2.95873333,3.50114167 3.1538,3.49364167 3.33126667,3.54464167 C3.45006667,3.57764167 3.57913333,3.68114167 3.6422,3.79064167 C3.73753333,3.95264167 3.5718,4.20464167 3.387,4.19414167 M44.9992667,3.19214167 C44.9992667,3.03914167 44.9728667,2.89364167 44.8526,2.79014167 C44.7954,2.73914167 44.7279333,2.67914167 44.6575333,2.66864167 C44.4258,2.63414167 44.1882,2.62514167 43.955,2.59514167 C43.3478,2.51714167 42.7494,2.42864167 42.1774,2.17364167 C41.5335333,1.88714167 40.8720667,1.63664167 40.2091333,1.40114167 C39.6855333,1.21514167 39.1487333,1.07114167 38.6163333,0.915141669 C37.8434,0.690141669 37.0484667,0.598641669 36.2535333,0.549141669 C35.5656667,0.504141669 34.8748667,0.511641669 34.1855333,0.501141669 C33.1222,0.486141669 32.0691333,0.621141669 31.0204667,0.777141669 C30.4264667,0.865641669 29.8398,1.00664167 29.2531333,1.13414167 C29.0639333,1.17614167 28.8791333,1.24064167 28.6958,1.30214167 C28.6855333,1.30514167 27.5796667,1.73714167 27.213,1.97414167 C26.7671333,2.26064167 26.0631333,2.62814167 26.0323333,2.65364167 C25.8372667,2.81264167 25.6172667,2.75264167 25.409,2.74214167 C24.9059333,2.71964167 24.4028667,2.66564167 23.8998,2.62964167 C23.2882,2.58464167 22.7176667,2.55464167 22.1016667,2.62964167 L22.0987333,2.62964167 C21.5971333,2.66564167 21.0940667,2.71964167 20.5895333,2.74364167 C20.3827333,2.75264167 20.1612667,2.81264167 19.9676667,2.65364167 C19.9354,2.62814167 19.2328667,2.26064167 18.787,1.97414167 C18.4188667,1.73714167 17.313,1.30514167 17.3042,1.30214167 C17.1194,1.24064167 16.9360667,1.17614167 16.7468667,1.13414167 C16.1587333,1.00814167 15.5720667,0.865641669 14.9780667,0.777141669 C13.9294,0.621141669 12.8778,0.486141669 11.813,0.501141669 C11.1236667,0.511641669 10.4328667,0.504141669 9.74646667,0.547641669 C8.95006667,0.598641669 8.15513333,0.688641669 7.38366667,0.915141669 C6.85126667,1.07114167 6.313,1.21514167 5.7894,1.40114167 C5.12646667,1.63664167 4.46646667,1.88714167 3.8226,2.17364167 C3.2506,2.42864167 2.65073333,2.51714167 2.045,2.59514167 C1.81033333,2.62514167 1.5742,2.63414167 1.341,2.66864167 C1.27206667,2.68064167 1.2046,2.73914167 1.1474,2.79014167 C1.02713333,2.89364167 1.00073333,3.03914167 1.00073333,3.19214167 C1.00073333,3.56864167 1.00073333,3.94514167 0.999266667,4.32164167 C0.999266667,4.62614167 1.1386,4.80014167 1.4246,4.88414167 C1.6446,4.94714167 1.86313333,5.02364167 2.07726667,5.10614167 C2.4806,5.26214167 2.76806667,5.56514167 2.969,5.93714167 C3.11566667,6.21164167 3.2154,6.51914167 3.299,6.82364167 C3.4706,7.45514167 3.6026,8.10014167 3.7786,8.73164167 C4.0162,9.57164167 4.27286667,10.4071417 4.6366,11.2021417 C4.89913333,11.7751417 5.2042,12.3241417 5.61633333,12.8041417 C6.06073333,13.3231417 6.57993333,13.7476417 7.19593333,14.0206417 C7.67406667,14.2321417 8.17273333,14.3896417 8.66406667,14.5666417 C8.84446667,14.6326417 9.40033333,14.7736417 9.58513333,14.8126417 C10.1307333,14.9281417 10.2392667,14.9326417 10.7834,15.0481417 C11.2776667,15.1306417 11.7851333,15.1891417 12.2588667,15.1951417 C12.7384667,15.2011417 13.2078,15.1471417 13.8238,15.1471417 C14.211,15.1141417 14.3884667,15.0991417 14.7302,15.0301417 C14.9883333,14.9776417 15.2464667,14.9191417 15.5031333,14.8531417 C15.7935333,14.7766417 16.0898,14.7121417 16.3684667,14.6026417 C16.9903333,14.3626417 17.5726,14.0371417 18.0698,13.5841417 C18.3954,13.2886417 18.7092667,12.9676417 18.9776667,12.6166417 C19.2988667,12.1951417 19.5746,11.7346417 19.8562,11.2816417 C20.0160667,11.0236417 20.1642,10.7551417 20.2918,10.4791417 C20.4912667,10.0486417 20.6775333,9.61064167 20.8520667,9.16964167 C21.0456667,8.67764167 21.2260667,8.17964167 21.4020667,7.68164167 C21.4988667,7.41014167 21.5575333,7.12364167 21.6646,6.85664167 C21.7482,6.64664167 21.7423333,6.40364167 21.5956667,6.23714167 C21.3404667,5.94614167 21.3126,5.38064167 21.5487333,5.07314167 C21.8435333,4.69064167 22.2674,4.54064167 22.7118,4.49714167 C22.8056667,4.48814167 22.901,4.49264167 22.9948667,4.48514167 C23.0916667,4.49264167 23.1899333,4.48814167 23.2882,4.49714167 C23.7839333,4.54514167 24.1564667,4.69064167 24.4512667,5.07314167 C24.6874,5.38064167 24.6580667,5.94614167 24.4043333,6.23714167 C24.2576667,6.40364167 24.2518,6.64664167 24.3354,6.85814167 C24.4424667,7.12364167 24.5026,7.41014167 24.5979333,7.68164167 C24.7739333,8.17964167 24.9543333,8.67914167 25.1479333,9.16964167 C25.3224667,9.61064167 25.5087333,10.0486417 25.7082,10.4791417 C25.8358,10.7551417 25.9839333,11.0236417 26.1438,11.2816417 C26.4239333,11.7346417 26.6996667,12.1951417 27.0223333,12.6166417 C27.2907333,12.9676417 27.6046,13.2886417 27.9302,13.5841417 C28.4274,14.0386417 29.0111333,14.3626417 29.6315333,14.6026417 C29.9116667,14.7106417 30.2064667,14.7781417 30.4968667,14.8531417 C30.7535333,14.9206417 31.0116667,14.9791417 31.2698,15.0316417 C31.6115333,15.0991417 31.789,15.1141417 32.1762,15.1471417 C32.7907333,15.1471417 33.2615333,15.2011417 33.7411333,15.1951417 C34.2148667,15.1891417 34.7223333,15.1306417 35.2166,15.0481417 C35.7607333,14.9326417 35.8692667,14.9281417 36.4134,14.8126417 C36.5996667,14.7736417 37.1555333,14.6326417 37.3359333,14.5666417 C37.8272667,14.3896417 38.3259333,14.2321417 38.8026,14.0206417 C39.4200667,13.7476417 39.9392667,13.3231417 40.3836667,12.8041417 C40.7958,12.3241417 41.0994,11.7751417 41.3634,11.2021417 C41.7271333,10.4071417 41.9838,9.57164167 42.2199333,8.73164167 C42.3974,8.10014167 42.5279333,7.45514167 42.701,6.82364167 C42.7831333,6.51914167 42.8843333,6.21164167 43.031,5.93714167 C43.2304667,5.56514167 43.5179333,5.26064167 43.9227333,5.10614167 C44.1368667,5.02364167 44.3554,4.94714167 44.5754,4.88414167 C44.8614,4.80164167 45.0007333,4.62614167 44.9992667,4.32164167 L44.9992667,3.19214167" id="Fill-1"></path>
        </g>
    </g>
</svg>