<?xml version="1.0" encoding="UTF-8"?>
<svg width="90px" height="91px" viewBox="0 0 90 91" version="1.1" xmlns="http://www.w3.org/2000/svg" xmlns:xlink="http://www.w3.org/1999/xlink">
    <!-- Generator: Sketch 46.1 (44463) - http://www.bohemiancoding.com/sketch -->
    <title>Icon/Member/Profile</title>
    <desc>Created with Sketch.</desc>
    <defs>
        <path d="M0,2.24566045 C0.723301658,0.748553485 2.12979937,-1.68847575e-13 4.21949314,0 C6.30918691,1.66808696e-13 7.56935586,0.748553485 8,2.24566045 L8,36.0526375 L3.79829545,41 L0,36.0526375 L0,2.24566045 Z" id="path-1"></path>
        <path d="M21.1707057,4 L16.3860009,4 C15.5523118,4 14.8060704,4.51714567 14.5133426,5.29775312 L14.5133426,5.29775312 L13.0133426,9.29775312 C12.9291348,9.52230723 12.8860009,9.7601761 12.8860009,10 C12.8860009,11.1045695 13.7814314,12 14.8860009,12 L38.1139991,12 C38.353823,12 38.5916918,11.9568661 38.8162459,11.8726584 C39.8504866,11.4848181 40.3744977,10.3319938 39.9866574,9.29775312 L38.4866574,5.29775312 C38.1939296,4.51714567 37.4476882,4 36.6139991,4 L36.6139991,4 L32.8292943,4 C32.9398458,3.68722107 33,3.35063542 33,3 L33,3 C33,1.34314575 31.6568542,-3.04359188e-16 30,0 L24,0 L24,4.4408921e-16 C22.3431458,7.48448398e-16 21,1.34314575 21,3 L21,3 L21,3 C21,3.35063542 21.0601542,3.68722107 21.1707057,4 Z" id="path-2"></path>
    </defs>
    <g id="Symbols" stroke="none" stroke-width="1" fill="none" fill-rule="evenodd">
        <g id="Icon/Member/Profile">
            <g id="Group-3" transform="translate(18.000000, 4.000000)">
                <g id="Group-2" transform="translate(0.000000, 8.000000)">
                    <rect id="Rectangle-7" stroke="#000000" stroke-width="1.31040009" x="0.655200045" y="0.655200045" width="51.6895999" height="69.6895999" rx="2.62080018"></rect>
                    <g id="Group" transform="translate(44.000000, 44.500000) rotate(46.000000) translate(-44.000000, -44.500000) translate(40.000000, 24.000000)">
                        <g id="Rectangle-10">
                            <use fill="#FFFFFF" fill-rule="evenodd" xlink:href="#path-1"></use>
                            <path stroke="#000000" stroke-width="1.31040009" d="M0.655200045,2.40218933 L0.655200045,35.8301318 L3.82400574,39.9575701 L7.34479996,35.8119561 L7.34479996,2.34290983 C6.98191499,1.21460142 5.99769348,0.655200045 4.21949314,0.655200045 C2.42991685,0.655200045 1.27744608,1.23541138 0.655200045,2.40218933 Z"></path>
                        </g>
                        <path d="M1,7.5 L7,7.5" id="Line" stroke="#000000" stroke-width="1.31040009" fill="#FFFFFF" stroke-linecap="square"></path>
                        <path d="M1,35.5 L7,35.5" id="Line-Copy" stroke="#000000" stroke-width="1.31040009" fill="#FFFFFF" stroke-linecap="square"></path>
                    </g>
                </g>
                <g id="Combined-Shape">
                    <use fill="#FFFFFF" fill-rule="evenodd" xlink:href="#path-2"></use>
                    <path stroke="#000000" stroke-width="1.31" d="M21.7882658,3.78172382 L22.0969247,4.655 L16.3860009,4.655 C15.825345,4.655 15.3234976,5.00278046 15.1266382,5.52773897 L13.6266382,9.52773897 C13.5700085,9.67875161 13.5410009,9.83871843 13.5410009,10 C13.5410009,10.742823 14.1431779,11.345 14.8860009,11.345 L38.1139991,11.345 C38.2752806,11.345 38.4352474,11.3159925 38.5862601,11.2593627 C39.2817869,10.9985402 39.6341844,10.2232658 39.3733618,9.52773897 L37.8733618,5.52773897 C37.6765024,5.00278046 37.174655,4.655 36.6139991,4.655 L31.9030753,4.655 L32.2117342,3.78172382 C32.2995652,3.53322684 32.345,3.27017799 32.345,3 C32.345,1.70489226 31.2951077,0.655 30,0.655 L24,0.655 C22.7048923,0.655 21.655,1.70489226 21.655,3 C21.655,3.27017799 21.7004348,3.53322684 21.7882658,3.78172382 Z"></path>
                </g>
            </g>
        </g>
    </g>
</svg>