<?xml version="1.0" encoding="UTF-8"?>
<svg width="90px" height="90px" viewBox="0 0 90 90" version="1.1" xmlns="http://www.w3.org/2000/svg" xmlns:xlink="http://www.w3.org/1999/xlink">
    <!-- Generator: Sketch 46.1 (44463) - http://www.bohemiancoding.com/sketch -->
    <title>Icon/Member/Wishlist-Large</title>
    <desc>Created with Sketch.</desc>
    <defs></defs>
    <g id="Symbols" stroke="none" stroke-width="1" fill="none" fill-rule="evenodd">
        <g id="Icon/Member/Wishlist-Large" stroke="#000000" stroke-width="0.3" fill="#000000">
            <path d="M44.9997554,12 C44.5730888,12 44.1823519,12.2386389 43.9937203,12.6153789 L34.7125973,31.1187302 L13.9608774,34.085144 C13.5375792,34.1459085 13.1872634,34.4375783 13.0547722,34.8375193 C12.9234037,35.2374604 13.032316,35.6760698 13.3388423,35.9699492 L28.3552638,50.3722472 L24.8105619,70.7084776 C24.7375795,71.1227812 24.9104918,71.541504 25.2574391,71.7889814 C25.4528076,71.9292922 25.6841058,72 25.9165269,72 C26.096176,72 26.2747023,71.9580172 26.439755,71.8729469 L44.9997554,62.2710466 L63.5608787,71.8729469 C63.7248086,71.9580172 63.9044577,72 64.082984,72 C64.3154051,72 64.5478261,71.9292922 64.7431946,71.7889814 C65.0890191,71.541504 65.2619314,71.1227812 65.1889489,70.7084776 L61.6453699,50.3722472 L76.6606685,35.9699492 C76.9671949,35.6760698 77.07723,35.2374604 76.9447387,34.8375193 C76.8122475,34.4375783 76.4619317,34.1459085 76.0386334,34.085144 L55.2869136,31.1187302 L46.0069134,12.6153789 C45.8182818,12.2386389 45.4275449,12 44.9997554,12 M45,13 L54.5795636,32.09272 L76,35.1541638 L60.5,50.0156381 L64.1591273,71 L45,61.09272 L25.8408727,71 L29.5,50.0156381 L14,35.1541638 L35.4204364,32.09272 L45,13" id="Fill-3"></path>
        </g>
    </g>
</svg>