<?xml version="1.0" encoding="UTF-8" standalone="no"?>
<svg width="97px" height="33px" viewBox="0 0 97 33" version="1.1" xmlns="http://www.w3.org/2000/svg" xmlns:xlink="http://www.w3.org/1999/xlink">
    <!-- Generator: Sketch 40.1 (33804) - http://www.bohemiancoding.com/sketch -->
    <title>Icon_FrameWidth Copy</title>
    <desc>Created with Sketch.</desc>
    <defs></defs>
    <g id="ProdcutDetail" stroke="none" stroke-width="1" fill="none" fill-rule="evenodd">
        <g id="Icon_LensHeight" transform="translate(-4.000000, -4.000000)">
            <path d="M29.6476591,9.20981818 L31.1930455,9.76977273 C30.3531136,8.80638636 29.5616818,7.25218182 29.0965227,6 C28.6313636,7.25218182 27.8399318,8.80638636 27,9.76977273 L28.5453864,9.20981818 L28.5453864,31.0237955 L27,30.4638409 C27.8399318,31.4272273 28.6313636,32.9814318 29.0965227,34.2336136 C29.5616818,32.9814318 30.3531136,31.4272273 31.1930455,30.4638409 L29.6476591,31.0237955 L29.6476591,9.20981818 Z" id="Fill-1" fill="#000000"></path>
            <path d="M93.2576364,19.2425396 C93.0724545,20.2654487 92.97325,21.3104032 92.7351591,22.320085 C92.4595909,23.5061305 92.1421364,24.6943805 91.7144545,25.831926 C91.3220455,26.8879032 90.7973636,27.9041987 90.2616591,28.9028578 C89.67525,30.0051305 88.778,30.8494714 87.7396591,31.4931987 C86.9482273,31.9826078 86.0994773,32.4169032 85.2330909,32.7453805 C84.3380455,33.0804714 83.3922955,33.2722669 82.4575682,33.4927214 C81.9020227,33.6249941 81.3288409,33.6823123 80.7666818,33.7881305 C80.1802727,33.8939487 79.5982727,34.0614941 79.00525,34.1232214 C78.0550909,34.2180169 77.1027273,34.2687214 76.1459545,34.3061987 C75.3942045,34.3326532 74.6358409,34.3326532 73.8818864,34.3061987 C73.1830455,34.275335 72.4842045,34.2180169 71.7897727,34.125426 C71.0005455,34.0240169 70.2157273,33.8851305 69.4353182,33.7396305 C68.9811818,33.6558578 68.5336591,33.5346078 68.0905455,33.4155623 C67.85025,33.3516305 67.6033409,33.2876987 67.3784773,33.1818805 C67.1668409,33.0760623 67.0015,32.8534032 66.7854545,32.7894714 C65.8573409,32.4984714 65.1188182,31.918676 64.4221818,31.2595169 C63.4698182,30.3446305 62.6012273,29.352585 61.9597045,28.1819714 C61.35125,27.0664714 60.7141364,25.9664032 60.1894545,24.8090169 C59.775,23.9139714 59.4972273,22.9527896 59.1885909,22.0114487 C58.9901818,21.398585 58.7939773,20.7791078 58.6991818,20.1464032 C58.6220227,19.6415623 58.5470682,18.9118578 58.48975,18.246085 C58.4147955,17.4017441 58.3685,16.669835 58.3839318,16.669835 C58.29575,15.2721532 58.63525,13.7399941 59.3318864,12.5363123 C59.7617727,11.7845623 60.2886591,11.0989487 60.9742727,10.5852896 C61.6885455,10.0429714 62.4425,9.55576686 63.1876364,9.06415322 C63.4499773,8.89219868 63.7365682,8.76433504 64.0165455,8.63206231 C64.1951136,8.54608504 64.3869091,8.4953805 64.5654773,8.4226305 C64.6580682,8.38074413 65.3436818,8.14706231 65.6016136,8.07651686 C66.6531818,7.78110777 67.6959318,7.44381231 68.7585227,7.19910777 C69.7792273,6.96542595 70.8131591,6.79567595 71.8492955,6.66119868 C73.1521818,6.48924413 74.4594773,6.32831231 75.7755909,6.25776686 C77.0454091,6.18942595 78.32625,6.21808504 79.6026818,6.24894868 C80.4712727,6.26878959 81.3464773,6.32610777 82.2106591,6.43853959 C83.4474091,6.6038805 84.6841591,6.83315322 85.9187045,7.03597141 C87.1598636,7.24099413 88.3679545,7.55183504 89.5363636,8.02801686 C90.5857273,8.45569868 91.5799773,8.95392595 92.3736136,9.82692595 C93.2113409,10.7506305 93.5684773,11.8573123 93.6125682,13.0543805 C93.6919318,15.1222441 93.6346136,17.1945169 93.2576364,19.2425396 M46.51025,18.246085 C46.4507273,18.9074487 46.3779773,19.6393578 46.3008182,20.1464032 C46.2060227,20.7769032 46.0076136,21.398585 45.8114091,22.0092441 C45.5027727,22.9527896 45.2227955,23.9117669 44.8105455,24.8090169 C44.2858636,25.9641987 43.64875,27.0664714 43.0402955,28.1775623 C42.3987727,29.352585 41.5301818,30.3402214 40.5734091,31.2551078 C39.8811818,31.918676 39.1448636,32.4984714 38.2145455,32.7894714 C37.9985,32.8534032 37.8331591,33.0738578 37.6215227,33.1774714 C37.3988636,33.2876987 37.1541591,33.3516305 36.9094545,33.4155623 C36.4663409,33.5301987 36.0188182,33.6558578 35.5690909,33.7396305 C34.7842727,33.8851305 33.9994545,34.0218123 33.2102273,34.125426 C32.5157955,34.2136078 31.8169545,34.275335 31.1181136,34.3017896 C30.3641591,34.3326532 29.6102045,34.3326532 28.8540455,34.3061987 C27.9016818,34.2687214 26.9449091,34.2180169 25.99475,34.1188123 C25.4039318,34.0592896 24.8219318,33.8939487 24.2333182,33.7837214 C23.6711591,33.6823123 23.0979773,33.6249941 22.5424318,33.4927214 C21.6121136,33.2722669 20.6641591,33.0804714 19.7713182,32.7453805 C18.9027273,32.4169032 18.0561818,31.9826078 17.2603409,31.4931987 C16.2242045,30.8450623 15.3269545,30.002926 14.7383409,28.9028578 C14.2048409,27.9041987 13.6867727,26.8879032 13.28775,25.8275169 C12.8644773,24.6899714 12.5426136,23.5017214 12.2648409,22.320085 C12.0311591,21.3081987 11.9319545,20.2654487 11.7467727,19.2425396 C11.3675909,17.1945169 11.3124773,15.1222441 11.3918409,13.0499714 C11.4381364,11.8551078 11.7930682,10.748426 12.633,9.82692595 C13.4244318,8.95392595 14.4208864,8.45569868 15.4658409,8.02581231 C16.6364545,7.54742595 17.84675,7.23658504 19.0857045,7.03376686 C20.3224545,6.83315322 21.5547955,6.6038805 22.79375,6.43853959 C23.6579318,6.32610777 24.5309318,6.26878959 25.4039318,6.24453959 C26.6803636,6.21367595 27.9567955,6.18942595 29.2310227,6.25776686 C30.5427273,6.32610777 31.8544318,6.48924413 33.1551136,6.65678959 C34.19125,6.79567595 35.2273864,6.96542595 36.2480909,7.19910777 C37.3106818,7.44381231 38.3534318,7.78110777 39.405,8.07651686 C39.6607273,8.14485777 40.3463409,8.38074413 40.4389318,8.41822141 C40.6175,8.4953805 40.8092955,8.54608504 40.9834545,8.62765322 C41.2656364,8.76433504 41.5544318,8.89219868 41.8123636,9.06194868 C42.5597045,9.55576686 43.3114545,10.0429714 44.0279318,10.5808805 C44.71575,11.0989487 45.2426364,11.7845623 45.6725227,12.5319032 C46.36475,13.7377896 46.7086591,15.2677441 46.6182727,16.669835 C46.6315,16.669835 46.5896136,17.4017441 46.51025,18.246085 M101,9.93494868 C101,9.59765322 100.942682,9.27578959 100.675932,9.04872141 C100.550273,8.93628959 100.402568,8.80401686 100.246045,8.77976686 C99.7367955,8.70481231 99.2121136,8.68497141 98.6984545,8.61883504 C97.3602955,8.4468805 96.0397727,8.25067595 94.7787727,7.68851686 C93.3590455,7.05801686 91.9018409,6.50467595 90.4402273,5.98660777 C89.2850455,5.57656231 88.1012045,5.25910777 86.9283864,4.91519868 C85.2242727,4.41917595 83.4716591,4.21635777 81.7190455,4.10833504 C80.2023182,4.0091305 78.6811818,4.02456231 77.1600455,4.00251686 C74.8166136,3.96944868 72.4952273,4.26706231 70.1826591,4.61097141 C68.8731591,4.80497141 67.5812955,5.11581231 66.2872273,5.39799413 C65.8705682,5.49058504 65.4627273,5.63167595 65.0592955,5.76835777 C65.0350455,5.77497141 62.5968182,6.72733504 61.7899545,7.24981231 C60.8067273,7.88031231 59.2547273,8.69158504 59.1863864,8.74669868 C58.7565,9.09722141 58.2715,8.96494868 57.8129545,8.94290322 C56.7040682,8.89219868 55.5951818,8.77315322 54.4862955,8.69378959 C53.1371136,8.59458504 51.8783182,8.52844868 50.5203182,8.69378959 L50.5137045,8.69378959 C49.4092273,8.77315322 48.3003409,8.89219868 47.1870455,8.94510777 C46.7307045,8.96494868 46.2435,9.09722141 45.8158182,8.74669868 C45.7452727,8.69158504 44.1976818,7.88031231 43.2144545,7.24981231 C42.4031818,6.72733504 39.9649545,5.77497141 39.9451136,5.76835777 C39.5372727,5.63167595 39.1338409,5.49058504 38.7171818,5.39799413 C37.4187045,5.12022141 36.1268409,4.80497141 34.8173409,4.61097141 C32.5047727,4.26706231 30.1877955,3.96944868 27.8399545,4.00251686 C26.3188182,4.02456231 24.7976818,4.0091305 23.2831591,4.10392595 C21.5283409,4.21635777 19.7757273,4.41476686 18.0738182,4.91519868 C16.901,5.25910777 15.7149545,5.57656231 14.5597727,5.98660777 C13.0981591,6.50467595 11.6431591,7.05801686 10.2234318,7.68851686 C8.96243182,8.25067595 7.63970455,8.4468805 6.30595455,8.61883504 C5.78788636,8.68497141 5.26761364,8.70481231 4.75395455,8.77976686 C4.60184091,8.80622141 4.45193182,8.93628959 4.32627273,9.04872141 C4.06172727,9.27578959 4.00220455,9.59765322 4.00220455,9.93494868 C4.00220455,10.7638578 4.00220455,11.5949714 4,12.4238805 C4,13.0962669 4.30643182,13.4798578 4.93693182,13.6650396 C5.42193182,13.803926 5.90472727,13.9714714 6.3765,14.1544487 C7.26493182,14.4983578 7.89984091,15.166335 8.34295455,15.986426 C8.66481818,16.5904714 8.88527273,17.2694714 9.07045455,17.9396532 C9.44743182,19.332926 9.73843182,20.7548578 10.1264318,22.145926 C10.6511136,23.9977441 11.2176818,25.8407441 12.0179318,27.5933578 C12.5977273,28.8565623 13.2701136,30.0668578 14.1783864,31.1250396 C15.1572045,32.2691987 16.3035682,33.203926 17.6615682,33.8057669 C18.7153409,34.2731305 19.8132045,34.6192441 20.8978409,35.0094487 C21.2946591,35.1549487 22.5203864,35.4657896 22.9282273,35.5517669 C24.1297045,35.8074941 24.37,35.8163123 25.5692727,36.0720396 C26.6583182,36.2528123 27.7782273,36.3828805 28.8231818,36.3961078 C29.8791591,36.409335 30.9152955,36.2902896 32.2732955,36.2902896 C33.1264545,36.2175396 33.5166591,36.1844714 34.2706136,36.0323578 C34.8393864,35.9155169 35.4081591,35.7876532 35.9747273,35.6421532 C36.6140455,35.4724032 37.2687955,35.3313123 37.8816591,35.0888123 C39.2528864,34.5597214 40.5359318,33.8432441 41.6337955,32.844585 C42.3502727,32.1920396 43.0425,31.4843805 43.6333182,30.710585 C44.3431818,29.7824714 44.9494318,28.766176 45.5711136,27.7675169 C45.9238409,27.1987441 46.2501136,26.607926 46.5322955,25.9994714 C46.971,25.0493123 47.3810455,24.0837214 47.7668409,23.1115169 C48.1923182,22.0268805 48.5913409,20.9290169 48.9793409,19.8311532 C49.1931818,19.2337214 49.3210455,18.6010169 49.5569318,18.0124032 C49.7421136,17.5494487 49.7288864,17.0137441 49.4048182,16.6477896 C48.8426591,16.0062669 48.7809318,14.7584941 49.3012045,14.0816987 C49.9515455,13.2373578 50.8862727,12.906676 51.8672955,12.8118805 C52.0723182,12.7920396 52.2839545,12.8008578 52.4911818,12.785426 C52.7028182,12.8008578 52.9210682,12.7920396 53.1371136,12.8118805 C54.2305682,12.9176987 55.0506591,13.2373578 55.701,14.0816987 C56.2212727,14.7584941 56.1573409,16.0062669 55.5973864,16.6477896 C55.2733182,17.0137441 55.2622955,17.5494487 55.4452727,18.0168123 C55.6811591,18.6010169 55.8134318,19.2337214 56.0250682,19.8311532 C56.4130682,20.9290169 56.8098864,22.0312896 57.2375682,23.1115169 C57.6211591,24.0837214 58.0312045,25.0493123 58.4721136,25.9994714 C58.7542955,26.607926 59.0805682,27.1987441 59.4332955,27.7675169 C60.0505682,28.766176 60.6568182,29.7824714 61.3688864,30.710585 C61.9597045,31.4843805 62.6519318,32.1920396 63.3706136,32.844585 C64.4662727,33.8454487 65.7537273,34.5597214 67.1205455,35.0888123 C67.7378182,35.3269032 68.3881591,35.4768123 69.0296818,35.6421532 C69.5940455,35.7898578 70.1628182,35.919926 70.7337955,36.0345623 C71.4855455,36.1844714 71.8779545,36.2175396 72.7311136,36.2902896 C74.0847045,36.2902896 75.1230455,36.409335 76.1812273,36.3961078 C77.2261818,36.3828805 78.3438864,36.2528123 79.4329318,36.0720396 C80.6322045,35.8163123 80.8725,35.8074941 82.0717727,35.5517669 C82.4818182,35.4657896 83.7075455,35.1549487 84.1065682,35.0094487 C85.189,34.6192441 86.2890682,34.2731305 87.3384318,33.8057669 C88.7008409,33.203926 89.845,32.2691987 90.8238182,31.1250396 C91.7342955,30.0668578 92.4022727,28.8565623 92.9842727,27.5933578 C93.7867273,25.8407441 94.3532955,23.9977441 94.8735682,22.145926 C95.2637727,20.7548578 95.5525682,19.332926 95.9339545,17.9396532 C96.1147273,17.2694714 96.3373864,16.5904714 96.6614545,15.986426 C97.1001591,15.166335 97.7350682,14.4939487 98.6279091,14.1544487 C99.0996818,13.9714714 99.5802727,13.803926 100.065273,13.6650396 C100.695773,13.4820623 101.002205,13.0962669 101,12.4238805 L101,9.93494868" id="Fill-3" fill="#B4B4B4"></path>
        </g>
    </g>
</svg>