<?xml version="1.0" encoding="UTF-8" standalone="no"?>
<svg width="25px" height="25px" viewBox="0 0 25 25" version="1.1" xmlns="http://www.w3.org/2000/svg" xmlns:xlink="http://www.w3.org/1999/xlink">
    <!-- Generator: Sketch 39.1 (31720) - http://www.bohemiancoding.com/sketch -->
    <title>Icon_Pintest_Grey</title>
    <desc>Created with Sketch.</desc>
    <defs></defs>
    <g id="Symbols" stroke="none" stroke-width="1" fill="none" fill-rule="evenodd">
        <g id="Icon_Pintest_Grey">
            <g id="Page-1" transform="translate(3.000000, 1.000000)"></g>
            <path d="M8.2028,24 C7.5168,24 6.8548,23.676 6.4338,23.133 C5.7068,22.188 5.6248,20.549 6.1988,18.394 C6.2848,18.031 6.4978,17.122 6.6208,16.55 C6.6558,16.388 6.5598,16.226 6.4008,16.179 C6.2798,16.144 6.1608,16.101 6.0468,16.048 C4.1678,15.173 2.9998,12.682 2.9998,9.545 C2.9998,4.274 6.6518,1 12.5298,1 C17.7838,1 22.0598,5.054 22.0598,10.037 C22.0598,15.469 18.5968,19.567 14.0068,19.567 L13.8838,19.569 C12.7798,19.569 11.7278,19.147 10.9268,18.382 C10.6698,18.125 10.6708,17.702 10.9308,17.441 C11.0578,17.315 11.2248,17.245 11.4038,17.245 C11.5828,17.245 11.7508,17.315 11.8778,17.441 C12.4338,17.952 13.1518,18.232 13.9008,18.232 L14.0168,18.23 C17.8388,18.23 20.7218,14.708 20.7218,10.037 C20.7218,5.791 17.0478,2.337 12.5298,2.337 C7.3988,2.337 4.3368,5.031 4.3368,9.545 C4.3368,10.081 4.3788,10.616 4.4628,11.136 C4.5538,12.2 4.9638,13.212 5.6458,14.054 C5.8658,14.329 6.1318,14.56 6.4328,14.74 C6.4828,14.77 6.5388,14.784 6.5948,14.784 C6.7538,14.851 6.8628,14.879 6.9638,14.879 C7.0858,14.879 7.3818,14.834 7.4838,14.416 L7.8258,13.011 C7.8908,12.792 7.8298,12.543 7.6658,12.366 C7.2548,11.865 7.0938,11.252 7.0938,10.185 L7.0968,10.028 C7.1978,7.249 9.4528,5.072 12.2318,5.072 L12.4248,5.076 C15.2488,5.076 17.2188,7.037 17.2188,9.846 C17.2188,12.889 15.5698,15.274 13.4648,15.274 C12.9988,15.274 12.7058,15.026 12.5408,14.818 C12.1978,14.383 12.0758,13.718 12.2258,13.083 C12.3658,12.497 12.5588,11.979 12.7458,11.478 C13.0268,10.726 13.2678,10.082 13.2678,9.401 C13.2678,8.219 12.6288,7.023 11.4048,7.023 C10.0388,7.023 8.5108,8.475 8.5108,10.419 C8.4638,11.005 8.6538,11.622 9.0308,12.1 L7.4878,18.75 C7.0488,20.399 7.0528,21.734 7.4958,22.316 C7.6618,22.53 7.9188,22.655 8.1858,22.655 C8.2338,22.655 8.3048,22.644 8.3598,22.611 C8.8678,22.307 9.3068,21.885 9.6308,21.388 C9.7508,21.216 9.9538,21.111 10.1738,21.111 C10.3098,21.111 10.4428,21.154 10.5568,21.233 C10.8578,21.444 10.9308,21.862 10.7198,22.163 C9.9758,23.226 8.9558,23.998 8.2958,23.998 L8.2028,24 Z" id="Fill-1" fill="#969696"></path>
        </g>
    </g>
</svg>