<?xml version="1.0" encoding="UTF-8" standalone="no"?>
<svg width="97px" height="34px" viewBox="0 0 97 34" version="1.1" xmlns="http://www.w3.org/2000/svg" xmlns:xlink="http://www.w3.org/1999/xlink">
    <!-- Generator: Sketch 40.1 (33804) - http://www.bohemiancoding.com/sketch -->
    <title>Icon_FrameWidth Copy 2</title>
    <desc>Created with Sketch.</desc>
    <defs></defs>
    <g id="ProdcutDetail" stroke="none" stroke-width="1" fill="none" fill-rule="evenodd">
        <g id="Icon_BridgeWidth" transform="translate(-4.000000, -3.000000)">
            <g id="Page-1" transform="translate(4.000000, 3.000000)">
                <path d="M56.0794477,2.30150909 C54.8272659,1.83635 53.2730614,1.04491818 52.3118795,0.204986364 L52.8696295,1.75037273 L44.1308114,1.75037273 L44.6885614,0.204986364 C43.725175,1.04491818 42.173175,1.83635 40.9209932,2.30150909 C42.173175,2.76666818 43.725175,3.5581 44.6885614,4.39803182 L44.1308114,2.85264545 L52.8696295,2.85264545 L52.3118795,4.39803182 C53.2730614,3.5581 54.8272659,2.76666818 56.0794477,2.30150909" id="Fill-4" fill="#000000"></path>
                <path d="M89.2576364,16.3261659 C89.0724545,17.349075 88.97325,18.3940295 88.7351591,19.4037114 C88.4595909,20.5897568 88.1421364,21.7780068 87.7144545,22.9155523 C87.3220455,23.9715295 86.7973636,24.987825 86.2616591,25.9864841 C85.67525,27.0887568 84.778,27.9330977 83.7396591,28.576825 C82.9482273,29.0662341 82.0994773,29.5005295 81.2330909,29.8290068 C80.3380455,30.1640977 79.3922955,30.3558932 78.4575682,30.5763477 C77.9020227,30.7086205 77.3288409,30.7659386 76.7666818,30.8717568 C76.1802727,30.977575 75.5982727,31.1451205 75.00525,31.2068477 C74.0550909,31.3016432 73.1027273,31.3523477 72.1459545,31.389825 C71.3942045,31.4162795 70.6358409,31.4162795 69.8818864,31.389825 C69.1830455,31.3589614 68.4842045,31.3016432 67.7897727,31.2090523 C67.0005455,31.1076432 66.2157273,30.9687568 65.4353182,30.8232568 C64.9811818,30.7394841 64.5336591,30.6182341 64.0905455,30.4991886 C63.85025,30.4352568 63.6033409,30.371325 63.3784773,30.2655068 C63.1668409,30.1596886 63.0015,29.9370295 62.7854545,29.8730977 C61.8573409,29.5820977 61.1188182,29.0023023 60.4221818,28.3431432 C59.4698182,27.4282568 58.6012273,26.4362114 57.9597045,25.2655977 C57.35125,24.1500977 56.7141364,23.0500295 56.1894545,21.8926432 C55.775,20.9975977 55.4972273,20.0364159 55.1885909,19.095075 C54.9901818,18.4822114 54.7939773,17.8627341 54.6991818,17.2300295 C54.6220227,16.7251886 54.5470682,15.9954841 54.48975,15.3297114 C54.4147955,14.4853705 54.3685,13.7534614 54.3839318,13.7534614 C54.29575,12.3557795 54.63525,10.8236205 55.3318864,9.61993864 C55.7617727,8.86818864 56.2886591,8.182575 56.9742727,7.66891591 C57.6885455,7.12659773 58.4425,6.63939318 59.1876364,6.14777955 C59.4499773,5.975825 59.7365682,5.84796136 60.0165455,5.71568864 C60.1951136,5.62971136 60.3869091,5.57900682 60.5654773,5.50625682 C60.6580682,5.46437045 61.3436818,5.23068864 61.6016136,5.16014318 C62.6531818,4.86473409 63.6959318,4.52743864 64.7585227,4.28273409 C65.7792273,4.04905227 66.8131591,3.87930227 67.8492955,3.744825 C69.1521818,3.57287045 70.4594773,3.41193864 71.7755909,3.34139318 C73.0454091,3.27305227 74.32625,3.30171136 75.6026818,3.332575 C76.4712727,3.35241591 77.3464773,3.40973409 78.2106591,3.52216591 C79.4474091,3.68750682 80.6841591,3.91677955 81.9187045,4.11959773 C83.1598636,4.32462045 84.3679545,4.63546136 85.5363636,5.11164318 C86.5857273,5.539325 87.5799773,6.03755227 88.3736136,6.91055227 C89.2113409,7.83425682 89.5684773,8.94093864 89.6125682,10.1380068 C89.6919318,12.2058705 89.6346136,14.2781432 89.2576364,16.3261659 M42.51025,15.3297114 C42.4507273,15.991075 42.3779773,16.7229841 42.3008182,17.2300295 C42.2060227,17.8605295 42.0076136,18.4822114 41.8114091,19.0928705 C41.5027727,20.0364159 41.2227955,20.9953932 40.8105455,21.8926432 C40.2858636,23.047825 39.64875,24.1500977 39.0402955,25.2611886 C38.3987727,26.4362114 37.5301818,27.4238477 36.5734091,28.3387341 C35.8811818,29.0023023 35.1448636,29.5820977 34.2145455,29.8730977 C33.9985,29.9370295 33.8331591,30.1574841 33.6215227,30.2610977 C33.3988636,30.371325 33.1541591,30.4352568 32.9094545,30.4991886 C32.4663409,30.613825 32.0188182,30.7394841 31.5690909,30.8232568 C30.7842727,30.9687568 29.9994545,31.1054386 29.2102273,31.2090523 C28.5157955,31.2972341 27.8169545,31.3589614 27.1181136,31.3854159 C26.3641591,31.4162795 25.6102045,31.4162795 24.8540455,31.389825 C23.9016818,31.3523477 22.9449091,31.3016432 21.99475,31.2024386 C21.4039318,31.1429159 20.8219318,30.977575 20.2333182,30.8673477 C19.6711591,30.7659386 19.0979773,30.7086205 18.5424318,30.5763477 C17.6121136,30.3558932 16.6641591,30.1640977 15.7713182,29.8290068 C14.9027273,29.5005295 14.0561818,29.0662341 13.2603409,28.576825 C12.2242045,27.9286886 11.3269545,27.0865523 10.7383409,25.9864841 C10.2048409,24.987825 9.68677273,23.9715295 9.28775,22.9111432 C8.86447727,21.7735977 8.54261364,20.5853477 8.26484091,19.4037114 C8.03115909,18.391825 7.93195455,17.349075 7.74677273,16.3261659 C7.36759091,14.2781432 7.31247727,12.2058705 7.39184091,10.1335977 C7.43813636,8.93873409 7.79306818,7.83205227 8.633,6.91055227 C9.42443182,6.03755227 10.4208864,5.539325 11.4658409,5.10943864 C12.6364545,4.63105227 13.84675,4.32021136 15.0857045,4.11739318 C16.3224545,3.91677955 17.5547955,3.68750682 18.79375,3.52216591 C19.6579318,3.40973409 20.5309318,3.35241591 21.4039318,3.32816591 C22.6803636,3.29730227 23.9567955,3.27305227 25.2310227,3.34139318 C26.5427273,3.40973409 27.8544318,3.57287045 29.1551136,3.74041591 C30.19125,3.87930227 31.2273864,4.04905227 32.2480909,4.28273409 C33.3106818,4.52743864 34.3534318,4.86473409 35.405,5.16014318 C35.6607273,5.22848409 36.3463409,5.46437045 36.4389318,5.50184773 C36.6175,5.57900682 36.8092955,5.62971136 36.9834545,5.71127955 C37.2656364,5.84796136 37.5544318,5.975825 37.8123636,6.145575 C38.5597045,6.63939318 39.3114545,7.12659773 40.0279318,7.66450682 C40.71575,8.182575 41.2426364,8.86818864 41.6725227,9.61552955 C42.36475,10.8214159 42.7086591,12.3513705 42.6182727,13.7534614 C42.6315,13.7534614 42.5896136,14.4853705 42.51025,15.3297114 M97,7.018575 C97,6.68127955 96.9426818,6.35941591 96.6759318,6.13234773 C96.5502727,6.01991591 96.4025682,5.88764318 96.2460455,5.86339318 C95.7367955,5.78843864 95.2121136,5.76859773 94.6984545,5.70246136 C93.3602955,5.53050682 92.0397727,5.33430227 90.7787727,4.77214318 C89.3590455,4.14164318 87.9018409,3.58830227 86.4402273,3.07023409 C85.2850455,2.66018864 84.1012045,2.34273409 82.9283864,1.998825 C81.2242727,1.50280227 79.4716591,1.29998409 77.7190455,1.19196136 C76.2023182,1.09275682 74.6811818,1.10818864 73.1600455,1.08614318 C70.8166136,1.053075 68.4952273,1.35068864 66.1826591,1.69459773 C64.8731591,1.88859773 63.5812955,2.19943864 62.2872273,2.48162045 C61.8705682,2.57421136 61.4627273,2.71530227 61.0592955,2.85198409 C61.0350455,2.85859773 58.5968182,3.81096136 57.7899545,4.33343864 C56.8067273,4.96393864 55.2547273,5.77521136 55.1863864,5.830325 C54.7565,6.18084773 54.2715,6.048575 53.8129545,6.02652955 C52.7040682,5.975825 51.5951818,5.85677955 50.4862955,5.77741591 C49.1371136,5.67821136 47.8783182,5.612075 46.5203182,5.77741591 L46.5137045,5.77741591 C45.4092273,5.85677955 44.3003409,5.975825 43.1870455,6.02873409 C42.7307045,6.048575 42.2435,6.18084773 41.8158182,5.830325 C41.7452727,5.77521136 40.1976818,4.96393864 39.2144545,4.33343864 C38.4031818,3.81096136 35.9649545,2.85859773 35.9451136,2.85198409 C35.5372727,2.71530227 35.1338409,2.57421136 34.7171818,2.48162045 C33.4187045,2.20384773 32.1268409,1.88859773 30.8173409,1.69459773 C28.5047727,1.35068864 26.1877955,1.053075 23.8399545,1.08614318 C22.3188182,1.10818864 20.7976818,1.09275682 19.2831591,1.18755227 C17.5283409,1.29998409 15.7757273,1.49839318 14.0738182,1.998825 C12.901,2.34273409 11.7149545,2.66018864 10.5597727,3.07023409 C9.09815909,3.58830227 7.64315909,4.14164318 6.22343182,4.77214318 C4.96243182,5.33430227 3.63970455,5.53050682 2.30595455,5.70246136 C1.78788636,5.76859773 1.26761364,5.78843864 0.753954545,5.86339318 C0.601840909,5.88984773 0.451931818,6.01991591 0.326272727,6.13234773 C0.0617272727,6.35941591 0.00220454545,6.68127955 0.00220454545,7.018575 C0.00220454545,7.84748409 0.00220454545,8.67859773 0,9.50750682 C0,10.1798932 0.306431818,10.5634841 0.936931818,10.7486659 C1.42193182,10.8875523 1.90472727,11.0550977 2.3765,11.238075 C3.26493182,11.5819841 3.89984091,12.2499614 4.34295455,13.0700523 C4.66481818,13.6740977 4.88527273,14.3530977 5.07045455,15.0232795 C5.44743182,16.4165523 5.73843182,17.8384841 6.12643182,19.2295523 C6.65111364,21.0813705 7.21768182,22.9243705 8.01793182,24.6769841 C8.59772727,25.9401886 9.27011364,27.1504841 10.1783864,28.2086659 C11.1572045,29.352825 12.3035682,30.2875523 13.6615682,30.8893932 C14.7153409,31.3567568 15.8132045,31.7028705 16.8978409,32.093075 C17.2946591,32.238575 18.5203864,32.5494159 18.9282273,32.6353932 C20.1297045,32.8911205 20.37,32.8999386 21.5692727,33.1556659 C22.6583182,33.3364386 23.7782273,33.4665068 24.8231818,33.4797341 C25.8791591,33.4929614 26.9152955,33.3739159 28.2732955,33.3739159 C29.1264545,33.3011659 29.5166591,33.2680977 30.2706136,33.1159841 C30.8393864,32.9991432 31.4081591,32.8712795 31.9747273,32.7257795 C32.6140455,32.5560295 33.2687955,32.4149386 33.8816591,32.1724386 C35.2528864,31.6433477 36.5359318,30.9268705 37.6337955,29.9282114 C38.3502727,29.2756659 39.0425,28.5680068 39.6333182,27.7942114 C40.3431818,26.8660977 40.9494318,25.8498023 41.5711136,24.8511432 C41.9238409,24.2823705 42.2501136,23.6915523 42.5322955,23.0830977 C42.971,22.1329386 43.3810455,21.1673477 43.7668409,20.1951432 C44.1923182,19.1105068 44.5913409,18.0126432 44.9793409,16.9147795 C45.1931818,16.3173477 45.3210455,15.6846432 45.5569318,15.0960295 C45.7421136,14.633075 45.7288864,14.0973705 45.4048182,13.7314159 C44.8426591,13.0898932 44.7809318,11.8421205 45.3012045,11.165325 C45.9515455,10.3209841 46.8862727,9.99030227 47.8672955,9.89550682 C48.0723182,9.87566591 48.2839545,9.88448409 48.4911818,9.86905227 C48.7028182,9.88448409 48.9210682,9.87566591 49.1371136,9.89550682 C50.2305682,10.001325 51.0506591,10.3209841 51.701,11.165325 C52.2212727,11.8421205 52.1573409,13.0898932 51.5973864,13.7314159 C51.2733182,14.0973705 51.2622955,14.633075 51.4452727,15.1004386 C51.6811591,15.6846432 51.8134318,16.3173477 52.0250682,16.9147795 C52.4130682,18.0126432 52.8098864,19.1149159 53.2375682,20.1951432 C53.6211591,21.1673477 54.0312045,22.1329386 54.4721136,23.0830977 C54.7542955,23.6915523 55.0805682,24.2823705 55.4332955,24.8511432 C56.0505682,25.8498023 56.6568182,26.8660977 57.3688864,27.7942114 C57.9597045,28.5680068 58.6519318,29.2756659 59.3706136,29.9282114 C60.4662727,30.929075 61.7537273,31.6433477 63.1205455,32.1724386 C63.7378182,32.4105295 64.3881591,32.5604386 65.0296818,32.7257795 C65.5940455,32.8734841 66.1628182,33.0035523 66.7337955,33.1181886 C67.4855455,33.2680977 67.8779545,33.3011659 68.7311136,33.3739159 C70.0847045,33.3739159 71.1230455,33.4929614 72.1812273,33.4797341 C73.2261818,33.4665068 74.3438864,33.3364386 75.4329318,33.1556659 C76.6322045,32.8999386 76.8725,32.8911205 78.0717727,32.6353932 C78.4818182,32.5494159 79.7075455,32.238575 80.1065682,32.093075 C81.189,31.7028705 82.2890682,31.3567568 83.3384318,30.8893932 C84.7008409,30.2875523 85.845,29.352825 86.8238182,28.2086659 C87.7342955,27.1504841 88.4022727,25.9401886 88.9842727,24.6769841 C89.7867273,22.9243705 90.3532955,21.0813705 90.8735682,19.2295523 C91.2637727,17.8384841 91.5525682,16.4165523 91.9339545,15.0232795 C92.1147273,14.3530977 92.3373864,13.6740977 92.6614545,13.0700523 C93.1001591,12.2499614 93.7350682,11.577575 94.6279091,11.238075 C95.0996818,11.0550977 95.5802727,10.8875523 96.0652727,10.7486659 C96.6957727,10.5656886 97.0022045,10.1798932 97,9.50750682 L97,7.018575" id="Fill-1" fill="#B4B4B4"></path>
            </g>
        </g>
    </g>
</svg>