<?xml version="1.0" encoding="UTF-8"?>
<svg width="250px" height="142px" viewBox="0 0 250 142" version="1.1" xmlns="http://www.w3.org/2000/svg" xmlns:xlink="http://www.w3.org/1999/xlink">
    <!-- Generator: Sketch 44 (41411) - http://www.bohemiancoding.com/sketch -->
    <title>Group 2</title>
    <desc>Created with Sketch.</desc>
    <defs>
        <rect id="path-1" x="0" y="0" width="248" height="140"></rect>
    </defs>
    <g id="HomePage" stroke="none" stroke-width="1" fill="none" fill-rule="evenodd">
        <g id="1280px_Homepage_Header" transform="translate(-909.000000, -225.000000)">
            <g id="Men_Header" transform="translate(0.000000, 191.000000)">
                <g id="Group-2" transform="translate(910.000000, 35.000000)">
                    <g id="Mens_Eyeglasses-Copy-2">
                        <mask id="mask-2" fill="white">
                            <use xlink:href="#path-1"></use>
                        </mask>
                        <use id="Mask" stroke="#B4B4B4" xlink:href="#path-1"></use>
                    </g>
                    <g id="Icon_KidsGlasses" transform="translate(94.000000, 40.000000)" fill="#969696">
                        <path d="M52.1018261,29.9466825 C51.2502216,24.6187754 44.6584126,24.2668369 42.6703505,24.2668369 C40.1699072,24.2668369 37.670055,24.7938513 36.1364577,25.6132545 C34.6016784,26.4344442 33.8068081,27.8392204 33.9202766,29.4780268 C34.261864,33.2838449 36.704982,37.3236931 42.7832279,37.2653345 C43.5231369,37.2653345 44.3185982,37.1486171 45.1702027,37.0318998 C47.9549081,36.6210072 50.0570297,35.4514521 51.2502216,33.8114548 C52.0450919,32.6401132 52.3866793,31.2931001 52.1018261,29.9466825 L52.1018261,29.9466825 Z M26.0229892,29.4780268 C26.1364577,27.7808618 25.2830802,26.374299 23.7500739,25.6132545 C22.2164766,24.85221 19.7166243,24.3835543 17.2167721,24.3835543 C15.226346,24.3835543 8.63630991,24.85221 7.84143963,30.1801171 C7.67005496,31.5872754 7.9549081,32.9336929 8.80651262,34.1032481 C9.99970451,35.8021996 12.1012352,36.8562284 14.9432658,37.2653345 C15.7948703,37.3838383 16.5915135,37.4421969 17.3296495,37.4421969 C23.4084865,37.3838383 25.8516045,33.2838449 26.0229892,29.4780268 L26.0229892,29.4780268 Z M55,31.5271302 C55,31.9374273 54.6584126,32.2310071 54.3185982,32.2310071 L53.1254063,32.2310071 C52.9552036,33.0504103 52.6136162,33.8114548 52.1018261,34.5135451 C50.7951658,36.4459313 48.408191,37.6756315 45.2836712,38.2032414 C44.4314757,38.3783174 43.5798712,38.4366761 42.7832279,38.4366761 C36.4201288,38.4366761 33.5231369,34.4551865 33.0119378,30.4153383 C32.6697595,28.9504169 31.0232847,28.3066852 29.9997045,28.3066852 C29.3750369,28.3066852 27.8981739,28.425189 27.1582649,30.4153383 C26.5915135,34.5135451 23.8068081,38.5533934 17.3863838,38.611752 C16.5330063,38.611752 15.6814018,38.5533934 14.8297973,38.4366761 C11.7046865,38.0281655 9.3183027,36.739511 7.9549081,34.8660791 C7.38638378,34.1032481 6.98806217,33.1671276 6.81785946,32.2310071 L5.68140181,32.2310071 C5.2830802,32.2310071 5,31.8790686 5,31.5271302 L5,29.8299652 C5,29.4196681 5.34158738,29.1272793 5.68140181,29.1272793 L6.98806217,29.1272793 C7.9549081,25.4965372 11.7046865,23.2723578 17.2729153,23.153854 C19.886827,23.153854 22.6130252,23.6808684 24.3180072,24.5604167 C25.7948703,25.3214612 26.8184504,26.6678788 27.1015306,28.1893724 C27.8414396,27.4289233 28.8065126,27.1365346 29.886827,27.1365346 C30.8519,27.1365346 31.9883577,27.487282 32.8417351,28.1893724 C33.0680811,26.6678788 34.0331541,25.3214612 35.5685243,24.5020581 C37.2735063,23.6225097 39.9435613,23.0371367 42.6136162,23.0371367 C48.2953135,22.9781825 52.1585604,25.2631026 53.0686721,29.1272793 L54.3185982,29.1272793 C54.7169198,29.1272793 55,29.4780268 55,29.8299652 L55,31.5271302 Z M21.1349802,45.4611527 C21.1349802,48.6821933 26.0832693,51.2934454 29.9997045,51.2934454 C33.9167307,51.2934454 38.8644288,48.6821933 38.8644288,45.4611527 L21.1349802,45.4611527 Z M29.8147273,18.6018788 C26.4502689,18.6018788 23.6661545,16.1216359 23.5556409,12.9720549 C23.4634478,10.3328144 25.6961763,8.10327556 28.5334791,8.00263665 C30.852491,7.92164912 32.8169139,9.61881414 32.8931505,11.7893989 C32.9557946,13.5842253 31.4440636,15.1003594 29.5233733,15.169437 C29.4855505,15.170628 29.4489096,15.1712235 29.4122688,15.1712235 C27.8656699,15.1712235 26.5861947,14.0207242 26.5347793,12.5599713 C26.5247326,12.2640096 26.7540334,12.0156875 27.0471603,12.0055641 C27.3550618,11.9900812 27.5873175,12.2258978 27.5979552,12.5218596 C27.6298682,13.4264187 28.4507417,14.1326776 29.4855505,14.0981388 C30.819987,14.0504991 31.8719343,13.0316046 31.8299746,11.8269151 C31.7744223,10.2470629 30.2898765,9.01498069 28.570711,9.07393484 C26.3202529,9.15432687 24.5473081,10.8854352 24.6188169,12.9345386 C24.71101,15.5690151 27.1387625,17.6205006 30.0215708,17.5264121 C32.2513445,17.4472111 34.2908221,16.3598345 35.4763312,14.6180072 C35.642397,14.3744492 35.9727557,14.310731 36.2156492,14.4792565 C36.4579517,14.6465911 36.5200047,14.9800691 36.3533479,15.2242227 C34.9775427,17.2453378 32.6248449,18.5065993 30.0582117,18.5977103 C29.9766562,18.6006878 29.8956917,18.6018788 29.8147273,18.6018788 L29.8147273,18.6018788 Z" id="Fill-1"></path>
                    </g>
                </g>
            </g>
        </g>
    </g>
</svg>