<?xml version="1.0" encoding="utf-8"?>
<!-- Generator: Adobe Illustrator 21.1.0, SVG Export Plug-In . SVG Version: 6.00 Build 0)  -->
<svg version="1.1" id="Layer_1" xmlns="http://www.w3.org/2000/svg" xmlns:xlink="http://www.w3.org/1999/xlink" x="0px" y="0px"
	 viewBox="0 0 332 145" style="enable-background:new 0 0 332 145;" xml:space="preserve">
<style type="text/css">
	.st0{fill-rule:evenodd;clip-rule:evenodd;fill:#231F20;}
	.st1{fill:#231F20;}
	.st2{fill-rule:evenodd;clip-rule:evenodd;fill:#FFFFFF;}
	.st3{fill-rule:evenodd;clip-rule:evenodd;fill:#808184;}
	.st4{fill-rule:evenodd;clip-rule:evenodd;fill:#FFFDFB;}
	.st5{fill:#808184;}
</style>
<g>
	<path class="st0" d="M277.4,34.8c-0.9-3.3-2.5-6.5-5.2-8.8c-3-2.6-6.7-3.5-10.6-3.5c-3.9,0-7.3,1.1-10.3,3.8
		c-2.6,2.3-4.1,5.2-4.8,8.6H277.4z M10.4,39.2c0,4.7,1.4,8.9,4.7,12.4c3.1,3.2,6.7,4.9,11.2,4.9c4.4,0,7.9-1.8,10.9-4.9
		c3.1-3.3,4.8-7.1,4.8-11.7c0-4.7-1.5-8.8-4.7-12.3c-3-3.2-6.5-5-10.9-5c-4.4,0-8.1,1.6-11.2,4.8C11.9,30.6,10.4,34.6,10.4,39.2z
		 M298.8,46.5h9v1.7c0,2.3,0.6,4.4,2.1,6.1c1.3,1.5,2.9,2.3,4.9,2.3c1.8,0,3.4-0.5,4.7-1.7c1.3-1.2,1.8-2.6,1.8-4.4
		c0-1.6-0.4-3.1-1.4-4.3c-1.4-1.5-4-2.6-5.9-3.3c-3.3-1.2-8.3-3.2-10.5-6c-2-2.4-2.7-5.4-2.7-8.5c0-4,1.5-7.4,4.3-10.2
		c2.9-2.8,6.4-4.2,10.4-4.2c3.8,0,7.5,1,10.3,3.7c2.8,2.7,4,6.4,4.1,10.3l0.1,1.5h-9.2l-0.1-1.4c-0.1-1.5-0.5-3-1.6-4
		c-1.1-1.1-2.5-1.4-4-1.4c-1.4,0-2.7,0.4-3.7,1.5c-1,1-1.5,2.3-1.5,3.7c0,0.9,0.1,1.9,0.6,2.7c0.5,0.8,1.3,1.5,2.1,2
		c1.3,0.8,3,1.4,4.5,1.8c1.5,0.4,3,0.9,4.4,1.5c2.8,1.2,5.3,2.9,7,5.4c1.7,2.5,2.3,5.5,2.3,8.5c0,4.2-1.5,7.9-4.6,10.8
		c-3.2,3-7.1,4.3-11.4,4.3c-4.4,0-8.4-1.4-11.4-4.7c-3.2-3.4-4.4-7.8-4.5-12.3L298.8,46.5z M246.2,42.9c0.5,3.7,2,6.9,4.8,9.5
		c3.1,2.9,6.9,4.2,11.1,4.2c3.1,0,5.9-0.8,8.4-2.4c2.6-1.7,4.5-4,5.8-6.8l0.4-0.8h9.8l-0.9,2.1c-2,4.9-5,9.2-9.3,12.3
		c-4.2,3-8.9,4.3-14,4.3c-7,0-13-2.5-17.9-7.5c-4.9-5-7.3-11.1-7.3-18.1c0-7,2.2-13.2,7.2-18.3c5-5,11.2-7.2,18.3-7.2
		c7,0,13.1,2.4,17.8,7.6c5,5.4,6.9,12.2,6.9,19.4v1.9H246.2z M195.8,46.5h9v1.7c0,2.3,0.6,4.4,2.1,6.1c1.3,1.5,2.9,2.3,4.9,2.3
		c1.8,0,3.4-0.5,4.7-1.7c1.3-1.2,1.8-2.6,1.8-4.4c0-1.6-0.4-3.1-1.4-4.3c-1.4-1.5-4-2.6-5.9-3.3c-3.3-1.2-8.3-3.2-10.5-6
		c-2-2.4-2.7-5.4-2.7-8.5c0-4,1.5-7.4,4.3-10.2c2.9-2.8,6.4-4.2,10.4-4.2c3.8,0,7.5,1,10.3,3.7c2.8,2.7,4,6.4,4.1,10.3l0.1,1.5h-9.2
		l-0.1-1.4c-0.1-1.5-0.5-3-1.6-4c-1.1-1.1-2.5-1.4-4-1.4c-1.4,0-2.7,0.4-3.7,1.5c-1,1-1.5,2.3-1.5,3.7c0,0.9,0.1,1.9,0.6,2.7
		c0.5,0.8,1.3,1.5,2.1,2c1.3,0.8,3,1.4,4.5,1.8c1.5,0.4,3,0.9,4.4,1.5c2.8,1.2,5.3,2.9,7,5.4c1.7,2.5,2.3,5.5,2.3,8.5
		c0,4.2-1.5,7.9-4.6,10.8c-3.2,3-5.6,4.3-9.9,4.3c-4.4,0-9.9-1.4-12.9-4.7c-3.2-3.4-4.4-7.8-4.5-12.3L195.8,46.5z M153.5,46.5h9v1.7
		c0,2.3,0.6,4.4,2.1,6.1c1.3,1.5,2.9,2.3,4.9,2.3c1.8,0,3.4-0.5,4.7-1.7c1.3-1.2,1.8-2.6,1.8-4.4c0-1.6-0.4-3.1-1.4-4.3
		c-1.4-1.5-4-2.6-5.9-3.3c-3.3-1.2-8.3-3.2-10.5-6c-2-2.4-2.7-5.4-2.7-8.5c0-4,1.5-7.4,4.3-10.2c2.9-2.8,6.4-4.2,10.4-4.2
		c3.8,0,7.5,1,10.3,3.7c2.8,2.7,4,6.4,4.1,10.3l0.1,1.5h-9.2l-0.1-1.4c-0.1-1.5-0.5-3-1.6-4c-1.1-1.1-2.5-1.4-4-1.4
		c-1.4,0-2.7,0.4-3.7,1.5c-1,1-1.5,2.3-1.5,3.7c0,0.9,0.1,1.9,0.6,2.7c0.5,0.8,1.3,1.5,2.1,2c1.3,0.8,3,1.4,4.5,1.8
		c1.5,0.4,3,0.9,4.4,1.5c2.8,1.2,5.3,2.9,7,5.4c1.7,2.5,2.3,5.5,2.3,8.5c0,4.2-1.5,7.9-4.6,10.8c-3.2,3-7.1,4.3-11.4,4.3
		c-4.4,0-8.4-1.4-11.4-4.7c-3.2-3.4-4.4-7.8-4.5-12.3L153.5,46.5z M64.6,63.8V0.5h8.8v63.3H64.6z M41.9,58.5
		c-1.5,1.5-3.3,2.9-5.2,3.9c-3.1,1.7-6.5,2.5-10,2.5c-7,0-13.2-2.3-18.2-7.3c-5-5-7.2-11.2-7.2-18.1c0-6.9,2.3-13,7.1-18
		c4.8-4.9,10.8-7.3,17.7-7.3c3.7,0,7.3,0.6,10.6,2.2c2,1,3.7,2.3,5.3,3.8v-4.9h8.7v39.5c0,7.1-1.5,14.2-6.4,19.7
		c-4.6,5.2-10.8,7.2-17.6,7.2c-5.1,0-9.9-1.2-14.2-4.1c-4-2.7-6.6-6.4-7.8-11.1l-0.5-1.8h9.8l0.3,1c0.8,2.3,2.2,4.1,4.2,5.4
		c2.3,1.5,5,2,7.7,2c4.5,0,8.4-1.4,11.4-4.7C40.2,65.5,41.4,62.1,41.9,58.5z"/>
	<path class="st1" d="M299.1,96.4h5.1l10.7,28.1l11.2-28.1h5.2l-18.7,45.8h-4.7l4.6-11.3L299.1,96.4z M269.5,131h-4.5V96.4h4.2v4
		c1.1-1.5,2.3-2.7,3.6-3.4c1.3-0.7,2.8-1.1,4.5-1.1l0,4.8c-2.8,0.2-4.8,1.1-6,2.5c-1.2,1.4-1.8,3.8-1.8,6.9V131z M230.1,111.2
		c-0.8-3.8-2.4-6.8-4.6-8.7c-2.2-1.9-5.2-2.9-8.8-2.9c-3.4,0-6.2,1.1-8.5,3.1c-2.3,2.1-3.7,4.9-4.3,8.5H230.1z M234.4,115.1h-30.7
		c0.3,3.8,1.7,6.8,4.1,9.1c2.5,2.3,5.5,3.5,9.2,3.5c2.6,0,5-0.7,7-2c2.1-1.4,3.7-3.2,4.8-5.6h5c-1.6,3.8-3.8,6.8-6.7,8.8
		c-2.9,2-6.2,3.1-10,3.1c-5,0-9.3-1.8-12.8-5.4c-3.5-3.6-5.2-7.9-5.2-12.9c0-5.3,1.7-9.6,5.1-13.1c3.4-3.4,7.8-5.2,13.1-5.2
		c5.2,0,9.4,1.8,12.7,5.4c3.3,3.6,4.4,8.3,4.4,14V115.1z M166.4,131V85.2h4.4V131H166.4z M130,131V85.2h4.4V131H130z M95.1,125.5
		c-1.4,2-3.3,3.6-5.6,4.7c-2.4,1.1-4.9,1.7-7.6,1.7c-5.1,0-9.3-1.7-12.7-5.2c-3.4-3.5-5.1-7.8-5.1-12.8c0-5.2,1.7-9.5,5.2-13
		c3.4-3.5,7.8-5.2,12.9-5.2c2.7,0,5.1,0.5,7.3,1.6c2.2,1.1,4.1,2.6,5.5,4.7v-5.5h4.3V131h-4.3V125.5z M95.1,113.4
		c0-3.7-1.3-6.9-3.9-9.6c-2.6-2.7-5.6-4.1-9.1-4.1c-3.7,0-6.9,1.4-9.5,4.1c-2.6,2.7-3.9,6.1-3.9,10.2c0,3.9,1.3,7.1,3.9,9.8
		c2.6,2.7,5.7,4,9.4,4c3.5,0,6.6-1.4,9.2-4.2C93.8,120.8,95.1,117.4,95.1,113.4z M11.2,113.4c0,4,1.3,7.4,3.9,10.2
		c2.6,2.7,5.7,4.1,9.3,4.1c3.4,0,6.4-1.4,9.1-4.1c2.6-2.7,3.9-5.9,3.9-9.6c0-3.9-1.3-7.3-3.9-10.1c-2.6-2.8-5.6-4.2-9.1-4.2
		c-3.6,0-6.7,1.3-9.3,4C12.4,106.2,11.2,109.5,11.2,113.4z M14.2,133.8c0.7,2,1.9,3.6,3.7,4.7c1.8,1.1,3.9,1.7,6.4,1.7
		c3.9,0,7.1-1.3,9.5-3.9c2.4-2.6,3.6-6.1,3.6-10.5v-0.9c-1.7,2.3-3.6,4-5.7,5.2c-2.1,1.2-4.5,1.7-7.1,1.7c-5.2,0-9.5-1.7-13-5.2
		c-3.4-3.5-5.2-7.8-5.2-13c0-5.1,1.7-9.4,5.1-12.8c3.4-3.5,7.6-5.2,12.6-5.2c2.9,0,5.4,0.5,7.6,1.6c2.1,1.1,4,2.7,5.6,4.9v-5.6h4.3
		v28.8c0,6-1.5,10.8-4.5,14.2c-3,3.4-7.2,5.1-12.5,5.1c-3.9,0-7.3-1-10.1-2.9c-2.8-1.9-4.6-4.5-5.4-7.8H14.2z"/>
	<ellipse class="st2" cx="111.7" cy="39.4" rx="24.3" ry="24.3"/>
	<path class="st3" d="M111.7,20.4c10.4,0,18.9,8.5,18.9,18.9c0,10.4-8.5,18.9-18.9,18.9c-10.4,0-18.9-8.5-18.9-18.9
		C92.8,28.9,101.3,20.4,111.7,20.4"/>
	<path class="st4" d="M117.7,36.8l-0.2-0.2c-0.6-0.6-1.1-1.1-1.6-1.8c-1.3-1.7-1.5-3.5-0.1-5.2c2.3-2.7,6.7-1.3,6.9,2.3
		c0.2,3.7-2.5,4.7-5.3,6l-0.1,0.1l-0.1-0.1c-0.2-0.1-0.3-0.2-0.5-0.3l-0.4-0.3L117.7,36.8z M117.9,41.9l-1.7-0.8l0.4-0.3
		c0.2-0.1,0.3-0.2,0.5-0.3l0.1-0.1l0.1,0.1c2.8,1.4,5.8,2.3,5.5,6.2c-0.2,3.6-4.6,5-6.9,2.3c-0.8-0.9-1.2-2-0.9-3.2
		c0.4-1.6,1.6-2.6,2.6-3.7L117.9,41.9z M112.6,26v0.2c0,0.4,0,1.6,0.2,2c0.2,0.2,0.6,0.4,0.8,0.5l0.3,0.1l-0.2,0.3
		c-1,1.6-1.5,3.3-0.8,5.2l0.1,0.4h-0.2l0,0.2c0.3,1.7,0.9,3.1,2.2,4.3l0.3,0.2l-0.3,0.2c-1.4,1.2-2.2,2.6-2.5,4.4l0,0.2l0.7,0
		l-0.1,0.4c-0.7,1.8-0.2,3.6,0.8,5.2l0.2,0.3l-0.3,0.1c-0.2,0.1-0.7,0.3-0.8,0.5c-0.2,0.3-0.2,1.6-0.2,2l0,0.2h0.2
		c2.6,0,6.9,0.4,9.2-0.8c2.5-1.3,3.6-4.2,3-6.8c-0.6-3-2.3-3.8-4.7-5.2c-0.2-0.1-0.4-0.2-0.6-0.3l-0.4-0.2l0.8-0.4
		c2.4-1.4,4.1-2.2,4.7-5.2c0.6-2.7-0.5-5.5-3-6.8c-2.3-1.2-6.6-0.8-9.2-0.8H112.6z M105.5,41.9l0.2,0.2c0.6,0.6,1.1,1.1,1.6,1.8
		c1.3,1.7,1.5,3.5,0.1,5.2c-2.3,2.7-6.7,1.3-6.9-2.3c-0.2-3.8,2.6-4.7,5.4-6.1l0.1-0.1l0.1,0.1c0.2,0.1,0.3,0.2,0.5,0.3l0.4,0.3
		L105.5,41.9z M105.5,36.8l1.5,0.7l-0.4,0.3c-0.2,0.1-0.3,0.2-0.5,0.3l-0.1,0.1l-0.1-0.1c-2.8-1.4-5.6-2.3-5.4-6.1
		c0.2-3.6,4.6-5,6.9-2.3c0.8,0.9,1.2,2,0.9,3.2c-0.4,1.6-1.6,2.6-2.6,3.7L105.5,36.8z M110.6,26h-0.2c-2.6,0-6.9-0.4-9.2,0.8
		c-2.5,1.3-3.6,4.2-3,6.8c0.6,3,2.3,3.8,4.7,5.2l0.9,0.5l-0.9,0.5c-2.4,1.4-4.1,2.2-4.7,5.2c-0.6,2.7,0.5,5.5,3,6.8
		c2.3,1.2,6.6,0.8,9.2,0.8h0.2v-0.2c0-0.4,0-1.6-0.2-2c-0.2-0.2-0.6-0.4-0.8-0.5l-0.3-0.1l0.2-0.3c1-1.6,1.5-3.3,0.8-5.2l-0.1-0.4
		l0.4,0l0-0.2c-0.3-1.7-1-3.2-2.3-4.3l-0.3-0.2l0.3-0.2c1.4-1.1,2.1-2.6,2.3-4.3l0-0.2l-0.4,0l0.1-0.4c0.7-1.8,0.2-3.6-0.8-5.2
		l-0.2-0.3l0.3-0.1c0.2-0.1,0.7-0.3,0.8-0.5c0.2-0.3,0.2-1.6,0.2-2V26z"/>
	<path class="st5" d="M133.4,15.4v8.1c-4.9-6.7-12.8-11.1-21.7-11.1c-14.9,0-27,12.1-27,26.9c0,14.9,12.1,26.9,27,26.9
		c8.9,0,16.8-4.4,21.7-11.1v8.9h5.2V15.4H133.4z M111.7,61.1c-12,0-21.7-9.7-21.7-21.7c0-12,9.7-21.7,21.7-21.7
		c12,0,21.7,9.7,21.7,21.7C133.4,51.3,123.7,61.1,111.7,61.1z"/>
</g>
</svg>
