<?xml version="1.0" encoding="UTF-8"?>
<svg width="250px" height="142px" viewBox="0 0 250 142" version="1.1" xmlns="http://www.w3.org/2000/svg" xmlns:xlink="http://www.w3.org/1999/xlink">
    <!-- Generator: Sketch 44 (41411) - http://www.bohemiancoding.com/sketch -->
    <title>Group 2</title>
    <desc>Created with Sketch.</desc>
    <defs>
        <rect id="path-1" x="0" y="0" width="248" height="140"></rect>
    </defs>
    <g id="HomePage" stroke="none" stroke-width="1" fill="none" fill-rule="evenodd">
        <g id="1280px_Homepage_Header" transform="translate(-909.000000, -225.000000)">
            <g id="Men_Header" transform="translate(0.000000, 191.000000)">
                <g id="Group-2" transform="translate(910.000000, 35.000000)">
                    <g id="Mens_Eyeglasses-Copy-2">
                        <mask id="mask-2" fill="white">
                            <use xlink:href="#path-1"></use>
                        </mask>
                        <use id="Mask" stroke="#B4B4B4" xlink:href="#path-1"></use>
                    </g>
                    <g id="Icon_MensGlasses" transform="translate(94.000000, 40.000000)" fill="#969696">
                        <path d="M41.2144239,39.9389033 C41.5984026,40.4945369 41.0533324,42.2675997 40.1601989,42.4915433 C39.2691781,42.7144305 37.2732281,41.6739379 35.6755174,39.3938331 C34.0149546,37.0149607 31.8579131,37.8938336 31.8579131,37.8938336 C30.731329,38.8350305 30.6447093,39.8887273 31.2515753,40.9556283 C31.5235822,41.4383746 32.4161875,41.946473 35.4029823,43.2700641 C38.3881925,44.5978805 40.8911845,44.4357327 41.8825574,42.3806278 C42.6885431,40.7179523 40.8309733,39.3938331 41.2144239,39.9389033 M28.1422454,37.8938336 C28.1422454,37.8938336 25.9852039,37.003341 24.3246411,39.3938331 C22.725874,41.6850295 20.7193607,42.7144305 19.8394314,42.4915433 C18.9468261,42.2675997 18.4144319,40.4945369 18.7984106,39.9389033 C19.1697133,39.3938331 17.3116154,40.7311566 18.1165447,42.3800996 C19.1089739,44.4246412 21.611966,44.5978805 24.5971762,43.2700641 C27.5839709,41.9459449 28.4749917,41.4378465 28.748055,40.9551001 C29.3554492,39.8881991 29.2683013,38.8350305 28.1422454,37.8938336 M51.0087866,23.8572188 C50.9131881,24.3843313 50.8619557,24.9235917 50.7388923,25.4433098 C50.5973431,26.0544012 50.4336108,26.667077 50.2133644,27.2533444 C50.0105475,27.7978865 49.7406533,28.3213018 49.464421,28.8362664 C49.1623084,29.4051042 48.7001607,29.8397872 48.1640693,30.1714772 C47.756323,30.42447 47.3195274,30.6478855 46.8721684,30.8174277 C46.4116051,30.9901389 45.9235771,31.0894346 45.4424153,31.2029909 C45.1556197,31.2711247 44.8603733,31.3007021 44.5704086,31.3545754 C44.268296,31.4089767 43.967768,31.4961246 43.6624864,31.5272866 C43.1728739,31.5764063 42.6811487,31.6022865 42.187839,31.6218288 C41.8006913,31.6355612 41.4098463,31.6355612 41.0205859,31.6218288 C40.6609029,31.6059837 40.3006918,31.5764063 39.9425933,31.5293992 C39.5364315,31.4771105 39.1318542,31.4052796 38.7288614,31.3302796 C38.4954107,31.2864416 38.2624883,31.2330965 38.036432,31.1628501 C37.0513972,30.8570403 36.5036861,30.3911954 36.1455876,30.0510547 C35.6538624,29.5799281 35.2070316,29.0686607 34.8758698,28.4644355 C34.5616093,27.890316 34.2341446,27.3230627 33.9626659,26.7262319 C33.7498138,26.2656687 33.6061519,25.7697182 33.4477013,25.2848592 C33.3452365,24.9690142 33.2443563,24.6494721 33.1952366,24.3230637 C33.1556239,24.0632047 33.1165394,23.6860921 33.0874901,23.3438387 C33.0484056,22.9075713 33.0241099,22.5304587 33.0330887,22.5304587 C32.9866099,21.8100365 33.1624901,21.0209522 33.5211167,20.3998257 C33.7429476,20.0121498 34.0138982,19.6598612 34.3672432,19.3947204 C34.735905,19.1153191 35.1251654,18.8639107 35.5091442,18.6109179 C35.6438272,18.5216573 35.7922427,18.4556362 35.9353764,18.3875025 C36.027806,18.3436644 36.1265735,18.3177842 36.2190031,18.2792278 C36.2665383,18.2581011 36.6198832,18.1376786 36.7529818,18.101235 C37.2954112,17.9496505 37.833087,17.7748266 38.3807981,17.6491224 C38.9063261,17.5286999 39.4387203,17.4415521 39.9732271,17.3718338 C40.645586,17.2825733 41.3195295,17.2007071 41.9971701,17.1642634 C42.6520994,17.1294043 43.3128386,17.1431367 43.9693525,17.1589818 C44.418296,17.1695451 44.868824,17.1991226 45.3140703,17.256693 C45.9526264,17.3422563 46.5890699,17.4605662 47.2255133,17.5656718 C47.8656539,17.6702492 48.488365,17.8308125 49.0904774,18.0769392 C49.6318505,18.2966574 50.1436461,18.5533475 50.5529769,19.0033473 C50.985019,19.4802838 51.1693499,20.0507061 51.191533,20.6665509 C51.232202,21.7329238 51.2031527,22.8014094 51.0087866,23.8572188 M26.9121402,23.3438387 C26.8815064,23.6845076 26.8434782,24.061092 26.8043937,24.3230637 C26.7547459,24.6478876 26.6528093,24.9690142 26.551929,25.2827465 C26.3929502,25.7697182 26.248232,26.2640842 26.0364363,26.7262319 C25.7649575,27.3214782 25.4374928,27.890316 25.1237605,28.462851 C24.7925987,29.0686607 24.3452397,29.5778154 23.8524582,30.0494702 C23.495416,30.3911954 22.8230571,30.8808079 21.9631983,31.1628501 C21.7387265,31.2362655 21.5042195,31.2864416 21.2718253,31.3302796 C20.8677761,31.4052796 20.4631988,31.4749978 20.057037,31.5293992 C19.6989385,31.5748218 19.3387273,31.6059837 18.9785162,31.6202443 C18.5892558,31.6355612 18.2005235,31.6355612 17.8112631,31.6218288 C17.3200661,31.6028147 16.8267564,31.5764063 16.3371439,31.5257021 C16.0334468,31.4945401 15.7329188,31.4089767 15.4292217,31.3529908 C15.139257,31.3007021 14.8440106,31.2711247 14.5572149,31.2029909 C14.0776376,31.0894346 13.5896097,30.9901389 13.1290464,30.8174277 C12.6816874,30.6478855 12.2448918,30.42447 11.835561,30.1714772 C11.3010541,29.8382026 10.8389064,29.4035197 10.5352093,28.8362664 C10.2600334,28.3213018 9.99225176,27.7978865 9.78732226,27.2517599 C9.56918853,26.6649643 9.40334352,26.0528167 9.26020977,25.4433098 C9.13925911,24.921479 9.08802673,24.3843313 8.99242817,23.8572188 C8.79753387,22.8014094 8.76901276,21.7329238 8.80968176,20.6649664 C8.83344935,20.0491216 9.01619577,19.4781711 9.44982238,19.0033473 C9.85756871,18.5533475 10.3709488,18.2966574 10.9102092,18.0753547 C11.5128498,17.829228 12.1371454,17.6686647 12.7757015,17.5635591 C13.4137294,17.4605662 14.0485884,17.3422563 14.6866163,17.256693 C15.1323908,17.1991226 15.5829188,17.1695451 16.0334468,17.1568691 C16.6899607,17.1415522 17.3491154,17.1294043 18.0061574,17.1642634 C18.6816853,17.1991226 19.3572133,17.2825733 20.0279877,17.3702493 C20.5619664,17.4415521 21.0964732,17.5286999 21.6220012,17.6491224 C22.1697123,17.7748266 22.7073881,17.9496505 23.2498175,18.101235 C23.3813316,18.1360941 23.7346765,18.2581011 23.7822117,18.2776433 C23.8746412,18.3177842 23.9734088,18.3436644 24.0637257,18.3859179 C24.2089721,18.4556362 24.3573876,18.5216573 24.4904861,18.6093334 C24.8760493,18.8639107 25.2637253,19.1153191 25.6318589,19.3926077 C25.9867884,19.6598612 26.2582672,20.0121498 26.4800981,20.3982412 C26.836612,21.0193677 27.0146049,21.808452 26.9681261,22.5309869 C26.9749923,22.5309869 26.9528092,22.9075713 26.9121402,23.3438387 M54.9996303,19.0593332 C54.9996303,18.8855657 54.9695247,18.7202488 54.8332571,18.6024672 C54.7682923,18.5443686 54.6911797,18.4762348 54.6114262,18.4646151 C54.3478699,18.4250024 54.0779757,18.4149672 53.8128349,18.3806363 C53.1230464,18.2924321 52.4432932,18.1915518 51.7931173,17.9021153 C51.0616035,17.5762351 50.3094911,17.2915521 49.5563223,17.0237705 C48.9616042,16.812503 48.3515692,16.6487707 47.7462878,16.4718341 C46.867943,16.2162004 45.9647743,16.1121511 45.0616056,16.0556371 C44.2799157,16.0049329 43.4945287,16.0133836 42.7112543,16.0012357 C41.502804,15.9843343 40.3065017,16.1375032 39.1149528,16.314968 C38.439953,16.4153201 37.7728758,16.5758834 37.1063267,16.7206016 C36.891362,16.7681368 36.6811508,16.8415523 36.4730523,16.9112706 C36.4614326,16.9149678 35.2049189,17.4056366 34.7881937,17.6750027 C34.2811517,18.0008829 33.4815041,18.4181362 33.4466449,18.4471855 C33.224814,18.6278193 32.9749901,18.5596855 32.7378423,18.5480658 C32.1663637,18.5221855 31.594885,18.4609179 31.0228782,18.4202489 C30.327808,18.3690165 29.6797448,18.3346856 28.9799211,18.4202489 L28.976224,18.4202489 C28.4063298,18.4609179 27.8348511,18.5221855 27.2612598,18.5496503 C27.0262246,18.5596855 26.7748163,18.6278193 26.5545699,18.4471855 C26.5181262,18.4181362 25.719535,18.0008829 25.2130211,17.6750027 C24.7947113,17.4056366 23.5381977,16.9149678 23.5281625,16.9112706 C23.3179513,16.8415523 23.1098528,16.7681368 22.8948881,16.7206016 C22.2262263,16.5774679 21.5596773,16.4153201 20.8846775,16.314968 C19.6931286,16.1375032 18.4978826,15.9843343 17.2878478,16.0012357 C16.5045734,16.0133836 15.7197145,16.0049329 14.9396092,16.0540526 C14.034856,16.1121511 13.1311591,16.2146159 12.254927,16.4718341 C11.6496455,16.6487707 11.038026,16.812503 10.4433079,17.0237705 C9.68961102,17.2915521 8.93961129,17.5762351 8.20809746,17.9021153 C7.55792163,18.1915518 6.87658385,18.2924321 6.18785169,18.3806363 C5.92165461,18.4149672 5.65334484,18.4250024 5.38820409,18.4646151 C5.30950693,18.4778193 5.23292245,18.5443686 5.16795769,18.6024672 C5.03116196,18.7202488 5.00158451,18.8855657 5.00158451,19.0593332 C5.00158451,19.48715 5.00158451,19.9149667 5,20.3427835 C5,20.688734 5.15792248,20.8862692 5.48327448,20.9818677 C5.73309833,21.0536987 5.98133768,21.1403184 6.22482351,21.2343324 C6.68327406,21.411269 7.00968239,21.7556351 7.23785132,22.1786983 C7.40475267,22.4903179 7.51830897,22.8399657 7.61285119,23.1859163 C7.80827366,23.9036977 7.95827361,24.6362679 8.15792142,25.3540493 C8.42781569,26.3084504 8.71989306,27.2580979 9.13292108,28.1612666 C9.43133647,28.8124988 9.77781522,29.4362662 10.246301,29.9818646 C10.7512304,30.5718292 11.341195,31.0540473 12.0415468,31.3646106 C12.5845044,31.6049274 13.1512295,31.7834484 13.709504,31.9846808 C13.9149616,32.0596807 14.5466516,32.2202441 14.7563346,32.2646102 C15.3764048,32.3955961 15.4999963,32.4008778 16.1179538,32.5318637 C16.6799255,32.6258777 17.2561577,32.692427 17.7948899,32.698765 C18.3399601,32.7056312 18.8728824,32.6443636 19.5732343,32.6443636 C20.0131989,32.6068636 20.2149594,32.5899622 20.6031635,32.5112651 C20.8962972,32.4521102 21.1899591,32.3855609 21.4815083,32.3105609 C21.8116138,32.2234131 22.1480573,32.1499976 22.4649586,32.0258779 C23.1716485,31.7528147 23.8329159,31.3830965 24.3980565,30.8681319 C24.7683029,30.5327447 25.1248169,30.16778 25.4295703,29.7690125 C25.7945349,29.2899634 26.1082672,28.7665481 26.4278094,28.2521117 C26.6094994,27.9584498 26.7779853,27.6536964 26.9232317,27.3399641 C27.1498161,26.8508798 27.3616118,26.3528166 27.5596752,25.8521125 C27.7799216,25.2927817 27.9848511,24.7271129 28.1844989,24.1609159 C28.2948862,23.8524653 28.3614354,23.5271133 28.4829143,23.2234162 C28.5779847,22.9846839 28.5716466,22.7084516 28.4047453,22.5193672 C28.1147806,22.1887335 28.0830905,21.545952 28.3514002,21.1968325 C28.6862593,20.7621495 29.1679492,20.591551 29.6728786,20.5424313 C29.7795687,20.5318679 29.8878433,20.5371496 29.9945335,20.5286989 C30.1049207,20.5371496 30.2163644,20.5318679 30.327808,20.5424313 C30.8913641,20.5968327 31.3149555,20.7621495 31.6498146,21.1968325 C31.9181243,21.545952 31.8848497,22.1887335 31.5964695,22.5193672 C31.4295682,22.7084516 31.4232301,22.9846839 31.5183005,23.2250008 C31.6397794,23.5271133 31.7079131,23.8524653 31.8161877,24.1609159 C32.0163637,24.7271129 32.2212932,25.2943662 32.4415396,25.8521125 C32.6396029,26.3528166 32.8513986,26.8508798 33.0779831,27.3399641 C33.2232295,27.6536964 33.3911872,27.9584498 33.5728773,28.2521117 C33.8913631,28.7665481 34.2045672,29.2899634 34.5716445,29.7690125 C34.8763979,30.16778 35.2329119,30.5327447 35.6031582,30.8681319 C36.1682989,31.384681 36.8311508,31.7528147 37.5362561,32.0258779 C37.854742,32.1484131 38.189601,32.2249976 38.5197065,32.3105609 C38.8112557,32.3871454 39.1049176,32.4536947 39.3980513,32.5133778 C39.7862554,32.5899622 39.9880158,32.6068636 40.4279805,32.6443636 C41.1262197,32.6443636 41.6612547,32.7056312 42.2063249,32.698765 C42.744529,32.692427 43.3212893,32.6258777 43.883261,32.5318637 C44.5012185,32.4008778 44.62481,32.3955961 45.2432957,32.2646102 C45.4545632,32.2202441 46.0862531,32.0596807 46.2911826,31.9846808 C46.8499853,31.7834484 47.4161822,31.6049274 47.9580835,31.3646106 C48.6594917,31.0540473 49.2499844,30.5718292 49.7549138,29.9818646 C50.2228714,29.4362662 50.5682938,28.8124988 50.8682937,28.1612666 C51.2813217,27.2580979 51.5728709,26.3084504 51.8411807,25.3540493 C52.0429412,24.6362679 52.1913566,23.9036977 52.3878354,23.1859163 C52.4813213,22.8399657 52.5964621,22.4903179 52.7628353,22.1786983 C52.9899479,21.7556351 53.3163562,21.4096845 53.7763913,21.2343324 C54.0198771,21.1403184 54.2681165,21.0536987 54.5179403,20.9818677 C54.8432923,20.8883819 55.0012148,20.688734 54.9996303,20.3427835 L54.9996303,19.0593332" id="Page-1"></path>
                    </g>
                </g>
            </g>
        </g>
    </g>
</svg>