<?xml version="1.0" encoding="UTF-8"?>
<svg width="250px" height="142px" viewBox="0 0 250 142" version="1.1" xmlns="http://www.w3.org/2000/svg" xmlns:xlink="http://www.w3.org/1999/xlink">
    <!-- Generator: Sketch 44 (41411) - http://www.bohemiancoding.com/sketch -->
    <title>Group 2</title>
    <desc>Created with Sketch.</desc>
    <defs>
        <rect id="path-1" x="0" y="0" width="248" height="140"></rect>
    </defs>
    <g id="HomePage" stroke="none" stroke-width="1" fill="none" fill-rule="evenodd">
        <g id="1280px_Homepage_Header" transform="translate(-909.000000, -225.000000)">
            <g id="Men_Header" transform="translate(0.000000, 191.000000)">
                <g id="Group-2" transform="translate(910.000000, 35.000000)">
                    <g id="Mens_Eyeglasses-Copy-2">
                        <mask id="mask-2" fill="white">
                            <use xlink:href="#path-1"></use>
                        </mask>
                        <use id="Mask" stroke="#B4B4B4" xlink:href="#path-1"></use>
                    </g>
                    <g id="Icon_SportsGlasses" transform="translate(94.000000, 40.000000)" fill="#969696">
                        <path d="M50.155641,38.3103792 C52.1320513,34.1027684 50.9691026,31.8015384 50.1978205,30.2776677 L49.9146154,29.7162416 L49.920641,29.6483769 L49.920641,29.7100721 L50.9088462,29.7100721 C51.7644872,29.7100721 53.0298718,31.4128588 53.0298718,35.0713826 C53.0298718,38.0389205 52.1682051,38.4399391 51.3185897,38.4399391 L51.0835897,38.4337696 C51.0233333,38.4276001 50.9691026,38.4276001 50.9148718,38.4276001 L50.1014103,38.4399391 L50.155641,38.3103792 Z M49.065,38.4276001 L46.9379487,38.4399391 L46.9861538,38.3103792 C48.5046154,34.0534123 47.6128205,31.7645213 47.0223077,30.2529896 C46.9680769,30.1049212 46.8234615,29.7162416 46.8174359,29.7162416 L46.8234615,29.6483769 L46.8234615,29.7100721 L48.8842308,29.7100721 L48.9203846,29.7655977 C48.9685897,29.876649 49.0408974,30.0000394 49.1192308,30.1419383 C49.8302564,31.3820113 51.3065385,33.967039 49.1011538,38.3659049 L49.065,38.4276001 Z M42.4615,37.9772253 L42.4608974,37.9772253 C43.4008974,33.7572754 42.7561538,31.5485882 42.3283333,30.0617346 L42.2198718,29.7162416 L42.2258974,29.6483769 L42.2258974,29.7100721 L45.7810256,29.7100721 C45.7810256,29.7100721 45.9015385,29.9815308 45.9557692,30.0987517 C46.5462821,31.4375369 47.655,33.9361914 45.9376923,38.3535658 L45.9015385,38.4276001 L45.2272692,38.4276001 C44.3836795,38.2610231 43.4617564,38.1129547 42.4615,37.9772253 L42.4615,37.9772253 Z M50.4273974,42.0984629 C51.4457308,43.0609076 51.4336795,43.912301 51.4276538,44.270133 C51.4276538,44.3318281 51.4276538,44.3750148 51.4336795,44.4120319 C51.4457308,44.6958297 51.3372692,46.5281763 51.2348333,48.2988278 C51.1082949,50.4643284 50.9757308,49.779512 50.9757308,50.6185663 C50.9757308,52.1300981 49.4632949,52.1486066 49.4452179,52.1486066 L41.4612436,52.1486066 C38.4725256,52.1486066 36.5804744,51.2910437 35.8513718,49.6005959 C33.2723974,43.6346727 31.7720128,44.3379977 30.5367564,44.3379977 L30.3499615,44.3379977 C29.1086795,44.3379977 27.6143205,43.6346727 25.0293205,49.6005959 C24.3002179,51.2910437 22.4141923,52.1486066 19.4194487,52.1486066 L11.4415,52.1486066 C11.4234231,52.1486066 9.91098718,52.1300981 9.91098718,50.6185663 C9.91098718,49.779512 9.77842308,50.4704979 9.64585897,48.2988278 C9.54342308,46.5281763 9.43496154,44.6958297 9.45303846,44.4120319 L9.45303846,44.270133 C9.44701282,43.912301 9.43496154,43.0609076 10.4593205,42.0984629 C11.5800897,41.0434754 13.9300897,39.8589281 18.8229103,39.1432641 C21.6007308,38.7360759 25.1980385,38.4769562 29.8498333,38.4769562 L31.0302564,38.4769562 C35.6820513,38.4769562 39.279359,38.7360759 42.0571795,39.1432641 L42.0577821,39.1432641 C46.9566282,39.8589281 49.3066282,41.0434754 50.4273974,42.0984629 L50.4273974,42.0984629 Z M14.9839744,38.4276001 L14.9538462,38.3535658 C13.3269231,34.0410732 14.3573077,31.5424187 14.9116667,30.2036335 L14.9719231,30.055565 C15.0080769,29.9568528 15.0442308,29.86431 15.074359,29.7779368 L15.1044872,29.7100721 L18.6596154,29.7039025 L18.5029487,30.3146848 C18.1173077,31.7830299 17.5388462,33.9917171 18.430641,37.9772253 L18.430641,37.9772253 C17.4303846,38.1067852 16.5150897,38.2610231 15.6775256,38.4276001 L14.9839744,38.4276001 Z M11.8807692,38.4276001 L11.8446154,38.3659049 C9.62115385,34.0349037 11.0371795,31.5115711 11.8024359,30.1542773 L11.8807692,30.0062089 C11.9410256,29.9013271 11.9952564,29.8087843 12.0314103,29.7224111 L12.0615385,29.6607159 L12.0675641,29.5990208 L12.0675641,29.6607159 L14.1283333,29.6545464 L14.0921795,29.7779368 L13.9053846,30.2591591 C13.3269231,31.7891994 12.4532051,34.0965989 13.965641,38.3103792 L14.0078205,38.4276001 L11.8807692,38.4276001 Z M10.1815385,38.3782439 L10.0248718,38.3967525 L9.89833333,38.402922 C9.81397436,38.4090915 9.72961538,38.4090915 9.64525641,38.4090915 C9.30782051,38.4090915 8.81371795,38.3473963 8.45217949,37.8106483 C8.09064103,37.2739003 7.91589744,36.3608118 7.91589744,35.0220265 C7.91589744,31.2771295 9.40423077,29.6607159 10.1634615,29.6607159 L11.0432051,29.6483769 C11.0432051,29.6483769 10.8503846,30.030887 10.7720513,30.1789554 C9.94051282,31.7953689 8.79564103,34.0040561 10.7901282,38.2610231 L10.844359,38.3782439 L10.1815385,38.3782439 Z M41.5148718,37.8600045 C40.1892308,37.7057665 38.7310256,37.5823762 37.1227821,37.4960029 L37.1221795,37.4960029 C37.5017949,33.7325974 37.2005128,31.5177406 37.0137179,30.1542773 L36.9534615,29.7100721 L36.9594872,29.6483769 L36.9594872,29.7100721 L41.2497436,29.7100721 L41.31,29.9321747 C41.3341026,30.030887 41.3642308,30.1419383 41.4003846,30.2776677 C41.7739744,31.6658091 42.3946154,33.942361 41.5148718,37.8600045 L41.5148718,37.8600045 Z M35.9773077,29.6545464 L36.0255128,30.0062089 C36.2062821,31.27096 36.525641,33.5536814 36.1460256,37.4466468 C34.5492308,37.3726126 32.8138462,37.3355955 30.9344487,37.3355955 L30.9338462,37.3355955 L30.9338462,29.6607159 L30.9398718,29.5990208 L30.9398718,29.6607159 L35.9773077,29.6545464 Z M24.752141,37.4466468 L24.7515385,37.4466468 L24.7515385,37.4466468 C24.4141026,34.0040561 24.6671795,31.820047 24.8238462,30.4750922 L24.8479487,30.2406506 C24.8720513,30.0617346 24.8901282,29.9013271 24.9021795,29.7470892 L24.9142308,29.5990208 L24.9142308,29.6607159 L29.9576923,29.6545464 L29.9516667,37.3355955 C28.0776923,37.3355955 26.3489359,37.3726126 24.752141,37.4466468 L24.752141,37.4466468 Z M19.4308974,37.8538349 C18.4848718,33.6400546 19.22,31.2771295 19.6176923,29.9815308 L19.6960256,29.7100721 L19.7020513,29.6483769 L19.7020513,29.7100721 L23.9983333,29.7039025 L23.9320513,30.2159725 C23.7332051,31.6349615 23.45,33.7325974 23.8296154,37.4898334 L23.8296154,37.4898334 C22.2207692,37.5762067 20.7631667,37.699597 19.4315,37.8538349 L19.4308974,37.8538349 L19.4308974,37.8538349 Z M11.7120513,28.8401701 C12.1941026,26.0577178 14.5682051,20.2151849 20.395,15.9582179 C20.8288462,15.6497421 21.2385897,15.3721138 21.654359,15.1068245 C21.8592308,14.9772647 22.0761538,14.8477048 22.2689744,14.7613316 C22.2870513,14.755162 22.2991026,14.730484 22.2991026,14.7058059 C23.6331795,13.911789 25.0335385,13.2331421 26.4616154,12.6809703 L26.7622949,12.8549507 C26.7689231,12.9425579 26.7514487,13.0918602 26.7267436,13.2029115 C26.7267436,13.2238878 26.7213205,13.247949 26.7146923,13.2750948 C26.706859,13.3133458 26.6960128,13.3608511 26.6966154,13.4293328 L26.834,14.1844817 L26.894859,14.2461769 C27.0714103,14.4275607 27.3027949,14.448537 27.4612692,14.448537 C27.5703333,14.448537 27.6818077,14.436815 27.7872564,14.4257098 L27.8673974,14.4170725 C27.9475385,14.3960961 28.0885385,14.3751198 28.1855513,14.3751198 C28.2355641,14.3751198 28.2524359,14.3806723 28.2530385,14.3806723 C28.2867821,14.4034996 28.3693333,14.5805647 28.4054872,14.7249314 C28.5392564,15.0673396 28.6971282,15.4097478 29.0225128,15.5078432 C29.0767436,15.5238839 29.1333846,15.5325212 29.1900256,15.5325212 C29.4678077,15.5325212 29.7220897,15.3425001 29.9402179,15.1512451 C30.0306026,15.0519158 30.218,14.9235899 30.255359,14.9180373 C30.2975385,14.9235899 30.4921667,15.0543836 30.603641,15.1697536 C30.8217692,15.3295441 31.0688205,15.510311 31.3237051,15.510311 C31.3923974,15.510311 31.4339744,15.510311 31.496641,15.4776125 C31.8479359,15.3795172 31.9841154,15.0290886 32.1136667,14.6977855 C32.1329487,14.6558328 32.1528333,14.6046258 32.1721154,14.5534188 C32.1986282,14.4837033 32.2432179,14.3677164 32.2667179,14.3504417 C32.2673205,14.3498248 32.2811795,14.3436552 32.3323974,14.3436552 C32.4294103,14.3436552 32.5740256,14.3658655 32.6613974,14.3874588 L32.7331026,14.3948622 C32.8379487,14.4059674 32.9482179,14.4176895 33.0572821,14.4176895 C33.2139487,14.4176895 33.4441282,14.3967131 33.6255,14.2153293 C33.6935897,14.1462307 33.7273333,14.0765151 33.7634872,13.9845893 L33.780359,13.7544663 L33.7845769,13.2590541 C36.6859231,14.3572282 39.7758718,16.0964151 42.1535897,18.1237185 C44.0757692,19.8079967 45.7930769,21.8130899 47.1126923,23.9168953 C47.1126923,23.9168953 47.2332051,24.1266589 47.2874359,24.2130321 C48.2635897,25.8109371 49.0167949,27.4828763 49.3602564,28.790814 L49.3903846,28.8956958 L11.6939744,28.9512214 L11.7120513,28.8401701 Z M26.5411538,9.59250994 C26.6008077,9.56227931 26.6574487,9.53389953 26.679141,9.51662488 C26.9105256,9.43950591 27.2009615,9.31303081 27.3889615,9.01689398 C27.5167051,8.75345559 27.4859744,8.45608485 27.4534359,8.15933107 C27.4227051,8.03285596 27.4052308,7.83975007 27.3913718,7.82926189 C27.3919744,7.82864494 27.4064359,7.82309237 27.4570513,7.82309237 C27.5510513,7.82309237 27.6944615,7.84406873 27.7866538,7.86627899 L27.8806538,7.87738412 C27.9897179,7.89095706 28.1023974,7.90514695 28.2102564,7.90514695 C28.3837949,7.90514695 28.5133462,7.86936375 28.6169872,7.79286174 C28.8724744,7.60407451 28.9923846,7.30793767 29.0634872,7.07966553 L29.1339872,6.92789541 C29.1659231,6.85879681 29.2135256,6.75514892 29.1924359,6.74404379 C29.2316026,6.75514892 29.3491026,6.84275607 29.4069487,6.88532574 L29.4943205,6.94887177 C29.7413718,7.1388929 29.9962564,7.3357005 30.2872949,7.3357005 C30.5795385,7.3357005 30.8296026,7.14259461 31.0646026,6.94146835 C31.1567949,6.84769168 31.3176795,6.7465116 31.3273205,6.73725732 C31.3544359,6.75453197 31.4122821,6.87422061 31.4436154,6.93838359 C31.4713333,6.996994 31.4984487,7.05190271 31.5135128,7.07102821 C31.594859,7.32644623 31.7159744,7.61271183 32.0015897,7.7984143 C32.1299359,7.86319423 32.2733462,7.89404182 32.4547179,7.89404182 C32.5770385,7.89404182 32.7017692,7.87985193 32.8325256,7.86442814 C32.9144744,7.84468568 33.0572821,7.82309237 33.1615256,7.80088211 C33.1777949,7.83789921 33.1633333,8.04087633 33.1259744,8.2049855 L33.1151282,8.29876216 C33.0843974,8.55479713 33.0494487,8.84476444 33.1916538,9.04712461 C33.3067436,9.28835274 33.5513846,9.39570234 33.7875897,9.49935023 L34.0081282,9.60114727 C34.0768205,9.63384571 34.1744359,9.67888319 34.2093846,9.67888319 C34.2160128,9.67888319 34.2208333,9.67703233 34.2214359,9.67333062 C34.2148077,9.70973077 34.1262308,9.83497197 34.0840513,9.89481629 L34.0262051,9.97872173 C33.8376026,10.1971226 33.6435769,10.4617949 33.6435769,10.7659521 C33.6435769,11.0787467 33.8406154,11.3391003 34.0286154,11.5624368 C34.1202051,11.6562135 34.2190256,11.8203227 34.2280641,11.8314278 C34.2105897,11.8604245 34.0882692,11.9208858 34.0219872,11.9535842 C33.9677564,11.9801132 33.9165385,12.0060251 33.8960513,12.0214489 C33.6435769,12.1078222 33.3627821,12.2342973 33.1922564,12.5211798 C33.1723718,12.5618986 33.1536923,12.6020005 33.1398333,12.6495058 C33.0759615,12.8783949 33.1012692,13.1251756 33.1277821,13.3738071 C33.1386282,13.4145259 33.1506795,13.4657329 33.1561026,13.5243433 C33.1687564,13.6471167 33.1675513,13.7088119 33.1832179,13.7106628 C33.1747821,13.7125136 33.1573077,13.7155984 33.122359,13.7155984 C33.0265513,13.7155984 32.8819359,13.6940051 32.7945641,13.6724118 L32.7023718,13.6606897 C32.5927051,13.6471167 32.4800256,13.6335438 32.3709615,13.6335438 C32.1974231,13.6335438 32.0678718,13.66871 31.9720641,13.7396595 C31.7364615,13.8568803 31.6322179,14.1067458 31.5309872,14.3479739 L31.4418077,14.551568 C31.402641,14.6391751 31.336359,14.7860096 31.3562436,14.794647 C31.3237051,14.7897113 31.2110256,14.704572 31.1513718,14.6595345 L31.0615897,14.5941376 C30.8314103,14.3905436 30.5783333,14.2023733 30.2872949,14.2023733 C29.9902308,14.2023733 29.7317308,14.4004148 29.5160128,14.5972224 C29.4256282,14.6885313 29.2587179,14.7915622 29.2490769,14.8020504 C29.2237692,14.7835418 29.1695385,14.6681719 29.1376026,14.5990733 C29.1098846,14.5404628 29.0833718,14.4837033 29.0671026,14.4602591 C28.9833462,14.2023733 28.8604231,13.9154907 28.5790256,13.7402764 C28.4573077,13.6779643 28.2988333,13.6409472 28.1542179,13.6409472 C28.0915513,13.6409472 28.0216538,13.6483506 27.9511538,13.656988 C27.8860769,13.6643914 27.8203974,13.6717948 27.7486923,13.6736457 C27.6655385,13.6940051 27.5233333,13.7155984 27.4190897,13.7371917 C27.4022179,13.6964729 27.4208974,13.4743702 27.4552436,13.3330883 L27.4660897,13.2356099 C27.4962179,12.9814258 27.5311667,12.6926924 27.384141,12.4816949 C27.2907436,12.3509011 27.1617949,12.2565075 27.0563462,12.186175 C26.9671667,12.1362019 26.8749744,12.0899306 26.7839872,12.0436592 L26.5532051,11.9270553 C26.4905385,11.8962077 26.4025641,11.8524041 26.3706282,11.8524041 C26.364,11.8524041 26.3597821,11.854255 26.3585769,11.8585737 C26.3670128,11.8215566 26.4489615,11.7086544 26.4929487,11.6475762 L26.5562179,11.5581182 C26.7484359,11.3205917 26.9364359,11.0639398 26.9364359,10.7659521 C26.9364359,10.4753679 26.753859,10.2162481 26.552,9.97563697 C26.4622179,9.88371116 26.3609872,9.71343248 26.3513462,9.7029443 C26.3688205,9.67826623 26.4766795,9.62397448 26.5411538,9.59250994 L26.5411538,9.59250994 Z M53.8855128,35.0220265 C53.9276923,32.3814731 53.2648718,30.2714981 52.1079487,29.3769181 C51.734359,29.0869508 51.330641,28.9450519 50.9088462,28.9450519 L50.4267949,28.9450519 L50.4026923,28.8710177 C50.3966667,28.8525092 49.8483333,26.7733818 48.2334615,24.0156076 C48.0285897,23.6454365 47.4441026,22.6398052 46.4257692,21.3318675 C44.0094872,18.1854137 40.9725641,15.6990982 37.4053846,13.9407858 C37.2487179,13.8667516 37.0980769,13.7927173 36.9112821,13.7063441 L36.6702564,13.5952928 C36.0170769,13.2960712 35.0806923,12.9166459 34.2961538,12.6223599 C34.5588718,12.5008204 34.8077308,12.3410299 34.8884744,12.0664864 C34.9866923,11.7253121 34.7697692,11.4032633 34.5407949,11.1281028 C34.4389615,11.0300075 34.3160385,10.8387524 34.3124231,10.7986506 C34.3178462,10.7566979 34.4431795,10.5648259 34.5407949,10.4722831 L34.5799615,10.4186083 C34.7595256,10.1693598 34.9824744,9.85903309 34.8890769,9.53451648 C34.7938718,9.17359972 34.4588462,9.03725338 34.128641,8.90337486 C34.0864615,8.88178155 34.0322308,8.85957128 33.978,8.83797797 C33.9129231,8.812066 33.8044615,8.76764548 33.7881923,8.74790302 C33.7701154,8.7059503 33.7887949,8.48693244 33.8243462,8.34133183 L33.8315769,8.26853152 C33.8629103,7.95635395 33.8990641,7.6028406 33.6556282,7.35297515 C33.474859,7.17220829 33.2446795,7.15123193 33.0868077,7.15123193 C32.9795513,7.15123193 32.8692821,7.16295402 32.7644359,7.17405915 L32.6830897,7.18331342 C32.6041538,7.20367283 32.4589359,7.22526614 32.3625256,7.22526614 C32.3498718,7.22526614 32.3203462,7.22464919 32.3167308,7.22588309 C32.2799744,7.1197674 32.1986282,6.92357674 32.145,6.81314238 C32.0112308,6.46456466 31.8443205,6.12770901 31.5279744,6.02467807 C31.4749487,6.00802037 31.4195128,6 31.3634744,6 C31.0899103,6 30.8320128,6.19310589 30.6126795,6.38497788 C30.5108462,6.48862577 30.3282692,6.61571783 30.2915128,6.62003649 C30.2662051,6.61448393 30.1788333,6.55032095 30.1215897,6.50775128 C30.0510897,6.45592733 29.9775769,6.40225253 29.9311795,6.37942532 L29.8781538,6.33932345 C29.6702692,6.18076686 29.4334615,6.00185086 29.1749615,6.00185086 C29.123141,6.00185086 29.0719231,6.00925428 29.0231154,6.02406112 C28.667,6.12832596 28.5338333,6.47752064 28.4072949,6.80882372 C28.3868077,6.85139339 28.3651154,6.9063021 28.3440256,6.96182775 C28.3187179,7.02845854 28.2759359,7.1401268 28.2560513,7.15616755 C28.2548462,7.1567845 28.2391795,7.16357097 28.1855513,7.16357097 C28.0885385,7.16357097 27.9475385,7.14259461 27.8589615,7.1197674 L27.7746026,7.11113007 C27.6697564,7.10002494 27.5606923,7.08768591 27.4528333,7.08768591 C27.2967692,7.08768591 27.069,7.10927922 26.8954615,7.29127998 C26.6490128,7.53744372 26.6851667,7.88725535 26.7183077,8.19634817 L26.7285513,8.28827398 C26.7628974,8.43325764 26.7785641,8.64117037 26.7616923,8.67942138 C26.7424103,8.71520458 26.5736923,8.80096087 26.4272692,8.83921188 C26.1079103,8.96753784 25.7596282,9.13226395 25.6620128,9.4703535 C25.5589744,9.80720915 25.7777051,10.1317258 26.0084872,10.4087371 C26.1048974,10.5074494 26.2314359,10.6943857 26.2380641,10.7332537 C26.2314359,10.7776742 26.1024872,10.972014 25.9777564,11.1083604 C25.7921667,11.3613106 25.5607821,11.6759559 25.6614103,12.0029404 C25.672859,12.0479778 25.696359,12.0880797 25.7180513,12.1294155 C24.4882179,12.5989157 23.3035769,13.1498536 22.1665385,13.7803783 C20.9433333,14.4528557 19.7803846,15.2302149 18.7017949,16.1001168 L18.6294872,16.161812 C18.4908974,16.2728633 18.3583333,16.3839146 18.2197436,16.5011355 C14.7128205,19.4871818 12.790641,22.9482811 11.7964103,25.3235452 C10.9287179,27.4150116 10.6696154,28.8525092 10.6696154,28.8648482 L10.6515385,28.9450519 L10.1634615,28.9450519 C8.33166667,28.9450519 7,31.4992321 7,35.0220265 C7,39.1432641 8.67512821,39.1432641 10.1453846,39.1432641 L12.8093205,39.1432641 C9.33855128,40.2352686 7.96470513,41.6851052 7.96470513,43.1040942 C7.96470513,43.1040942 7.82611538,46.2937347 7.92252564,46.2073614 C7.97073077,46.2073614 8.34432051,46.5466849 8.64560256,46.8366522 C8.66970513,47.2808574 8.69983333,47.7867579 8.73598718,48.3481839 C8.8565,50.4026332 8.99508974,49.80419 8.99508974,50.6123968 C8.99508974,52.3522007 10.4954744,53 11.4415,53 L19.4194487,53 C22.7757308,53 25.0112436,51.938843 25.8789359,49.9214109 C28.3072692,44.3133196 29.5907308,45.1955606 30.3439359,45.1955606 L30.5367564,45.1955606 C31.2899615,45.1955606 32.5734231,44.3133196 35.0017564,49.9214109 C35.8754744,51.938843 38.1049615,53 41.4612436,53 L49.4452179,53 C50.3912436,53 51.8916282,52.3522007 51.8916282,50.6123968 C51.8916282,49.80419 52.0302179,50.4026332 52.1507308,48.3481839 C52.180859,47.7867579 52.2109872,47.2870269 52.2411154,46.8428217 C52.5423974,46.5528544 52.9220128,46.2073614 52.9641923,46.2073614 C53.0606026,46.2937347 52.9280385,43.1040942 52.9280385,43.1040942 C52.9280385,41.6851052 51.5481667,40.2352686 48.0834231,39.1432641 L50.8425641,39.1432641 C52.5658974,39.1432641 53.8855128,38.8409577 53.8855128,35.0220265 L53.8855128,35.0220265 Z" id="Fill-1"></path>
                    </g>
                </g>
            </g>
        </g>
    </g>
</svg>