<?xml version="1.0" encoding="UTF-8"?>
<svg width="250px" height="142px" viewBox="0 0 250 142" version="1.1" xmlns="http://www.w3.org/2000/svg" xmlns:xlink="http://www.w3.org/1999/xlink">
    <!-- Generator: Sketch 44 (41411) - http://www.bohemiancoding.com/sketch -->
    <title>Group 2</title>
    <desc>Created with Sketch.</desc>
    <defs>
        <rect id="path-1" x="0" y="0" width="248" height="140"></rect>
    </defs>
    <g id="HomePage" stroke="none" stroke-width="1" fill="none" fill-rule="evenodd">
        <g id="1280px_Homepage_Header" transform="translate(-909.000000, -225.000000)">
            <g id="Men_Header" transform="translate(0.000000, 191.000000)">
                <g id="Group-2" transform="translate(910.000000, 35.000000)">
                    <g id="Mens_Eyeglasses-Copy-2">
                        <mask id="mask-2" fill="white">
                            <use xlink:href="#path-1"></use>
                        </mask>
                        <use id="Mask" stroke="#B4B4B4" xlink:href="#path-1"></use>
                    </g>
                    <g id="Icon_WomenGlasses" transform="translate(94.000000, 40.000000)" fill="#969696">
                        <path d="M36.658236,35.0058243 C36.9921912,35.0058243 37.2626109,35.2580726 37.2626109,35.5695808 C37.2626109,35.8810891 36.9921912,36.1338617 36.658236,36.1338617 C36.3242808,36.1338617 36.0538611,35.8810891 36.0538611,35.5695808 C36.0538611,35.2580726 36.3242808,35.0058243 36.658236,35.0058243 L36.658236,35.0058243 Z M30.0090618,45.8341445 C30.015888,45.8341445 30.022189,45.8336201 30.0290151,45.8336201 C30.0353162,45.8336201 30.0426674,45.8341445 30.0489684,45.8341445 L30.0090618,45.8341445 Z M24.3323484,40.1619675 C24.3491512,40.1084762 24.4058605,40.0743886 24.4651954,40.0827794 C24.6342733,40.1053296 24.8154283,40.116867 25.0034093,40.116867 C25.6035835,40.116867 26.2069083,40.0046401 26.7897546,39.8966086 C27.3137913,39.7990656 27.8089481,39.7067669 28.2542217,39.7067669 C28.588702,39.7067669 28.8638475,39.7592094 29.096461,39.8677653 L30.0090618,40.2935981 L30.9221878,39.8677653 C31.1542761,39.7597338 31.4299467,39.7067669 31.764427,39.7067669 C32.2097006,39.7067669 32.7043324,39.7990656 33.2288941,39.8966086 C33.8117405,40.0046401 34.4145401,40.116867 35.0147143,40.116867 C35.2058459,40.116867 35.38175,40.105854 35.5534534,40.0827794 C35.6127882,40.0754374 35.6689725,40.1084762 35.6863004,40.1619675 C35.7031031,40.2154588 35.6757986,40.2726211 35.6217147,40.2967446 C35.5938851,40.3088064 32.8172261,41.5286181 32.0159436,42.0892281 C31.0282553,42.7809442 30.0500186,42.7888106 30.0090618,42.7888106 C29.9681051,42.7888106 28.9903934,42.7809442 28.0021801,42.0892281 C27.2008976,41.5286181 24.4247637,40.3088064 24.396409,40.2967446 C24.342325,40.2726211 24.3150205,40.2154588 24.3323484,40.1619675 L24.3323484,40.1619675 Z M39.8176833,39.3973563 C39.7641245,39.2662502 39.6291772,39.1791957 39.4784772,39.1791957 C37.3986084,39.1791957 36.144176,38.4130113 35.1354843,37.7968123 C34.8577134,37.6274231 34.59517,37.4669492 34.3347269,37.3326965 C33.5161166,36.9115835 32.7421386,36.6976182 32.0337965,36.6976182 C31.2545677,36.6976182 30.7620363,36.9587817 30.5294229,37.1234511 L30.0368914,37.402445 L29.5270321,37.1224022 C29.2928434,36.9572084 28.8018873,36.6976182 28.0247588,36.6976182 C27.3158916,36.6976182 26.5419137,36.9115835 25.7233033,37.3326965 C25.4628603,37.4669492 25.2003169,37.6274231 24.922546,37.7968123 C23.9143793,38.4130113 22.6594218,39.1791957 20.579553,39.1791957 C20.4288531,39.1791957 20.2939058,39.2662502 20.2403469,39.3973563 C20.1873132,39.5289869 20.2261696,39.6779235 20.3390633,39.7707467 C20.3632172,39.7911993 22.7728406,41.7876839 23.7027693,43.0893059 C25.0648445,44.9955895 27.4135578,46.1461772 29.991734,46.1723984 L30.0090618,46.1723984 L30.0489684,46.1723984 L30.0536942,46.1723984 C30.0599952,46.1723984 30.0668214,46.1723984 30.0725973,46.171874 C32.6481481,46.1440795 34.994761,44.9940162 36.3552609,43.0893059 C37.2851897,41.7876839 39.694813,39.7911993 39.718967,39.7707467 C39.8318607,39.6779235 39.8712422,39.5289869 39.8176833,39.3973563 L39.8176833,39.3973563 Z M17.2384257,16.9163204 C14.8324779,16.504647 12.721629,16.504647 10.9064039,16.9163204 C9.08907848,17.329567 8.60022267,18.7764546 9.4345856,21.2575077 C10.2705238,23.7375118 11.2750148,25.497481 12.4480588,26.5321708 C13.6226779,27.5705316 15.141229,28.3036773 17.0016115,28.7337055 C19.6800793,29.0352497 21.6055726,28.8700559 22.7801918,28.2386486 C23.9563862,27.6072413 24.7524178,26.9522349 25.1693368,26.2736294 C25.956967,24.8975392 26.3492068,23.600637 26.3460563,22.3860695 C26.3408054,20.9512437 25.425054,19.7828255 23.5946014,18.8829128 C21.7641488,17.9830001 19.6448985,17.3279937 17.2384257,16.9163204 L17.2384257,16.9163204 Z M9.33271876,16.6079587 L8.18487901,15.7164368 L6.80495088,16.0431533 L7.81941859,16.8596825 L9.33271876,16.6079587 Z M31.7187445,18.759673 C34.9889851,17.1947899 38.4582336,16.027945 42.1238646,15.2565164 C45.9753763,14.6450372 49.8279382,14.4048507 53.6810251,14.534908 C55.1544187,14.8684421 55.446367,15.7064727 54.5537194,17.0547685 L54.3363334,17.3096389 C54.0827165,17.5645093 53.8028453,17.7711326 53.4956695,17.9331798 C53.2467783,18.1864769 53.0367436,18.6327623 52.8650402,19.2709871 C52.2743176,21.9990441 51.1443308,24.3337827 49.4777053,26.2752027 C48.3261899,27.6570617 46.7393776,28.7132529 44.7172683,29.4484963 C44.0782376,29.6719012 43.4806889,29.843388 42.925147,29.9666278 C42.3696052,30.0851478 41.3147058,30.0882944 39.7599238,29.9802629 C36.3242808,29.5817001 34.1630235,28.3251787 33.2787774,26.2086008 C32.4013573,24.0925473 32.1524662,22.6273048 32.5378799,21.8144466 C32.6780781,21.2643252 32.3493737,21.0246631 31.5533421,21.0944116 C30.5325734,21.2527878 29.5181057,21.2527878 28.5067885,21.0944116 C27.7091816,21.0225654 27.3804773,21.2627519 27.5206755,21.8144466 C27.9076644,22.6257316 27.6592984,24.0904496 26.7761024,26.2086008 C25.8934315,28.326752 23.7342745,29.5832734 20.2986316,29.9802629 C18.7438495,30.0867211 17.6889502,30.0820013 17.1334083,29.9634813 C16.5794417,29.8449613 15.982418,29.6734745 15.3412871,29.4484963 C13.320753,28.7132529 11.7339407,27.6570617 10.5808501,26.2752027 C8.91422458,24.3358804 7.78633812,22.0011418 7.19351512,19.2709871 C7.023387,18.6327623 6.81177701,18.1864769 6.55973535,17.9331798 C6.25413483,17.7711326 5.97583882,17.5645093 5.7222219,17.3096389 L5.50536105,17.0547685 C4.61218839,15.7064727 4.90256139,14.8668688 6.37963057,14.534908 C10.2306172,14.4032775 14.0831791,14.6434639 17.9346908,15.2565164 C21.6386531,16.0363358 25.1394068,17.2162913 28.4401025,18.8011026 C28.9972196,18.9080852 29.54436,18.9631498 30.0820489,18.9694429 C30.5441253,18.9746871 31.0597605,18.9196226 31.6284295,18.8011026 C31.6588846,18.787992 31.6888145,18.7727837 31.7187445,18.759673 L31.7187445,18.759673 Z M49.1490009,16.9163204 C47.3369264,16.5062203 45.2276527,16.5062203 42.8180293,16.9163204 C40.4120816,17.3264205 38.2928312,17.9830001 36.464479,18.8829128 C34.6340264,19.7828255 33.7161747,20.9512437 33.7124991,22.3860695 C33.7077733,23.600637 34.1383445,24.8975392 34.9989617,26.2736294 C35.3764991,26.920245 36.143651,27.5684339 37.3019924,28.2150495 C38.4598088,28.8616651 40.3769008,29.0352497 43.0569438,28.7337055 C44.9173264,28.3052505 46.4343021,27.5721049 47.6073461,26.5353173 C48.7851158,25.4953833 49.7880316,23.7359386 50.6208192,21.2575077 C51.4567574,18.7743569 50.9658013,17.3279937 49.1490009,16.9163204 L49.1490009,16.9163204 Z M51.8736763,15.7164368 L50.7258366,16.6079587 L52.2459629,16.852865 L53.2536045,16.0431533 L51.8736763,15.7164368 Z" id="Fill-1"></path>
                    </g>
                </g>
            </g>
        </g>
    </g>
</svg>