<?xml version="1.0" encoding="UTF-8" standalone="no"?>
<svg width="50px" height="50px" viewBox="0 0 50 50" version="1.1" xmlns="http://www.w3.org/2000/svg" xmlns:xlink="http://www.w3.org/1999/xlink">
    <!-- Generator: Sketch 39.1 (31720) - http://www.bohemiancoding.com/sketch -->
    <title>Icon_Hammer</title>
    <desc>Created with Sketch.</desc>
    <defs>
        <polygon id="path-1" points="48 24.000048 48 48 0 48 0 24.000048 0 9.6e-05 48 9.6e-05 48 24.000048"></polygon>
        <polygon id="path-3" points="0 48 48 48 48 0 0 0"></polygon>
    </defs>
    <g id="Symbols" stroke="none" stroke-width="1" fill="none" fill-rule="evenodd">
        <g id="Icon_Hammer">
            <g id="Page-1" transform="translate(1.000000, 1.000000)">
                <g id="Group-3">
                    <mask id="mask-2" fill="white">
                        <use xlink:href="#path-1"></use>
                    </mask>
                    <g id="Clip-2"></g>
                    <path d="M47.856,13.754016 C47.83008,11.782176 47.46624,9.843936 46.77408,7.999776 C45.576,4.896096 43.10976,2.429856 40.01568,1.235616 C38.16384,0.544416 36.22368,0.177696 34.21824,0.147936 C31.58208,0.026016 30.78816,9.6e-05 24,9.6e-05 C17.22624,9.6e-05 16.42752,0.026016 13.75392,0.146016 C11.7744,0.171936 9.83616,0.537696 7.99968,1.227936 C4.89408,2.427936 2.42784,4.892256 1.23552,7.986336 C0.54432,9.836256 0.1776,11.776416 0.14784,13.779936 C0.02592,16.421856 0,17.215776 0,24.000096 C0,27.273696 0.00576,29.152416 0.02208,30.524256 C0.04032,32.001696 0.07968,32.893536 0.144,34.246176 C0.16992,36.219936 0.53568,38.158176 1.22784,40.004256 C2.424,43.106016 4.89024,45.574176 7.98624,46.765536 C9.83616,47.457696 11.77632,47.822496 13.77984,47.854176 C16.4256,47.976096 17.2224,48.000096 24,48.000096 C30.76992,48.000096 31.56768,47.976096 34.24608,47.856096 C36.21792,47.830176 38.15808,47.464416 40.00224,46.774176 C43.104,45.576096 45.57024,43.109856 46.7664,40.015776 C47.4576,38.163936 47.8224,36.225696 47.85408,34.220256 C47.976,31.571616 48,30.775776 48,24.000096 C48,17.230176 47.976,16.432416 47.856,13.754016" id="Fill-1" fill="#B4B4B4" mask="url(#mask-2)"></path>
                    <mask id="mask-4" fill="white">
                        <use xlink:href="#path-3"></use>
                    </mask>
                    <g id="Clip-7"></g>
                    <path d="M10.9218112,41.918704 L7.44807031,41.918704 C7.44807031,41.918704 9.50638049,31.7339953 9.50638049,24.2404312 C9.50638049,16.65007 7.44807031,6.080912 7.44807031,6.080912 L10.9218112,6.080912 C10.9218112,6.080912 15.5534657,13.2877372 15.5534657,23.951866 C15.5534657,34.616908 10.9218112,41.918704 10.9218112,41.918704" id="Fill-8" fill="#FFFFFF" mask="url(#mask-4)"></path>
                </g>
                <path d="M39.595296,31.186176 C39.463776,31.032576 39.312096,30.910656 39.150816,30.822336 C38.355936,30.385536 37.706016,29.727936 37.289376,28.923456 L33.154656,20.927616 C33.121056,20.862336 33.143136,20.780736 33.208416,20.746176 C33.472416,20.607936 33.574176,20.281536 33.434016,20.018496 L32.440416,18.143616 C32.265696,17.813376 32.186016,17.436096 32.239776,17.067456 C32.795616,13.237056 37.343136,12.225216 38.358816,12.419136 C38.553696,12.455616 38.741856,12.335616 38.792736,12.143616 C38.844576,11.952576 38.738976,11.753856 38.551776,11.688576 L38.195616,11.549376 C34.569696,10.135296 28.109856,13.150656 24.817056,15.246336 C24.434016,15.490176 24.145056,15.854016 23.998176,16.283136 L23.764896,16.962816 C23.623776,17.423616 23.331936,17.660736 22.972896,17.771136 C22.558176,17.898816 22.109856,17.783616 21.761376,17.523456 C21.554016,17.368896 21.310176,17.234496 21.160416,17.313216 L19.396896,18.248256 C19.098336,18.406656 18.984096,18.777216 19.142496,19.075776 L21.185376,22.928256 C21.343776,23.226816 21.714336,23.340096 22.012896,23.181696 L23.776416,22.246656 C24.073056,22.089216 24.189216,21.716736 24.030816,21.421056 C23.909856,21.192576 23.905056,20.916096 24.033696,20.691456 C24.178656,20.438976 24.366816,20.213376 24.627936,20.074176 C25.547616,19.587456 26.325216,19.434816 26.971296,19.470336 C27.604896,19.505856 28.169376,19.881216 28.466976,20.441856 L29.381856,22.166976 C29.521056,22.430016 29.846496,22.529856 30.108576,22.390656 L30.209376,22.336896 C30.274656,22.302336 30.356256,22.326336 30.391776,22.391616 L34.724256,30.274176 C35.162016,31.075776 35.336736,31.988736 35.259936,32.898816 C35.244576,33.077376 35.260896,33.266496 35.312736,33.456576 L39.376416,41.829696 C41.083296,41.094336 42.670176,40.155456 44.119776,39.027456 L39.595296,31.186176 Z" id="Fill-6" fill="#FFFFFF"></path>
            </g>
        </g>
    </g>
</svg>