<?xml version="1.0" encoding="UTF-8" standalone="no"?>
<svg width="48px" height="48px" viewBox="0 0 48 48" version="1.1" xmlns="http://www.w3.org/2000/svg" xmlns:xlink="http://www.w3.org/1999/xlink">
    <!-- Generator: Sketch 39.1 (31720) - http://www.bohemiancoding.com/sketch -->
    <title>Page 1</title>
    <desc>Created with Sketch.</desc>
    <defs>
        <polygon id="path-1" points="48 24.000048 48 48 0 48 0 24.000048 0 9.6e-05 48 9.6e-05 48 24.000048"></polygon>
        <polygon id="path-3" points="0 48 48 48 48 0 0 0"></polygon>
    </defs>
    <g id="Symbols" stroke="none" stroke-width="1" fill="none" fill-rule="evenodd">
        <g id="Icon_AntiReflect" transform="translate(-1.000000, -1.000000)">
            <g id="Page-1" transform="translate(1.000000, 1.000000)">
                <g id="Group-3">
                    <mask id="mask-2" fill="white">
                        <use xlink:href="#path-1"></use>
                    </mask>
                    <g id="Clip-2"></g>
                    <path d="M47.856,13.754016 C47.83008,11.782176 47.46624,9.843936 46.77408,7.999776 C45.576,4.896096 43.10976,2.429856 40.01568,1.235616 C38.16384,0.544416 36.22368,0.177696 34.21824,0.147936 C31.58208,0.026016 30.78816,9.6e-05 24,9.6e-05 C17.22624,9.6e-05 16.42752,0.026016 13.75392,0.146016 C11.7744,0.171936 9.83616,0.537696 7.99968,1.227936 C4.89408,2.427936 2.42784,4.892256 1.23552,7.986336 C0.54432,9.836256 0.1776,11.776416 0.14784,13.779936 C0.02592,16.421856 0,17.215776 0,24.000096 C0,27.273696 0.00576,29.152416 0.02208,30.524256 C0.04032,32.001696 0.07968,32.893536 0.144,34.246176 C0.16992,36.219936 0.53568,38.158176 1.22784,40.004256 C2.424,43.106016 4.89024,45.574176 7.98624,46.765536 C9.83616,47.457696 11.77632,47.822496 13.77984,47.854176 C16.4256,47.976096 17.2224,48.000096 24,48.000096 C30.76992,48.000096 31.56768,47.976096 34.24608,47.856096 C36.21792,47.830176 38.15808,47.464416 40.00224,46.774176 C43.104,45.576096 45.57024,43.109856 46.7664,40.015776 C47.4576,38.163936 47.8224,36.225696 47.85408,34.220256 C47.976,31.571616 48,30.775776 48,24.000096 C48,17.230176 47.976,16.432416 47.856,13.754016" id="Fill-1" fill="#B4B4B4" mask="url(#mask-2)"></path>
                </g>
                <path d="M21.780672,22.765632 L20.369472,24.508032 L23.505792,27.049152 L33.617472,35.236032 L32.682432,36.389952 L41.880192,40.484352 L35.962752,32.339712 L35.028672,33.493632 L33.272832,32.071872 L33.272832,32.071872 L24.917952,25.305792 L21.780672,22.765632 Z M21.879552,23.710272 L24.494592,25.828032 L32.849472,32.594112 L34.605312,34.015872 L35.127552,34.438272 L35.550912,33.916032 L35.933952,33.442752 L39.862272,38.851392 L33.755712,36.132672 L34.139712,35.659392 L34.562112,35.137152 L34.039872,34.713792 L23.929152,26.526912 L21.314112,24.409152 L21.879552,23.710272 Z" id="Fill-4" fill="#FFFFFF"></path>
                <mask id="mask-4" fill="white">
                    <use xlink:href="#path-3"></use>
                </mask>
                <g id="Clip-7"></g>
                <polygon id="Fill-6" fill="#FFFFFF" mask="url(#mask-4)" points="20.31456 24.53472 41.17056 24.53472 41.17056 21.39552 20.31456 21.39552"></polygon>
                <path d="M10.9218112,41.918704 L7.44807031,41.918704 C7.44807031,41.918704 9.50638049,31.7339953 9.50638049,24.2404312 C9.50638049,16.65007 7.44807031,6.080912 7.44807031,6.080912 L10.9218112,6.080912 C10.9218112,6.080912 15.5534657,13.2877372 15.5534657,23.951866 C15.5534657,34.616908 10.9218112,41.918704 10.9218112,41.918704" id="Fill-8" fill="#FFFFFF" mask="url(#mask-4)"></path>
            </g>
        </g>
    </g>
</svg>