<?xml version="1.0" encoding="utf-8"?>
<!-- Generator: Adobe Illustrator 21.0.2, SVG Export Plug-In . SVG Version: 6.00 Build 0)  -->
<svg version="1.1" xmlns="http://www.w3.org/2000/svg" xmlns:xlink="http://www.w3.org/1999/xlink" x="0px" y="0px"
	 viewBox="0 0 50 50" enable-background="new 0 0 50 50" xml:space="preserve">
<g id="Layer_1">
	<g id="Icon_Hammer">
		<g id="Page-1" transform="translate(1.000000, 1.000000)">
			<g id="Group-3">
				<defs>
					<filter id="Adobe_OpacityMaskFilter" filterUnits="userSpaceOnUse" x="0" y="0" width="48" height="48">
						<feColorMatrix  type="matrix" values="1 0 0 0 0  0 1 0 0 0  0 0 1 0 0  0 0 0 1 0"/>
					</filter>
				</defs>
				<mask maskUnits="userSpaceOnUse" x="0" y="0" width="48" height="48" id="mask-2">
					<g filter="url(#Adobe_OpacityMaskFilter)">
						<polygon id="path-1" fill="#FFFFFF" points="48,24 48,48 0,48 0,24 0,0 48,0 						"/>
					</g>
				</mask>
				<path id="Fill-1" mask="url(#mask-2)" fill="#B4B4B4" d="M47.855,13.754C47.83,11.782,47.467,9.844,46.773,8
					c-1.197-3.104-3.664-5.57-6.758-6.764c-1.852-0.691-3.792-1.058-5.797-1.088C31.582,0.026,30.788,0,24,0
					c-6.774,0-7.572,0.026-10.246,0.146c-1.98,0.026-3.918,0.392-5.754,1.082c-3.105,1.2-5.572,3.664-6.764,6.758
					c-0.691,1.85-1.058,3.79-1.087,5.794C0.026,16.422,0,17.216,0,24c0,3.273,0.006,5.152,0.022,6.524
					c0.018,1.478,0.058,2.369,0.122,3.722c0.026,1.974,0.392,3.912,1.084,5.758c1.196,3.102,3.662,5.57,6.758,6.762
					c1.85,0.691,3.79,1.057,5.793,1.088C16.426,47.977,17.222,48,24,48c6.769,0,7.568-0.023,10.246-0.144
					c1.972-0.025,3.912-0.391,5.756-1.082c3.101-1.197,5.568-3.664,6.765-6.758c0.69-1.851,1.056-3.79,1.087-5.795
					C47.977,31.572,48,30.775,48,24C48,17.23,47.977,16.433,47.855,13.754"/>
				<defs>
					<filter id="Adobe_OpacityMaskFilter_1_" filterUnits="userSpaceOnUse" x="7.448" y="6.081" width="8.105" height="35.837">
						<feColorMatrix  type="matrix" values="1 0 0 0 0  0 1 0 0 0  0 0 1 0 0  0 0 0 1 0"/>
					</filter>
				</defs>
				<mask maskUnits="userSpaceOnUse" x="7.448" y="6.081" width="8.105" height="35.837" id="mask-4">
					<g filter="url(#Adobe_OpacityMaskFilter_1_)">
						<polygon id="path-3" fill="#FFFFFF" points="0,48 48,48 48,0 0,0 						"/>
					</g>
				</mask>
				<path id="Fill-8" display="none" mask="url(#mask-4)" fill="#FFFFFF" d="M10.922,41.918H7.448c0,0,2.058-10.184,2.058-17.678
					c0-7.59-2.058-18.159-2.058-18.159h3.474c0,0,4.631,7.207,4.631,17.871C15.553,34.617,10.922,41.918,10.922,41.918"/>
			</g>
			<path id="Fill-6" display="none" fill="#FFFFFF" d="M39.596,31.186c-0.132-0.152-0.283-0.275-0.445-0.363
				c-0.795-0.437-1.444-1.094-1.861-1.899l-4.135-7.996c-0.033-0.065-0.012-0.147,0.055-0.182c0.264-0.138,0.365-0.464,0.225-0.727
				l-0.993-1.875c-0.175-0.33-0.255-0.708-0.2-1.076c0.555-3.831,5.104-4.842,6.119-4.648c0.194,0.037,0.383-0.084,0.434-0.275
				c0.052-0.191-0.055-0.39-0.241-0.455l-0.356-0.139c-3.625-1.414-10.086,1.602-13.379,3.697c-0.382,0.244-0.671,0.607-0.818,1.037
				l-0.233,0.68c-0.142,0.461-0.433,0.698-0.792,0.808c-0.415,0.128-0.863,0.013-1.212-0.248c-0.207-0.155-0.451-0.289-0.601-0.21
				l-1.764,0.935c-0.299,0.159-0.413,0.529-0.254,0.828l2.043,3.852c0.158,0.299,0.529,0.412,0.827,0.253l1.764-0.935
				c0.297-0.157,0.413-0.53,0.254-0.826c-0.121-0.229-0.126-0.505,0.003-0.729c0.145-0.252,0.333-0.478,0.594-0.617
				c0.919-0.487,1.697-0.639,2.343-0.604c0.635,0.036,1.199,0.411,1.496,0.972l0.915,1.725c0.14,0.263,0.465,0.363,0.727,0.224
				l0.101-0.054c0.066-0.035,0.147-0.011,0.183,0.055l4.333,7.882c0.438,0.803,0.612,1.715,0.535,2.625
				c-0.016,0.18,0.001,0.368,0.053,0.559l4.065,8.373c1.707-0.736,3.293-1.675,4.742-2.803L39.596,31.186z"/>
		</g>
	</g>
</g>
<g id="Layer_3">
</g>
<g id="Layer_2">
	<g>
		
			<linearGradient id="SVGID_1_" gradientUnits="userSpaceOnUse" x1="23.8093" y1="45.681" x2="47.1251" y2="45.681" gradientTransform="matrix(-1 0 0 -1 56.5612 61.9775)">
			<stop  offset="0" style="stop-color:#C8C8C8"/>
			<stop  offset="0.131" style="stop-color:#D6D6D6"/>
			<stop  offset="0.4006" style="stop-color:#EDEDED"/>
			<stop  offset="0.6559" style="stop-color:#FAFAFA"/>
			<stop  offset="0.88" style="stop-color:#FFFFFF"/>
		</linearGradient>
		<polyline fill="none" stroke="url(#SVGID_1_)" stroke-width="0.75" stroke-miterlimit="10" points="32.51,24.997 18.009,12.761 
			19.077,11.534 10.446,8.081 15.628,15.624 16.78,14.308 29.969,25.029 		"/>
		
			<rect x="8.614" y="24.705" display="none" fill="none" stroke="#FFFFFF" stroke-width="0.5" stroke-miterlimit="10" width="24.158" height="3.105"/>
		
			<linearGradient id="SVGID_2_" gradientUnits="userSpaceOnUse" x1="24.0303" y1="35.72" x2="45.9209" y2="35.72" gradientTransform="matrix(-1 0 0 -1 56.5612 61.9775)">
			<stop  offset="0" style="stop-color:#C8C8C8"/>
			<stop  offset="0.88" style="stop-color:#FFFFFF"/>
		</linearGradient>
		<rect x="8.614" y="24.705" fill="url(#SVGID_2_)" width="24.158" height="3.105"/>
	</g>
	<defs>
		<filter id="Adobe_OpacityMaskFilter_2_" filterUnits="userSpaceOnUse" x="33.948" y="7.081" width="8.105" height="35.837">
			<feColorMatrix  type="matrix" values="1 0 0 0 0  0 1 0 0 0  0 0 1 0 0  0 0 0 1 0"/>
		</filter>
	</defs>
	<mask maskUnits="userSpaceOnUse" x="33.948" y="7.081" width="8.105" height="35.837" id="mask-4_3_">
		<g filter="url(#Adobe_OpacityMaskFilter_2_)">
			<polygon id="path-3_3_" fill="#FFFFFF" points="26.5,49 74.5,49 74.5,1 26.5,1 			"/>
		</g>
	</mask>
	<path id="Fill-8_3_" mask="url(#mask-4_3_)" fill="#FFFFFF" d="M37.422,42.918h-3.474c0,0,2.058-10.184,2.058-17.678
		c0-7.59-2.058-18.159-2.058-18.159h3.474c0,0,4.631,7.207,4.631,17.871C42.053,35.617,37.422,42.918,37.422,42.918"/>
</g>
</svg>
