<svg xmlns="http://www.w3.org/2000/svg" width="23" height="10" viewBox="0 0 23 10"><path fill="#000" fill-rule="nonzero" d="M22.04 9.02l-.016-7.942c0-.518-.39-.907-.907-.907L1.552.173c-.52 0-.907.39-.907.907l.017 7.94c0 .518.388.907.907.907h19.564c.454-.066.843-.455.907-.908zm-2.998-.16l.07-3.96h-.99l-.07 3.96h-.972l.034-1.98h-.99l-.034 1.98h-.85l.036-1.98h-.99l-.035 1.98h-1.006l.07-3.96h-.992l-.067 3.818H11.3V6.74h-.99v1.98h-.936l.032-1.84-.918.002-.035 1.98H7.48l.07-3.89h-.99l-.07 3.89H5.484l.035-1.98h-.99l-.035 1.98H1.54V1.082h19.517V8.86h-2.015z"/></svg>