<?xml version="1.0" encoding="UTF-8"?>
<svg width="25px" height="25px" viewBox="0 0 25 25" version="1.1" xmlns="http://www.w3.org/2000/svg" xmlns:xlink="http://www.w3.org/1999/xlink">
    <!-- Generator: Sketch 46.1 (44463) - http://www.bohemiancoding.com/sketch -->
    <title>Icon/Social/Email</title>
    <desc>Created with Sketch.</desc>
    <defs>
        <polygon id="path-1" points="23 17 23 0 0 0 0 17 23 17"></polygon>
    </defs>
    <g id="Symbols" stroke="none" stroke-width="1" fill="none" fill-rule="evenodd">
        <g id="Icon/Social/Email">
            <g id="Page-1" transform="translate(1.000000, 4.000000)">
                <mask id="mask-2" fill="white">
                    <use xlink:href="#path-1"></use>
                </mask>
                <g id="Clip-2"></g>
                <path d="M16.3575358,11.649 C16.1375138,11.649 16,11.525 16,11.325 C16,11.125 16.1375138,11 16.3575358,11 L20.6424642,11 C20.8140814,11 21,11.125 21,11.325 C21,11.525 20.8624862,11.649 20.6424642,11.649 L16.3575358,11.649 Z M16.3575358,13.649 C16.1375138,13.649 16,13.524 16,13.324 C16,13.124 16.1375138,13 16.3575358,13 L20.6424642,13 C20.8140814,13 21,13.124 21,13.324 C21,13.524 20.8624862,13.649 20.6424642,13.649 L16.3575358,13.649 Z M3.32202588,1 C2.8863469,1 2.46865468,1.12397719 2.11391606,1.35903794 L2,1.43441607 L11.5,9 L21,1.43441607 L20.8870832,1.35903794 C20.5253497,1.12000992 20.1006627,1 19.6210161,1 L3.32202588,1 Z M1.23757697,2.12889445 C1.12630674,2.41452456 1,2.79089637 1,3.17757973 L1,13.6386536 C1,14.939972 2.02950021,16 3.29557497,16 L19.704425,16 C20.9694974,16 22,14.939972 22,13.6386536 L22,3.23738676 C22,2.75789939 21.9228125,2.40111954 21.755406,2.11445828 L21.6962624,2.01340502 L11.7831877,10.1698461 C11.6939711,10.2141858 11.5917228,10.2667747 11.4994988,10.2667747 C11.4072748,10.2667747 11.3060289,10.2141858 11.197766,10.1585034 L1.2876987,2 L1.23757697,2.12889445 Z M3.27323351,17 C1.4686681,17 0,15.5075122 0,13.6734448 L0,3.32655524 C0,1.49248778 1.4686681,0 3.27323351,0 L19.7846539,0 C20.6723105,0 21.4984363,0.35491462 22.1117263,0.998069149 C22.7098857,1.62583721 23.025609,2.45157787 22.9983741,3.32347795 L22.9983741,13.6734448 C22.9983741,15.5075122 21.5307147,17 19.7261493,17 L3.27323351,17 Z" id="Fill-1" fill="#646464" mask="url(#mask-2)"></path>
            </g>
        </g>
    </g>
</svg>