<?xml version="1.0" encoding="utf-8"?>
<!-- Generator: Adobe Illustrator 21.0.2, SVG Export Plug-In . SVG Version: 6.00 Build 0)  -->
<svg version="1.1" id="Layer_1" xmlns="http://www.w3.org/2000/svg" xmlns:xlink="http://www.w3.org/1999/xlink" x="0px" y="0px"
	 viewBox="0 0 512 512" style="enable-background:new 0 0 512 512;" xml:space="preserve" width="25px" height="25px">
<style type="text/css">
	.st0{fill:#969696;}
</style>
<g>
	<path class="st0" d="M491.3,88.5c-4-14.7-10.8-27.8-21.1-39.4c-11.5-12.9-25.5-21.5-41.4-27.1c-5.3-1.9-11-2.8-16.5-4.1H99.8
		c-3.7,0.9-7.5,1.8-11.2,2.8c-14.7,4-27.8,10.8-39.4,21.1C36.3,53.3,27.7,67.3,22,83.3c-1.9,5.3-2.8,11-4.1,16.5v312.5
		c0.9,3.7,1.8,7.5,2.8,11.2c4,14.7,10.8,27.8,21.1,39.4c11.5,12.9,25.5,21.5,41.4,27.1c5.3,1.9,11,2.8,16.5,4.1h312.5
		c3.7-0.9,7.5-1.8,11.2-2.8c14.7-4,27.8-10.8,39.4-21.1c12.9-11.5,21.5-25.5,27.1-41.4c1.9-5.3,2.8-11,4.1-16.5V99.8
		C493.2,96,492.3,92.3,491.3,88.5z M474.4,402c-0.1,16.9-6.5,32.2-17.6,45.4c-11.7,13.8-26.4,22.1-43.8,25.9
		c-3.6,0.8-7.3,1.2-10.9,1.2c-97.3,0.1-194.7,0.2-292-0.1c-16.9-0.1-32.2-6.5-45.4-17.6c-13.8-11.7-22.1-26.4-25.9-43.8
		c-0.8-3.7-1.2-7.6-1.2-11.4c-0.1-48.5-0.1-97-0.1-145.5c0-48.7-0.3-97.3,0.2-146c0.2-17,6.5-32.2,17.6-45.4
		c11.7-13.8,26.4-22.1,43.8-25.9c3.6-0.8,7.3-1.2,10.9-1.2c97.3-0.1,194.7-0.2,292,0.1c16.9,0.1,32.2,6.5,45.4,17.6
		c13.8,11.7,22.1,26.4,25.9,43.8c0.8,3.6,1.2,7.3,1.2,10.9C474.6,207.3,474.7,304.7,474.4,402z"/>
	<path class="st0" d="M427.9,302.5c-0.1-12.4-0.9-24.9-2.9-37.1c-3-19.1-11-36.3-24.6-50.4c-15.5-16.1-34.9-24.2-56.8-25.9
		c-20.6-1.5-40.5,1.7-58.4,14.1c-1.6-12.7-3.4-14.3-15.8-14.3c-22.5,0-44.9,0-67.4,0c-9.6,0-13,3.4-13,12.8c0,71.1,0,142.3,0,213.4
		c0,9.2,3.5,12.8,12.6,12.8c23.6,0,47.1,0,70.7,0c8.9,0,12.5-3.6,12.5-12.5c0-38.6,0-77.2,0-115.8c0-4.1,0.2-8.3,1-12.3
		c1.2-6.3,3.2-12.4,8.4-16.6c8-6.3,17-6.4,25.9-2.3c8.9,4.1,11.1,12.5,11.1,21.3c0.2,41.5,0.1,83.1,0.1,124.6
		c0,9.1,4.4,13.5,13.4,13.5c23.2,0,46.5,0,69.7,0c10,0,13.6-3.6,13.6-13.5C428.1,377.2,428.3,339.9,427.9,302.5z M407.6,402.2
		c0,1.7,0,3.3,0,5.2c-18.7,0-36.9,0-55.8,0c0-1.8,0-3.6,0-5.4c0-36.9,0.2-73.8-0.1-110.7c-0.1-10.2-2.2-20.3-8.3-28.9
		c-6.8-9.4-16.1-14.4-27.7-15.9c-11.5-1.5-22.2,0-31.7,6.7c-9.9,7-15.3,17.3-17.6,29c-1.1,5.8-1,11.9-1,17.9
		c-0.1,33.9,0,67.9,0,101.8c0,1.7,0,3.4,0,5.3c-19.2,0-37.8,0-56.5,0c0-66.2,0-132.2,0-198.5c18.7,0,37.3,0,56.5,0
		c0,6.3,0.2,12.6-0.1,18.9c-0.2,4.6,2.1,7.6,5.9,9.5c4.2,2,8.1,1.1,11.1-2.5c5.2-6.3,10.5-12.5,17.7-16.8c8.5-5.1,17.7-7.5,27.5-8.7
		c11.6-1.3,22.8,0.3,33.6,4c15.6,5.4,27.4,15.7,35.2,30.2c7.9,14.6,11.3,30.4,11.3,47C407.6,327.8,407.6,365,407.6,402.2z"/>
	<path class="st0" d="M180.7,203.9c0-0.9,0-1.9,0-2.8c-0.4-8.6-4-12-12.6-12c-23.5,0-47.1,0.2-70.6-0.1c-8.7-0.1-13.6,3-13.6,13.9
		c0.1,35.3,0.1,70.6,0.1,105.9s0,70.6,0,105.9c0,9.6,3.7,13.4,13.2,13.4c22.9,0,45.9-0.3,68.8,0.1c11.6,0.2,14.8-6.8,14.8-14.7
		C180.6,343.6,180.7,273.7,180.7,203.9z M160,407.2c-18.2,0-36.6,0-55.2,0c0-65.9,0-132,0-198.4c18.6,0,36.8,0,55.2,0
		C160,274.9,160,340.9,160,407.2z"/>
	<path class="st0" d="M180.1,139.9c-0.4-3.6-0.6-7.3-1.4-10.9c-3.1-13.7-10.9-23.7-23.6-30.1c-9-4.5-18.4-5.3-28.1-4.8
		c-14.4,0.8-26.2,7.1-34.6,18.6c-6.6,9.1-8.8,19.5-7.7,30.9c1,10.4,4.8,19.3,11.8,26.5c14.1,14.4,31.2,16.7,50.3,12.6
		C165.7,178.7,180.9,158.8,180.1,139.9z M144.5,162.9c-3.6,1.4-7.6,1.8-11.4,2.6c-12-0.3-21.1-4.8-26.4-15.7
		c-5.3-10.9-2-26.4,10.4-32.6c13.1-6.6,31.5-4.1,39.4,9C164.9,140.2,158.6,157.2,144.5,162.9z"/>
</g>
</svg>
