<?xml version="1.0" encoding="UTF-8" standalone="no"?>
<svg width="25px" height="25px" viewBox="0 0 25 25" version="1.1" xmlns="http://www.w3.org/2000/svg" xmlns:xlink="http://www.w3.org/1999/xlink">
    <!-- Generator: Sketch 39.1 (31720) - http://www.bohemiancoding.com/sketch -->
    <title>Icon_FB_Grey</title>
    <desc>Created with Sketch.</desc>
    <defs></defs>
    <g id="Symbols" stroke="none" stroke-width="1" fill="none" fill-rule="evenodd">
        <g id="Icon_FB_Grey" fill="#969696">
            <path d="M22.7394083,17.3622 C22.729825,18.1796583 22.580325,18.9817833 22.2937833,19.7522833 C21.8433667,20.9166583 20.9176167,21.844325 19.745575,22.2976167 C18.9789083,22.580325 18.1777417,22.729825 17.376575,22.7394083 C16.910825,22.7604917 16.56295,22.775825 16.1547,22.787325 L16.1547,15.9937 L18.7929917,15.9937 L19.3354083,11.82495 L16.1547,11.82495 L16.1547,10.3663667 C16.1547,9.987825 16.2160333,9.752075 16.324325,9.62365833 C16.4489083,9.47511667 16.7479083,9.39940833 17.1772417,9.39940833 L19.3909917,9.39845 L19.3909917,5.58524167 L18.9032,5.52199167 C18.6549917,5.48940833 17.6602417,5.39549167 16.4239917,5.39549167 C15.0842417,5.39549167 13.95245,5.8162 13.14745,6.61161667 C12.3137,7.434825 11.8757417,8.62699167 11.8757417,10.0577833 L11.8757417,11.82495 L9.18761667,11.82495 L9.18761667,15.9937 L11.8757417,15.9937 L11.8757417,22.8112833 C9.23553333,22.8093667 8.81865833,22.7940333 7.63799167,22.7403667 C6.819575,22.7307833 6.01649167,22.5812833 5.24503333,22.2947417 C4.08065833,21.844325 3.15490833,20.918575 2.70161667,19.7474917 C2.41795,18.9827417 2.26940833,18.1806167 2.259825,17.3775333 C2.22915833,16.721075 2.21190833,16.3032417 2.20136667,15.6065333 C2.19178333,14.95295 2.18890833,14.0578667 2.18890833,12.4996167 C2.18890833,9.25949167 2.20136667,8.87999167 2.26078333,7.63703333 C2.27036667,6.819575 2.41890833,6.01745 2.70545,5.24599167 C3.15586667,4.082575 4.082575,3.15586667 5.25461667,2.70161667 C6.020325,2.41890833 6.82149167,2.27036667 7.62361667,2.26078333 C8.89915833,2.20136667 9.28153333,2.18890833 12.4996167,2.18890833 C15.7387833,2.18890833 16.117325,2.20136667 17.3602833,2.259825 C18.1787,2.26940833 18.9817833,2.41795 19.7522833,2.70545 C20.9176167,3.156825 21.8433667,4.08353333 22.2966583,5.25461667 C22.5793667,6.020325 22.7288667,6.82053333 22.73845,7.62265833 C22.7978667,8.901075 22.810325,9.28440833 22.810325,12.4986583 C22.810325,15.7081167 22.7978667,16.09145 22.7394083,17.3622 L22.7394083,17.3622 Z M18.0876583,12.9222417 L17.82795,14.8964083 L15.0574083,14.8964083 L15.0574083,22.804575 C14.5437417,22.8084083 13.8853667,22.810325 12.972075,22.8112833 L12.972075,14.8964083 L10.28395,14.8964083 L10.28395,12.9222417 L12.972075,12.9222417 L12.972075,10.0577833 C12.972075,8.92695 13.2959917,8.00503333 13.9160333,7.3917 C14.5111583,6.80328333 15.387075,6.491825 16.4316583,6.491825 C17.1657417,6.491825 17.8001583,6.52824167 18.2937,6.5637 L18.2937,8.30211667 L17.1714917,8.30211667 C15.0804083,8.30211667 15.0574083,9.855575 15.0574083,10.3663667 L15.0574083,12.9222417 L18.0876583,12.9222417 Z M23.9306167,7.590075 C23.9181583,6.64515833 23.7437417,5.71653333 23.4121583,4.83295 C22.8381167,3.34561667 21.6564917,2.16399167 20.17395,1.59186667 C19.2865333,1.26028333 18.35695,1.08490833 17.3957417,1.07053333 C16.1326583,1.012075 15.7522,0.999616667 12.4996167,0.999616667 C9.25374167,0.999616667 8.87136667,1.012075 7.590075,1.069575 C6.641325,1.08203333 5.7127,1.25740833 4.83295,1.58803333 C3.34465833,2.16303333 2.16303333,3.3437 1.59186667,4.82624167 C1.26028333,5.7127 1.08490833,6.64228333 1.07053333,7.60253333 C1.012075,8.86849167 0.999616667,9.24895 0.999616667,12.4996167 C0.999616667,14.0684083 1.00249167,14.9682833 1.01015833,15.6257 C1.01878333,16.3339083 1.03795,16.761325 1.06861667,17.4091583 C1.081075,18.3550333 1.25645,19.2836583 1.58803333,20.1682 C2.16111667,21.654575 3.34274167,22.8371583 4.82624167,23.408325 C5.7127,23.7399083 6.64228333,23.914325 7.60253333,23.9296583 C8.87040833,23.9881167 9.251825,23.9996167 12.4996167,23.9996167 C15.743575,23.9996167 16.12595,23.9881167 17.4091583,23.9306167 C18.354075,23.9181583 19.2836583,23.7427833 20.1672417,23.4121583 C21.6536167,22.8381167 22.8352417,21.6564917 23.408325,20.17395 C23.7399083,19.2865333 23.914325,18.3579083 23.9296583,17.3967 C23.9881167,16.1278667 23.9996167,15.74645 23.9996167,12.4996167 C23.9996167,9.25565833 23.9881167,8.87328333 23.9306167,7.590075 L23.9306167,7.590075 Z" id="Fill-1"></path>
        </g>
    </g>
</svg>