<?xml version="1.0" encoding="UTF-8"?>
<svg width="17px" height="17px" viewBox="0 0 17 17" version="1.1" xmlns="http://www.w3.org/2000/svg" xmlns:xlink="http://www.w3.org/1999/xlink">
    <!-- Generator: Sketch 44 (41411) - http://www.bohemiancoding.com/sketch -->
    <title>Fill 1</title>
    <desc>Created with Sketch.</desc>
    <defs></defs>
    <g id="Symbols" stroke="none" stroke-width="1" fill="none" fill-rule="evenodd">
        <g id="Desktop/Header/Lang-expanded" transform="translate(-50.000000, -93.000000)" fill="#000000">
            <g id="Group-4" transform="translate(0.000000, 81.000000)">
                <g id="Group-3" transform="translate(37.000000, 0.000000)">
                    <g id="Group-2" transform="translate(13.000000, 10.000000)">
                        <g id="global" transform="translate(0.000000, 2.000000)">
                            <path d="M8.4827398,0.0346938776 C3.79208418,0.0346938776 0,3.82677806 0,8.51743367 C0,13.2080459 3.79208418,16.9999566 8.4827398,16.9999566 C13.173352,16.9999566 16.9652628,13.2080459 16.9652628,8.51743367 C16.9652628,3.82677806 13.173352,0.0346938776 8.4827398,0.0346938776 Z M5.92220153,1.19004337 C5.47460714,1.81800255 5.09310459,2.48052551 4.77379082,3.17440306 L2.84836735,3.17440306 C3.68791582,2.28641327 4.73922704,1.59930102 5.92220153,1.19004337 Z M2.24122449,3.89607908 L4.46852806,3.89607908 C3.94473724,5.24571429 3.65673469,6.68546684 3.61505867,8.15657398 L0.731997449,8.15657398 C0.804854592,6.56403827 1.35301786,5.09648724 2.24122449,3.89607908 Z M2.24122449,13.1385714 C1.35301786,11.9381633 0.804854592,10.4706556 0.731997449,8.87825 L3.61505867,8.87825 C3.65673469,10.3491837 3.95505867,11.7889362 4.48240561,13.1385714 L2.24122449,13.1385714 Z M2.84836735,13.8602474 L4.79122449,13.8602474 C5.11396429,14.554125 5.49546684,15.2235867 5.93607908,15.8515893 C4.74959184,15.4422883 3.69147194,14.7517934 2.84836735,13.8602474 Z M8.1218801,16.2713418 C7.76106378,16.2540816 7.4036301,16.2124056 7.05669133,16.1500867 C6.48085969,15.4387321 5.98807653,14.6720408 5.58914031,13.8636301 L8.1218801,13.8636301 L8.1218801,16.2713418 Z M8.1218801,13.1385714 L5.2596352,13.1385714 C4.70093367,11.7924923 4.38179337,10.3527398 4.33673469,8.87825 L8.1218801,8.87825 L8.1218801,13.1385714 Z M8.1218801,8.15657398 L4.33673469,8.15657398 C4.38179337,6.68546684 4.69755102,5.24215816 5.25269643,3.89607908 L8.1218801,3.89607908 L8.1218801,8.15657398 Z M8.12526276,3.17440306 L5.58220153,3.17440306 C5.98469388,2.35927041 6.47730357,1.59253571 7.05669133,0.888163265 C7.4036301,0.822244898 7.76106378,0.784125 8.12526276,0.766691327 L8.12526276,3.17440306 Z M14.7240816,3.89607908 C15.6122449,5.09648724 16.1638342,6.56061224 16.2332653,8.15657398 L13.3502041,8.15657398 C13.3085281,6.68546684 13.0102041,5.24571429 12.4828571,3.89607908 L14.7240816,3.89607908 Z M14.1169388,3.17440306 L12.1740383,3.17440306 C11.8514719,2.48052551 11.4697959,1.81106378 11.0256276,1.18306122 C12.2157143,1.59253571 13.2737908,2.28285714 14.1169388,3.17440306 Z M8.84355612,0.766691327 C9.20419898,0.784125 9.56163265,0.825627551 9.90857143,0.888163265 C10.4845765,1.59930102 10.9771862,2.36620918 11.3761224,3.17440306 L8.84355612,3.17440306 L8.84355612,0.766691327 Z M8.84355612,3.89607908 L11.705801,3.89607908 C12.2643291,5.23877551 12.5834694,6.68208418 12.6285281,8.15657398 L8.84355612,8.15657398 L8.84355612,3.89607908 Z M8.84355612,8.87825 L12.6285281,8.87825 C12.5834694,10.3491837 12.2677117,11.7924923 11.7125663,13.1385714 L8.84355612,13.1385714 L8.84355612,8.87825 Z M8.84,16.2679592 L8.84,13.8602474 L11.3830612,13.8602474 C10.9805689,14.6755969 10.4879592,15.4422883 9.90857143,16.1465306 C9.56163265,16.2124056 9.20419898,16.250699 8.84,16.2679592 Z M11.0256276,15.8515893 C11.4662398,15.2235867 11.8479158,14.554125 12.1670995,13.8602474 L14.1204949,13.8602474 C13.2737908,14.7517934 12.2157143,15.4422883 11.0256276,15.8515893 Z M12.4725357,13.1385714 C12.9929439,11.7889362 13.2876684,10.3491837 13.3468214,8.87825 L16.236648,8.87825 C16.1638342,10.4706556 15.6156276,11.9381633 14.7276378,13.1385714 L12.4725357,13.1385714 Z" id="Fill-1"></path>
                        </g>
                    </g>
                </g>
            </g>
        </g>
    </g>
</svg>