<?xml version="1.0" encoding="UTF-8"?>
<svg width="25px" height="25px" viewBox="0 0 25 25" version="1.1" xmlns="http://www.w3.org/2000/svg" xmlns:xlink="http://www.w3.org/1999/xlink">
    <!-- Generator: Sketch 46.1 (44463) - http://www.bohemiancoding.com/sketch -->
    <title>Icon/Social/Whatsapp</title>
    <desc>Created with Sketch.</desc>
    <defs></defs>
    <g id="Symbols" stroke="none" stroke-width="1" fill="none" fill-rule="evenodd">
        <g id="Icon/Social/Whatsapp">
            <g id="if_5302_-_Whatsapp_1218789" transform="translate(-1.000000, -2.000000)">
                <g id="Layer_x0020_1" transform="translate(1.931034, 1.931034)" stroke-width="0.5" stroke="#646464" fill-rule="nonzero">
                    <g id="_264862720">
                        <path d="M18.6983448,14.9965517 C18.6704509,14.9530546 18.5437425,14.8932483 18.3544768,14.8038828 C18.3076308,14.7817812 18.2574906,14.7580868 18.1987706,14.7296317 L18.1939919,14.727713 C18.0017574,14.6299484 17.3601436,14.3158569 16.8281298,14.0643751 C16.4798268,13.8997268 16.1776286,13.7608725 16.0760057,13.7244169 C15.9612443,13.6832005 15.8652719,13.6515778 15.8009762,13.6588183 C15.7588005,13.6635789 15.7132939,13.6985323 15.6554971,13.7861962 L15.6554971,13.7871556 C15.5715077,13.9132848 15.4279289,14.0971022 15.2721684,14.287905 C15.0203629,14.5963675 14.7497868,14.9088659 14.637488,15.0364245 L14.6370173,15.0360082 C14.5040822,15.1872073 14.3642325,15.2725365 14.191529,15.2934073 C14.0350261,15.312323 13.8682601,15.2719393 13.6680808,15.1735774 L13.6661801,15.172618 C13.6318784,15.1554038 13.5559438,15.1226406 13.4619806,15.0820939 C13.0038758,14.884447 12.1116128,14.4994548 11.0843346,13.5899422 C10.7153783,13.2633606 10.3932864,12.9096249 10.1257507,12.579156 C9.6918836,12.0432525 9.3992036,11.5667192 9.28295992,11.3660158 C9.00606612,10.8911652 9.24132718,10.655887 9.45855946,10.438618 L9.45859566,10.4385818 L9.45955502,10.4385818 C9.54689341,10.3514246 9.64932789,10.2282821 9.75210629,10.1047598 C9.81321571,10.0313235 9.87452468,9.95761541 9.92131594,9.9036738 L9.92124354,9.9036014 C10.0344123,9.7719876 10.0848238,9.66904645 10.1528481,9.53008324 C10.1671481,9.50083174 10.1822806,9.47000553 10.1999295,9.43478071 L10.1995313,9.43458159 C10.2285837,9.37604228 10.2362586,9.32278849 10.2312626,9.27445838 C10.225434,9.21810941 10.2033144,9.1618147 10.1760902,9.10881424 L10.1741715,9.10595425 C10.1202841,8.99738322 9.82871035,8.29317264 9.5599784,7.64411977 C9.45091863,7.3806931 9.34625748,7.12794506 9.19824415,6.77529678 C9.03538759,6.38700804 8.90326713,6.39560621 8.80193656,6.40217724 C8.7703138,6.40424078 8.73999449,6.40621381 8.71738576,6.40621381 C8.62890713,6.40621381 8.52752231,6.39976981 8.42244507,6.39312663 C8.3251692,6.38697224 8.224183,6.38056443 8.11459817,6.38056443 C8.02286116,6.38056443 7.89789058,6.39958879 7.76634943,6.46116902 C7.66503725,6.50857592 7.55881932,6.58183155 7.45864736,6.69190466 L7.45672864,6.69380528 C7.44360528,6.70788799 7.42059866,6.73207117 7.39589048,6.75806459 C7.08925645,7.08039241 6.42079622,7.7830439 6.42079622,9.12660252 C6.42079622,10.5794577 7.4968376,11.9975405 7.65370197,12.2042761 L7.65466133,12.2042761 L7.65623614,12.2063577 L7.65596462,12.2065568 C7.67520618,12.2316451 7.70141671,12.2699292 7.73942899,12.3255541 C8.15371083,12.9314529 10.0582474,15.7169012 12.9199347,16.8346115 C15.5009646,17.841761 15.914252,17.7417334 16.2833876,17.652423 C16.3751062,17.6302129 16.4646529,17.6085458 16.5815504,17.5977394 C16.8642727,17.5711849 17.3502906,17.3612111 17.7762814,17.0637532 C18.1102846,16.8305196 18.3965527,16.5504382 18.4947182,16.2775279 C18.6007729,15.9820258 18.6612492,15.7034129 18.6897403,15.4718451 C18.7226301,15.2045449 18.720114,15.033543 18.6980668,14.9966911 L18.6983202,14.9965463 L18.6983448,14.9965517 Z M18.563292,14.3613471 C18.8329632,14.4886708 19.0127444,14.5735655 19.1166805,14.7447844 L19.1176398,14.7457437 C19.1859897,14.8599442 19.2225906,15.1555364 19.1763603,15.5312288 C19.1445384,15.7898587 19.0758987,16.1040748 18.954512,16.4422955 C18.8184633,16.8205741 18.4631005,17.1798449 18.0560063,17.4641253 C17.565266,17.8067989 16.9820982,18.0508564 16.6256338,18.084346 C16.5464591,18.0916589 16.4733125,18.10938 16.3983552,18.1275173 C15.9581525,18.2340249 15.4653299,18.3532934 12.7418081,17.2905564 C9.73967017,16.1180001 7.7647966,13.2297012 7.33523338,12.601407 C7.29874138,12.5480268 7.27405131,12.5119146 7.26735384,12.5032806 L7.26543512,12.5013618 L7.26386031,12.4992802 L7.26447575,12.4988277 C7.0935461,12.2735582 5.93036541,10.7396093 5.93036541,9.12659318 C5.93036541,7.58887824 6.69208035,6.78821157 7.04150564,6.42090123 C7.05902757,6.40249231 7.07517382,6.38553153 7.09667805,6.36245249 L7.09658754,6.36238009 C7.24344226,6.20102606 7.40390938,6.09140537 7.55945191,6.01862055 C7.76917237,5.92043986 7.96835766,5.89012032 8.11459674,5.89012032 C8.22457973,5.89012032 8.34097007,5.89748749 8.45310709,5.90460128 C8.54278019,5.91028505 8.62932226,5.9157697 8.71738433,5.9157697 C8.73872561,5.9157697 8.75469086,5.91471983 8.77127168,5.91365186 C9.02363858,5.89725218 9.3526464,5.87585659 9.65033835,6.58562427 C9.68194304,6.66092542 9.84309789,7.05013462 10.0120726,7.45828174 C10.2764041,8.09670933 10.563199,8.7893714 10.612868,8.88945416 L10.612506,8.88963517 C10.6633161,8.98911931 10.7049667,9.10018827 10.7178549,9.22463379 C10.7317023,9.35832896 10.7126599,9.50105678 10.6382278,9.65106137 L10.6372685,9.65200263 C10.6217377,9.68299188 10.6062792,9.7145424 10.5915449,9.74464447 C10.5068856,9.917547 10.444183,10.045667 10.2928934,10.2215916 L10.291934,10.222551 C10.2297929,10.2941413 10.1786747,10.3555946 10.1275933,10.4169937 C10.0154205,10.5518112 9.90362735,10.6861762 9.80484896,10.7848277 L9.80533769,10.7853165 L9.80530149,10.7853527 C9.71597229,10.8746819 9.61923942,10.9714874 9.70630609,11.1208037 C9.81661459,11.3112465 10.0942325,11.7633049 10.5050371,12.2707347 C10.7588518,12.5842474 11.0627705,12.9183761 11.4080854,13.2240359 C12.3734923,14.0787761 13.220559,14.444275 13.6554739,14.6319118 C13.7414367,14.6690011 13.8111442,14.6991035 13.8826436,14.7348713 C13.9945088,14.7898267 14.0752946,14.8139012 14.1340688,14.8068055 C14.1764075,14.801701 14.2195971,14.7706394 14.2696647,14.7136207 L14.2696647,14.7126614 C14.3869603,14.5794186 14.6621888,14.2620866 14.8928693,13.9794889 C15.0385295,13.8010655 15.1717907,13.6306609 15.2474532,13.5170384 L15.2479057,13.517328 C15.3985439,13.2891625 15.5610382,13.1932264 15.7473172,13.1722107 C15.9116216,13.1536932 16.0648662,13.2014622 16.2407563,13.2646356 C16.3657995,13.3095084 16.6815747,13.4538291 17.0369356,13.6218264 C17.5868667,13.8817776 18.2302184,14.1963413 18.4161908,14.2909206 L18.4160279,14.2912284 C18.4648831,14.3148866 18.5157111,14.3388707 18.5632812,14.3613341 L18.563292,14.3613471 Z" id="_264862888"></path>
                        <path d="M23.7677701,11.9566897 C23.7677701,15.057223 22.5005793,17.8655172 20.4514897,19.8986207 C18.4032506,21.930823 15.5744322,23.1881471 12.4497885,23.1881471 C11.4728506,23.1881471 10.5258299,23.0653848 9.62223908,22.8342326 C8.72537931,22.6047641 7.87107586,22.2680809 7.07261609,21.8383614 L1.04158161,23.7576671 L0.580997701,23.9042326 L0.736016092,23.4463632 L2.69686207,17.6546851 C2.20185057,16.8210713 1.81135402,15.9178943 1.54441609,14.964 C1.27577655,14.003931 1.13179954,12.9937563 1.13179954,11.952777 C1.13179954,8.85164598 2.39922483,6.04307586 4.44891218,4.00988046 C6.49769379,1.97758621 9.32739494,0.720317241 12.4534179,0.720317241 C15.5767605,0.720317241 18.4050501,1.97802299 20.4529122,4.0114023 C22.5009903,6.04505287 23.7677811,8.85416092 23.7677811,11.9566897 L23.7677701,11.9566897 Z M20.1066621,19.5518621 C22.0657885,17.608046 23.2773379,14.9223908 23.2773379,11.9566897 C23.2773379,8.98894713 22.0661885,6.30243678 20.1080736,4.35811494 C18.1496506,2.41350345 15.4433379,1.21071724 12.4534069,1.21071724 C9.46072184,1.21071724 6.75303908,2.41307126 4.79372874,4.3565931 C2.8340046,6.30055172 1.62222069,8.98647816 1.62222069,11.952777 C1.62222069,12.9519816 1.75950023,13.918331 2.01565011,14.8337425 C2.2811223,15.7824276 2.67388,16.6779632 3.17356276,17.5001931 L3.23289839,17.5978129 L3.19655122,17.705171 L1.35462938,23.1455389 L7.0247903,21.3410837 L7.12519766,21.309117 L7.21637329,21.3592935 C8.00412041,21.792636 8.85101697,22.1309303 9.74290202,22.3591326 C10.6073066,22.5802567 11.5138675,22.6976972 12.4497526,22.6976972 C15.4410446,22.6976972 18.1478675,21.495288 20.1066262,19.5518581 L20.1066621,19.5518621 Z" id="_264862336"></path>
                    </g>
                </g>
                <rect id="Rectangle-path" x="0" y="0" width="28" height="28"></rect>
            </g>
        </g>
    </g>
</svg>