<?xml version="1.0" encoding="UTF-8" standalone="no"?>
<svg width="25px" height="25px" viewBox="0 0 25 25" version="1.1" xmlns="http://www.w3.org/2000/svg" xmlns:xlink="http://www.w3.org/1999/xlink">
    <!-- Generator: Sketch 39.1 (31720) - http://www.bohemiancoding.com/sketch -->
    <title>Icon_Ig</title>
    <desc>Created with Sketch.</desc>
    <defs></defs>
    <g id="Symbols" stroke="none" stroke-width="1" fill="none" fill-rule="evenodd">
        <g id="Icon_Ig" fill="#000000">
            <path d="M18.8700417,6.82379167 C18.40525,6.82379167 18.0276667,6.44620833 18.0276667,5.98141667 C18.0276667,5.516625 18.40525,5.13904167 18.8700417,5.13904167 C19.3348333,5.13904167 19.7124167,5.516625 19.7124167,5.98141667 C19.7124167,6.44620833 19.3348333,6.82379167 18.8700417,6.82379167 L18.8700417,6.82379167 Z M12.3255833,18.0525833 C11.6509167,18.0315 10.9935,17.8887083 10.36675,17.629 C10.0629583,17.5025 9.91825,17.1536667 10.0437917,16.8489167 C10.1357917,16.6265833 10.3533333,16.4809167 10.593875,16.4809167 C10.6724583,16.4809167 10.749125,16.4972083 10.8219583,16.5269167 C11.3576667,16.7511667 11.9230833,16.8652083 12.5009583,16.8652083 C14.2700417,16.8652083 15.85225,15.8100833 16.5326667,14.1799583 C16.982125,13.10375 16.9859583,11.916375 16.54225,10.83825 C16.0995,9.75820833 15.262875,8.91679167 14.1866667,8.46733333 C13.65,8.24308333 13.083625,8.13 12.5047917,8.13 C10.737625,8.13 9.15541667,9.18320833 8.47404167,10.8142917 C8.13766667,11.62025 8.05045833,12.497125 8.22104167,13.351 C8.24979167,13.4937917 8.28429167,13.63275 8.3255,13.77075 C8.431875,14.0917917 8.26225,14.4300833 7.95079167,14.532625 C7.891375,14.55275 7.828125,14.5623333 7.764875,14.5623333 C7.50708333,14.5623333 7.27995833,14.3984583 7.19945833,14.1540833 C7.13525,13.94325 7.08925,13.7640417 7.05475,13.5829167 C6.76629167,12.12625 7.06145833,10.6465833 7.885625,9.41320833 C8.70979167,8.18079167 9.96616667,7.34416667 11.4209167,7.05475 C11.7793333,6.98383333 12.1444583,6.94741667 12.50575,6.94741667 C15.1440417,6.94741667 17.4315833,8.828625 17.94525,11.421875 C18.5413333,14.4243333 16.5825,17.3520417 13.5800417,17.9471667 C13.2235417,18.0180833 12.8612917,18.0525833 12.50575,18.0525833 L12.3255833,18.0525833 Z M12.5,2.18929167 C9.28191667,2.18929167 8.89954167,2.20175 7.624,2.26116667 C6.821875,2.27075 6.02070833,2.41929167 5.255,2.702 C4.08295833,3.15625 3.15625,4.08295833 2.70679167,5.246375 C2.41929167,6.016875 2.27075,6.81995833 2.26116667,7.63741667 C2.20175,8.880375 2.18929167,9.259875 2.18929167,12.5 C2.18929167,14.05825 2.19216667,14.9533333 2.20175,15.6069167 C2.21229167,16.303625 2.22954167,16.7214583 2.26020833,17.3779167 C2.26979167,18.1800417 2.41833333,18.983125 2.702,19.747875 C3.15529167,20.9189583 4.08104167,21.84375 5.24541667,22.295125 C6.016875,22.5816667 6.81995833,22.7311667 7.638375,22.74075 C8.90720833,22.79825 9.28958333,22.8116667 12.5,22.8116667 C15.7152083,22.8116667 16.0985417,22.79825 17.3769583,22.7397917 C18.178125,22.7302083 18.9792917,22.5807083 19.7459583,22.298 C20.918,21.84375 21.8447083,20.9170417 22.2941667,19.7526667 C22.5807083,18.9821667 22.7302083,18.1790833 22.7397917,17.3625833 C22.79825,16.0918333 22.8107083,15.7085 22.8107083,12.4990417 C22.8107083,9.28479167 22.79825,8.90145833 22.7388333,7.62208333 C22.72925,6.82091667 22.57975,6.01975 22.2970417,5.25404167 C21.8447083,4.08391667 20.918,3.15720833 19.7526667,2.704875 C18.9821667,2.41833333 18.1790833,2.26979167 17.3606667,2.26020833 C16.1177083,2.20175 15.7391667,2.18929167 12.5,2.18929167 L12.5,2.18929167 Z M12.5,24 C9.25220833,24 8.87079167,23.9885 7.60291667,23.9290833 C6.64266667,23.9147083 5.71308333,23.7393333 4.826625,23.4087083 C3.343125,22.8375417 2.1615,21.6549583 1.58841667,20.1685833 C1.25683333,19.2840417 1.08145833,18.3554167 1.069,17.4095417 C1.03833333,16.76075 1.01916667,16.3342917 1.0115,15.625125 C1.002875,14.9677083 1,14.0687917 1,12.5 C1,9.24933333 1.01245833,8.868875 1.07091667,7.60291667 C1.08529167,6.64266667 1.26066667,5.71308333 1.59225,4.826625 C2.16341667,3.34408333 3.34504167,2.16341667 4.83333333,1.58745833 C5.71308333,1.25779167 6.64170833,1.08241667 7.59045833,1.06995833 C8.87175,1.0115 9.254125,1 12.5,1 C15.7525833,1 16.1330417,1.0115 17.396125,1.07091667 C18.3582917,1.08529167 19.2869167,1.26066667 20.1743333,1.59129167 C21.656875,2.164375 22.8385,3.346 23.4125417,4.83333333 C23.744125,5.71691667 23.9195,6.64554167 23.931,7.59045833 C23.9885,8.87366667 24,9.25604167 24,12.5 C24,15.7468333 23.9885,16.12825 23.9300417,17.3970833 C23.9156667,18.3573333 23.7402917,19.2869167 23.4087083,20.1743333 C22.835625,21.6559167 21.6549583,22.8385 20.167625,23.4125417 C19.2840417,23.7422083 18.3554167,23.9175833 17.4105,23.9300417 C16.1263333,23.9885 15.7439583,24 12.5,24 L12.5,24 Z" id="Fill-1"></path>
        </g>
    </g>
</svg>