<?xml version="1.0" encoding="UTF-8"?>
<svg width="21px" height="23px" viewBox="0 0 21 23" version="1.1" xmlns="http://www.w3.org/2000/svg" xmlns:xlink="http://www.w3.org/1999/xlink">
    <!-- Generator: Sketch 44 (41411) - http://www.bohemiancoding.com/sketch -->
    <title>1496312028_phone1 copy</title>
    <desc>Created with Sketch.</desc>
    <defs></defs>
    <g id="Symbols" stroke="none" stroke-width="1" fill="none" fill-rule="evenodd">
        <g id="1280px_Footer" transform="translate(-649.000000, -86.000000)">
            <g id="1496312028_phone1" transform="translate(649.000000, 86.000000)">
                <g stroke-width="1" fill-rule="evenodd">
                    <rect id="Rectangle-path" x="0" y="0" width="21" height="21"></rect>
                    <path d="M12.69114,14.80584 C12.69114,14.80584 14.39172,13.83228 14.83692,13.59834 C15.28086,13.36356 15.74076,13.30434 16.02006,13.47486 C16.443,13.73358 19.99452,16.09608 20.29356,16.30524 C20.5926,16.51482 20.73666,17.11332 20.32548,17.69964 C19.91598,18.28596 18.02682,20.60436 17.2263,20.57958 C16.42452,20.55354 13.09098,20.48046 6.80484,14.19264 C0.51996,7.90692 0.44562,4.57254 0.42,3.77076 C0.39438,2.9694 2.71278,1.07982 3.2991,0.6699 C3.88626,0.2604 4.4856,0.41454 4.69392,0.70266 C4.9308,1.03068 7.266,4.57086 7.52304,4.97658 C7.69902,5.25378 7.63434,5.7162 7.39956,6.16056 C7.16604,6.60576 6.19248,8.30634 6.19248,8.30634 C6.19248,8.30634 6.87876,9.47688 9.19968,11.79738 C11.52102,14.1183 12.69114,14.80584 12.69114,14.80584 Z" id="Shape" stroke="#000000" stroke-width="0.8"></path>
                </g>
                <path d="M0.85250522,18.8309325 C1.9331745,21.1906368 3.16373198,21.7805628 4.54417765,20.6007107 C6.61484614,18.8309325 6.00488085,18 4.61494453,18 C3.2250082,18 3.96919672,21.9789178 6.4548835,21.9789178 C8.94057029,21.9789178 10.4051742,18.7091446 8.53071208,18.7091446 C6.65625,18.7091446 6.9664691,22.1816406 10.2239572,22.1816406 C12.3956159,22.1816406 13.4814453,21.2394547 13.4814453,19.3550828" id="Path-2" stroke="#000000" stroke-width="0.8"></path>
            </g>
        </g>
    </g>
</svg>