<?xml version="1.0" encoding="UTF-8"?>
<svg width="25px" height="25px" viewBox="0 0 25 25" version="1.1" xmlns="http://www.w3.org/2000/svg" xmlns:xlink="http://www.w3.org/1999/xlink">
    <!-- Generator: Sketch 44 (41411) - http://www.bohemiancoding.com/sketch -->
    <title>Icon/Wishlist</title>
    <desc>Created with Sketch.</desc>
    <defs></defs>
    <g id="Symbols" stroke="none" stroke-width="1" fill="none" fill-rule="evenodd">
        <g id="Icon/Wishlist" fill="#000000">
            <path d="M12.4999065,18.8101499 C12.5688201,18.8101499 12.6373891,18.8266891 12.7004451,18.8597677 L18.6221914,21.9729399 L17.4913191,15.3789413 C17.4671994,15.2390467 17.5137161,15.0967401 17.6150191,14.9978491 L22.4062377,10.3275738 L15.7853628,9.36553987 C15.644779,9.34521036 15.5234911,9.25734551 15.4607797,9.1301999 L12.4999065,3.13058117 L9.53903331,9.1301999 C9.47632193,9.25734551 9.35503398,9.34521036 9.21479479,9.36553987 L2.59391988,10.3275738 L7.38479392,14.9978491 C7.48644149,15.0967401 7.53261361,15.2390467 7.50883842,15.3789413 L6.37762154,21.9729399 L12.2993679,18.8597677 C12.3624238,18.8266891 12.4309929,18.8101499 12.4999065,18.8101499 M19.1941744,23.190988 C19.1256054,23.190988 19.0566917,23.1747933 18.9939804,23.1413702 L12.4999065,19.72739 L6.00617719,23.1413702 C5.86111404,23.2178643 5.68538434,23.2051152 5.55238108,23.1086362 C5.42006695,23.0121571 5.35356532,22.8491765 5.38113076,22.6872295 L6.62123114,15.4564691 L1.36760222,10.3354989 C1.25044909,10.2211023 1.20806722,10.049852 1.25871872,9.89410725 C1.30937022,9.73801792 1.44444089,9.62431047 1.60638787,9.60087984 L8.86678107,8.5458125 L12.1136457,1.96663032 C12.1863496,1.81949977 12.3358921,1.7264664 12.4999065,1.7264664 C12.6639209,1.7264664 12.8134634,1.81949977 12.8861673,1.96663032 L16.1330319,8.5458125 L23.3934251,9.60087984 C23.5557167,9.62431047 23.6907873,9.73801792 23.7414388,9.89410725 C23.7917458,10.049852 23.7497085,10.2211023 23.6322108,10.3354989 L18.3785818,15.4564691 L19.6186822,22.6872295 C19.6465922,22.8491765 19.5800906,23.0121571 19.4474319,23.1086362 C19.3723161,23.1630779 19.2834175,23.190988 19.1941744,23.190988" id="Page-1"></path>
        </g>
    </g>
</svg>