<?xml version="1.0" encoding="UTF-8"?>
<svg width="23px" height="17px" viewBox="0 0 23 17" version="1.1" xmlns="http://www.w3.org/2000/svg" xmlns:xlink="http://www.w3.org/1999/xlink">
    <!-- Generator: Sketch 44 (41411) - http://www.bohemiancoding.com/sketch -->
    <title>Icon_Email</title>
    <desc>Created with Sketch.</desc>
    <defs>
        <polygon id="path-1" points="22.801 16.573 22.801 0.0002 0 0.0002 0 16.573 22.801 16.573"></polygon>
    </defs>
    <g id="Symbols" stroke="none" stroke-width="1" fill="none" fill-rule="evenodd">
        <g id="1280px_Footer" transform="translate(-648.000000, -120.000000)">
            <g id="Icon_Email" transform="translate(647.000000, 116.000000)">
                <g id="Page-1" transform="translate(1.000000, 4.000000)">
                    <mask id="mask-2" fill="white">
                        <use xlink:href="#path-1"></use>
                    </mask>
                    <g id="Clip-2"></g>
                    <path d="M16.1016,11.705 C15.9016,11.705 15.7766,11.581 15.7766,11.381 C15.7766,11.181 15.9016,11.056 16.1016,11.056 L19.9966,11.056 C20.1526,11.056 20.3216,11.181 20.3216,11.381 C20.3216,11.581 20.1966,11.705 19.9966,11.705 L16.1016,11.705 Z M16.1016,13.403 C15.9016,13.403 15.7766,13.278 15.7766,13.078 C15.7766,12.878 15.9016,12.754 16.1016,12.754 L19.9966,12.754 C20.1526,12.754 20.3216,12.878 20.3216,13.078 C20.3216,13.278 20.1966,13.403 19.9966,13.403 L16.1016,13.403 Z M3.2446,0.953 C2.8086,0.953 2.3906,1.078 2.0356,1.315 L1.9216,1.391 L11.4286,9.019 L20.9356,1.391 L20.8226,1.315 C20.4606,1.074 20.0356,0.953 19.5556,0.953 L3.2446,0.953 Z M1.1916,2.226 C1.0806,2.503 0.9546,2.868 0.9546,3.243 L0.9546,13.388 C0.9546,14.65 1.9816,15.678 3.2446,15.678 L19.6136,15.678 C20.8756,15.678 21.9036,14.65 21.9036,13.388 L21.9036,3.301 C21.9036,2.836 21.8266,2.49 21.6596,2.212 L21.6006,2.114 L11.7116,10.024 C11.6226,10.067 11.5206,10.118 11.4286,10.118 C11.3366,10.118 11.2356,10.067 11.1276,10.013 L1.2416,2.101 L1.1916,2.226 Z M3.2446,16.573 C1.4556,16.573 -0.0004,15.118 -0.0004,13.33 L-0.0004,3.243 C-0.0004,1.455 1.4556,0 3.2446,0 L19.6136,0 C20.4936,0 21.3126,0.346 21.9206,0.973 C22.5136,1.585 22.8266,2.39 22.7996,3.24 L22.7996,13.33 C22.7996,15.118 21.3446,16.573 19.5556,16.573 L3.2446,16.573 Z" id="Fill-1" fill="#000000" mask="url(#mask-2)"></path>
                </g>
            </g>
        </g>
    </g>
</svg>