<?xml version="1.0" encoding="UTF-8"?>
<svg width="14px" height="14px" viewBox="0 0 14 14" version="1.1" xmlns="http://www.w3.org/2000/svg" xmlns:xlink="http://www.w3.org/1999/xlink">
    <!-- Generator: Sketch 46.1 (44463) - http://www.bohemiancoding.com/sketch -->
    <title>Icon/Button/Link/White</title>
    <desc>Created with Sketch.</desc>
    <defs></defs>
    <g id="Symbols" stroke="none" stroke-width="1" fill="none" fill-rule="evenodd">
        <g id="Icon/Button/Link/White" fill="#FFFFFF">
            <path d="M8.14674093,1.08116783 C8.08043498,1.02172977 7.99579304,0.993689217 7.91003982,1.00119303 C7.82373097,1.00909177 7.74557145,1.05233741 7.68982259,1.12303119 C7.57480586,1.26856559 7.5922158,1.48696593 7.72890235,1.60979144 L12.8148276,6.17842639 L0.305785233,6.17842639 C0.136871767,6.17842639 0,6.32435573 0,6.50424968 C0,6.68414363 0.136871767,6.83007297 0.305785233,6.83007297 L12.8053817,6.83007297 L7.72890235,11.3902168 C7.5922158,11.5130423 7.57480586,11.7314426 7.68982259,11.8771745 C7.75168345,11.9551746 7.84206697,12 7.93800685,12 C8.01412904,12 8.08821389,11.9711696 8.14674093,11.9188404 L13.8849833,6.76411844 C13.9581421,6.69816391 14,6.6017992 14,6.49990537 C14,6.39801154 13.9581421,6.30164684 13.8847981,6.2356923 L8.14674093,1.08116783 Z" id="Fill-1-Copy"></path>
        </g>
    </g>
</svg>