<?xml version="1.0" encoding="UTF-8" standalone="no"?>
<svg width="25px" height="25px" viewBox="0 0 25 25" version="1.1" xmlns="http://www.w3.org/2000/svg" xmlns:xlink="http://www.w3.org/1999/xlink">
    <!-- Generator: Sketch 39.1 (31720) - http://www.bohemiancoding.com/sketch -->
    <title>Icon_Twitter</title>
    <desc>Created with Sketch.</desc>
    <defs></defs>
    <g id="Symbols" stroke="none" stroke-width="1" fill="none" fill-rule="evenodd">
        <g id="Icon_Twitter" fill="#000000">
            <path d="M8.73670105,22.6631964 C5.46277931,22.6631964 2.99141791,21.7819721 1.17746298,19.9680172 C0.940534435,19.7245333 0.940534435,19.3377685 1.17933594,19.0905387 C1.29920492,18.9659873 1.46121535,18.8976246 1.63539998,18.8976246 C1.80021984,18.8976246 1.95661141,18.9603685 2.07648039,19.0746186 C2.12143126,19.120506 2.15701737,19.1682663 2.19073052,19.2104077 C2.23474492,19.2665963 2.27501341,19.3181025 2.32277371,19.3611804 C3.80989834,20.7490385 5.82613218,21.3952073 8.67021122,21.3952073 C16.1835619,21.3952073 20.6739666,15.1854318 20.6739666,9.18168118 C20.6739666,9.03090847 20.6711572,8.88200871 20.6655383,8.73310895 C21.4652892,8.12908163 22.1479806,7.39862998 22.6976923,6.56048354 C22.7473255,6.48556542 22.7417067,6.38629892 22.6827086,6.31887261 C22.6433766,6.27204879 22.587188,6.2477004 22.5291265,6.2477004 C22.5010322,6.2477004 22.4729379,6.25331926 22.4457801,6.26549345 L21.9869066,6.47994656 C21.6226173,6.65132176 21.2302336,6.83768057 20.8397229,6.97815205 C21.4418773,6.38442596 21.9007508,5.64835546 22.1629642,4.84111274 C22.1891855,4.76057576 22.1620277,4.6716105 22.0946014,4.61916782 C22.0580788,4.59107352 22.0140644,4.5760899 21.9709865,4.5760899 C21.932591,4.5760899 21.8951319,4.58732762 21.8614188,4.6079301 C21.0813339,5.10332615 20.1851259,5.41517282 19.2636331,5.51350285 C18.5069601,4.7193708 17.4524876,4.26611619 16.3530642,4.26611619 C14.8219252,4.26705266 13.6063787,4.74278271 12.8347221,5.60527754 C12.0508913,6.47994656 11.722188,7.71328607 11.8523583,9.27345587 C8.71984447,9.09552534 5.82332275,7.58967118 3.87638817,5.11643682 C3.83799263,5.06867652 3.77899462,5.03964575 3.71812365,5.03964575 C3.71063183,5.03964575 3.70314002,5.04058223 3.69564821,5.04058223 C3.62634895,5.04901052 3.56547798,5.09115196 3.53551073,5.15483236 C3.19650625,5.85438028 3.04479706,6.6335287 3.09630327,7.4098677 C3.03449582,8.56360671 3.50367053,9.70329857 4.34556288,10.4993036 C4.01311373,10.441242 3.69283878,10.3223095 3.4015946,10.1490614 C3.3697544,10.1303318 3.33323182,10.1200306 3.29764571,10.1200306 C3.26299608,10.1200306 3.22740998,10.1293954 3.19650625,10.1481249 C3.13282585,10.1846475 3.09443032,10.2520738 3.09536679,10.3260554 C3.1150328,11.7410714 4.1498393,13.8575082 6.05650539,14.5495643 C5.92165278,14.5748492 5.76245178,14.5907693 5.59014011,14.5907693 C5.18183637,14.5907693 4.83159417,14.501804 4.69674156,14.362269 C4.65834602,14.322937 4.60496686,14.301398 4.5515877,14.301398 C4.52630284,14.301398 4.5000815,14.3060804 4.47573311,14.3163817 C4.39987852,14.3472854 4.34930879,14.421267 4.34930879,14.503677 C4.34930879,14.7228125 4.38208546,14.9428844 4.44670234,15.1554646 C4.94771725,16.5451957 6.21196049,17.2157128 8.31341368,17.2157128 C8.66365588,17.2157128 8.94834473,17.4985287 8.94834473,17.8487709 C8.94834473,18.1980766 8.66365588,18.481829 8.31341368,18.481829 C8.19260822,18.4893208 8.08023104,18.4921302 7.96972682,18.4921302 C7.146564,18.4921302 6.34400367,18.3291833 5.58545773,18.0070354 C4.32776983,17.4957193 3.39972165,16.4019148 3.10098565,15.07961 C3.07663726,14.9606775 3.04198763,14.4634085 3.20587102,14.2995251 C3.27891618,14.2255434 3.28453504,14.1094204 3.21991816,14.0279469 C2.37240696,12.9809662 1.87888386,11.6624073 1.82737765,10.3148177 C1.81707641,9.93929064 1.95380198,9.57968368 2.21039653,9.30342312 C2.26564864,9.2444251 2.27969579,9.15826927 2.24785559,9.08428763 C1.70376276,7.84251983 1.67473199,6.40502845 2.17012804,5.14265816 C2.50819605,4.31387649 3.07101841,3.83627349 3.71531422,3.83627349 L3.71625069,3.83627349 C4.17137826,3.83627349 4.58436438,4.01794992 4.87467209,4.33447897 C6.26065726,6.09037235 8.23568614,7.34337787 10.4298505,7.85188459 C10.4438977,7.85656697 10.4598178,7.85843993 10.4748014,7.85843993 C10.5150699,7.85843993 10.5553384,7.84626573 10.589988,7.82285382 C10.6358753,7.79101362 10.6677155,7.74044389 10.6752073,7.6842553 C11.1387632,4.46558568 13.893877,3 16.2575436,3 C17.4890101,3.00280943 18.6661611,3.39144716 19.6588261,4.12283529 C19.6934758,4.14812015 19.7365537,4.1621673 19.7786951,4.1621673 C19.8002341,4.1621673 19.821773,4.15842139 19.843312,4.15092958 C20.3199785,3.99360153 20.7807249,3.78102138 21.2115041,3.51974444 C21.4390679,3.38770126 21.7022178,3.31652905 21.9672406,3.31652905 C22.2968803,3.31652905 22.6218377,3.42609679 22.8831146,3.62556628 C23.326068,3.97674496 23.5311563,4.56204275 23.402859,5.1173733 C23.385066,5.19229142 23.4103509,5.26908249 23.4684124,5.31871574 C23.5339658,5.37303138 23.5920273,5.43015644 23.6463429,5.49477332 C24.0724397,5.9967247 24.1183271,6.70470092 23.7577836,7.25628556 C23.2661335,8.00640321 22.6761533,8.68628513 22.0037632,9.27720178 C21.9625582,9.31372436 21.9372734,9.36616704 21.9354004,9.42141916 C21.8136585,12.6766114 20.5625259,15.8156805 18.4114395,18.2626935 C16.0674389,21.0627582 12.6333796,22.6660059 8.98767674,22.6660059 L8.73670105,22.6631964 Z" id="Fill-1"></path>
        </g>
    </g>
</svg>