<?xml version="1.0" encoding="UTF-8"?>
<svg width="25px" height="25px" viewBox="0 0 25 25" version="1.1" xmlns="http://www.w3.org/2000/svg" xmlns:xlink="http://www.w3.org/1999/xlink">
    <!-- Generator: Sketch 46.1 (44463) - http://www.bohemiancoding.com/sketch -->
    <title>Icon/Member/Wishlist Copy</title>
    <desc>Created with Sketch.</desc>
    <defs></defs>
    <g id="Symbols" stroke="none" stroke-width="1" fill="none" fill-rule="evenodd">
        <g id="Icon/Member/Wishlist-Copy" fill="#000000">
            <path d="M19.1941744,23.190988 C19.1256054,23.190988 19.0566917,23.1747933 18.9939804,23.1413702 L12.4999065,19.72739 L6.00617719,23.1413702 C5.86111404,23.2178643 5.68538434,23.2051152 5.55238108,23.1086362 C5.42006695,23.0121571 5.35356532,22.8491765 5.38113076,22.6872295 L6.62123114,15.4564691 L1.36760222,10.3354989 C1.25044909,10.2211023 1.20806722,10.049852 1.25871872,9.89410725 C1.30937022,9.73801792 1.44444089,9.62431047 1.60638787,9.60087984 L8.86678107,8.5458125 L12.1136457,1.96663032 C12.1863496,1.81949977 12.3358921,1.7264664 12.4999065,1.7264664 C12.6639209,1.7264664 12.8134634,1.81949977 12.8861673,1.96663032 L16.1330319,8.5458125 L23.3934251,9.60087984 C23.5557167,9.62431047 23.6907873,9.73801792 23.7414388,9.89410725 C23.7917458,10.049852 23.7497085,10.2211023 23.6322108,10.3354989 L18.3785818,15.4564691 L19.6186822,22.6872295 C19.6465922,22.8491765 19.5800906,23.0121571 19.4474319,23.1086362 C19.3723161,23.1630779 19.2834175,23.190988 19.1941744,23.190988" id="Page-1"></path>
        </g>
    </g>
</svg>