<?xml version="1.0" encoding="UTF-8" standalone="no"?>
<svg width="16px" height="16px" viewBox="0 0 16 16" version="1.1" xmlns="http://www.w3.org/2000/svg" xmlns:xlink="http://www.w3.org/1999/xlink">
    <!-- Generator: Sketch 40.1 (33804) - http://www.bohemiancoding.com/sketch -->
    <title>Icon_Cross Copy</title>
    <desc>Created with Sketch.</desc>
    <defs></defs>
    <g id="Symbols" stroke="none" stroke-width="1" fill="none" fill-rule="evenodd">
        <g id="Icon_Cross-Copy" fill="#FFFFFF">
            <path d="M14.6639,7.6644 L8.3359,7.6644 L8.3359,1.3364 C8.3359,1.1294 8.2069,1.0004 7.9999,1.0004 C7.7929,1.0004 7.6649,1.1294 7.6649,1.3364 L7.6649,7.6644 L1.3359,7.6644 C1.1289,7.6644 0.9999,7.7934 0.9999,8.0004 C0.9999,8.2074 1.1289,8.3354 1.3359,8.3354 L7.6649,8.3354 L7.6649,14.6644 C7.6649,14.8704 7.7929,15.0004 7.9999,15.0004 C8.2069,15.0004 8.3359,14.8254 8.3359,14.6644 L8.3359,8.3354 L14.6639,8.3354 C14.8709,8.3354 14.9999,8.2074 14.9999,8.0004 C14.9999,7.7934 14.8249,7.6644 14.6639,7.6644" id="Fill-1"></path>
        </g>
    </g>
</svg>