<?xml version="1.0" encoding="UTF-8"?>
<svg width="25px" height="25px" viewBox="0 0 25 25" version="1.1" xmlns="http://www.w3.org/2000/svg" xmlns:xlink="http://www.w3.org/1999/xlink">
    <!-- Generator: Sketch 44 (41411) - http://www.bohemiancoding.com/sketch -->
    <title>Icon_QuickView</title>
    <desc>Created with Sketch.</desc>
    <defs></defs>
    <g id="Symbols" stroke="none" stroke-width="1" fill="none" fill-rule="evenodd">
        <g id="Icon_QuickView" fill="#FFFFFF">
            <path d="M24.01675,9.06943168 C24.01625,9.13940621 23.98725,9.20590683 23.93725,9.25503789 L21.94075,11.1999329 C21.88925,11.2500565 21.82225,11.2753665 21.75475,11.2753665 C21.68625,11.2753665 21.61725,11.249064 21.56575,11.196459 L21.35925,10.987528 C21.30975,10.9379006 21.28225,10.8704075 21.28325,10.8009292 C21.28375,10.7309547 21.31275,10.6639578 21.36275,10.615323 L23.35925,8.67042795 C23.46425,8.56869193 23.63225,8.57067702 23.73425,8.67390186 L23.94075,8.88233665 C23.99025,8.93246025 24.01725,8.99945714 24.01675,9.06943168 L24.01675,9.06943168 Z M17.05775,8.06596708 C17.03175,8.00145155 17.03275,7.92899565 17.06075,7.86448012 L18.16725,5.31462795 C18.19475,5.2506087 18.24725,5.19998882 18.31275,5.17418261 C18.37825,5.1483764 18.45175,5.14986522 18.51575,5.17716025 L18.78625,5.29279193 C18.92025,5.35035963 18.98275,5.50519689 18.92475,5.63869441 L17.81875,8.18854658 C17.77525,8.28829752 17.67775,8.34785031 17.57475,8.34785031 C17.53975,8.34785031 17.50425,8.34090248 17.46975,8.32651056 L17.19925,8.21087888 C17.13475,8.18308758 17.08375,8.13097888 17.05775,8.06596708 L17.05775,8.06596708 Z M12.08725,6.95183354 L12.08725,4.26352112 C12.08725,4.11811304 12.20625,4 12.35275,4 L12.64725,4 C12.79375,4 12.91225,4.11811304 12.91225,4.26352112 L12.91225,6.95183354 C12.91225,7.09724161 12.79375,7.21535466 12.64725,7.21535466 L12.35275,7.21535466 C12.20625,7.21535466 12.08725,7.09724161 12.08725,6.95183354 L12.08725,6.95183354 Z M3.07575,11.1850447 L1.07925,9.24064596 C0.97475,9.13841366 0.97325,8.97166584 1.07575,8.86794472 L1.28225,8.65950994 C1.33125,8.60938634 1.39875,8.58109876 1.46875,8.58060248 C1.53525,8.58109876 1.60725,8.60690497 1.65725,8.65603602 L3.65375,10.6004348 C3.75825,10.7021708 3.75975,10.8689186 3.65725,10.973136 L3.45075,11.1815708 C3.40175,11.2316944 3.33425,11.259982 3.26425,11.2604783 L3.26175,11.2604783 C3.19225,11.2604783 3.12525,11.2331832 3.07575,11.1850447 L3.07575,11.1850447 Z M6.15125,5.65457516 C6.09325,5.52107764 6.15525,5.3657441 6.28975,5.3081764 L6.56025,5.19254472 C6.62425,5.16524969 6.69775,5.16376087 6.76325,5.19006335 C6.82875,5.21537329 6.88125,5.26599317 6.90875,5.3305087 L8.01575,7.8798646 C8.07375,8.01336211 8.01125,8.16869565 7.87725,8.22626335 L7.60675,8.34189503 C7.57325,8.35628696 7.53775,8.36323478 7.50175,8.36323478 C7.46875,8.36323478 7.43475,8.3572795 7.40375,8.3443764 C7.33825,8.31906646 7.28575,8.26844658 7.25825,8.20393106 L6.15125,5.65457516 Z M12.49975,11.1016708 C14.52875,11.1016708 16.17975,12.7403652 16.17975,14.7542422 C16.17975,16.767623 14.52875,18.4063174 12.49975,18.4063174 C10.47075,18.4063174 8.82025,16.767623 8.82025,14.7542422 C8.82025,12.7403652 10.47075,11.1016708 12.49975,11.1016708 L12.49975,11.1016708 Z M12.49975,10.3116037 C10.01575,10.3116037 7.99475,12.3046373 7.99475,14.7542422 C7.99475,17.2356087 10.01575,19.2544484 12.49975,19.2544484 C14.98425,19.2544484 17.00525,17.2490081 17.00525,14.7830261 C17.00525,12.3175404 14.98425,10.3116037 12.49975,10.3116037 L12.49975,10.3116037 Z M22.26825,14.8688814 C21.16975,16.3031112 17.70075,20.1889311 12.38225,20.1889311 C7.56475,20.1889311 4.23575,16.9259342 2.61575,14.8664 C3.93775,13.0947043 7.31825,9.37315093 12.41325,9.31905714 L12.49975,9.31905714 C17.53225,9.31905714 20.93525,13.0798161 22.26825,14.8688814 L22.26825,14.8688814 Z M23.14025,14.6624317 C22.13025,13.2172839 18.39425,8.52899006 12.52175,8.52899006 C12.48475,8.52899006 12.44725,8.52899006 12.41025,8.52948634 C6.48725,8.55926273 2.79175,13.2316758 1.80025,14.6634242 C1.79325,14.6733497 1.78675,14.6837714 1.78125,14.6951857 C1.71475,14.8271944 1.71475,14.9730988 1.78125,15.1056037 C1.78825,15.1194994 1.79675,15.1328988 1.80625,15.1453056 C3.13725,16.916505 6.83475,21.0370621 12.44125,21.0370621 C18.29275,21.0370621 22.10625,16.5264342 23.13575,15.144313 C23.14475,15.1319062 23.15275,15.1190031 23.15975,15.1056037 C23.22625,14.9730988 23.22625,14.8271944 23.15975,14.6951857 C23.15425,14.6837714 23.14775,14.6728534 23.14025,14.6624317 L23.14025,14.6624317 Z" id="Fill-1"></path>
        </g>
    </g>
</svg>