<?xml version="1.0" encoding="UTF-8"?>
<svg width="35px" height="35px" viewBox="0 0 35 35" version="1.1" xmlns="http://www.w3.org/2000/svg" xmlns:xlink="http://www.w3.org/1999/xlink">
    <!-- Generator: Sketch 46.1 (44463) - http://www.bohemiancoding.com/sketch -->
    <title>icon-sports</title>
    <desc>Created with Sketch.</desc>
    <defs></defs>
    <g id="Symbols" stroke="none" stroke-width="1" fill="none" fill-rule="evenodd">
        <g id="icon-sports" fill="#FFFFFF">
            <g id="Group" transform="translate(1.000000, 1.000000)">
                <path d="M29.3825641,22.0385534 C30.7282051,19.1685885 29.9364103,17.5989449 29.4112821,16.5595294 L29.2184615,16.1765869 L29.2225641,16.1302972 L29.2225641,16.1723787 L29.8953846,16.1723787 C30.4779487,16.1723787 31.3394872,17.3338308 31.3394872,19.8292696 C31.3394872,21.8533944 30.7528205,22.1269248 30.174359,22.1269248 L30.014359,22.1227166 C29.9733333,22.1185085 29.9364103,22.1185085 29.8994872,22.1185085 L29.345641,22.1269248 L29.3825641,22.0385534 Z M28.64,22.1185085 L27.1917949,22.1269248 L27.2246154,22.0385534 C28.2584615,19.1349232 27.6512821,17.5736959 27.2492308,16.5426968 C27.2123077,16.441701 27.1138462,16.1765869 27.1097436,16.1765869 L27.1138462,16.1302972 L27.1138462,16.1723787 L28.5169231,16.1723787 L28.5415385,16.2102522 C28.574359,16.2859991 28.6235897,16.3701623 28.6769231,16.4669499 C29.1610256,17.31279 30.1661538,19.076009 28.6646154,22.0764269 L28.64,22.1185085 Z M24.144,21.8113128 L24.1435897,21.8113128 C24.7835897,18.9329315 24.3446154,17.4264104 24.0533333,16.4122439 L23.9794872,16.1765869 L23.9835897,16.1302972 L23.9835897,16.1723787 L26.4041026,16.1723787 C26.4041026,16.1723787 26.4861538,16.3575378 26.5230769,16.4374928 C26.9251282,17.3506635 27.68,19.0549682 26.5107692,22.0680106 L26.4861538,22.1185085 L26.0270769,22.1185085 C25.4527179,22.0048882 24.8250256,21.9038923 24.144,21.8113128 L24.144,21.8113128 Z M29.5675897,24.6223635 C30.2609231,25.2788365 30.2527179,25.8595625 30.2486154,26.1036358 C30.2486154,26.1457174 30.2486154,26.1751745 30.2527179,26.2004234 C30.2609231,26.3939988 30.1870769,27.6438222 30.1173333,28.8515641 C30.0311795,30.3286282 29.9409231,29.8615224 29.9409231,30.4338322 C29.9409231,31.4648313 28.9111795,31.4774558 28.8988718,31.4774558 L23.4629744,31.4774558 C21.4281026,31.4774558 20.1398974,30.8925216 19.6434872,29.7394858 C17.8875897,25.6701953 16.8660513,26.1499255 16.0250256,26.1499255 L15.8978462,26.1499255 C15.0527179,26.1499255 14.0352821,25.6701953 12.2752821,29.7394858 C11.7788718,30.8925216 10.4947692,31.4774558 8.45579487,31.4774558 L3.024,31.4774558 C3.01169231,31.4774558 1.98194872,31.4648313 1.98194872,30.4338322 C1.98194872,29.8615224 1.89169231,30.3328363 1.8014359,28.8515641 C1.73169231,27.6438222 1.65784615,26.3939988 1.67015385,26.2004234 L1.67015385,26.1036358 C1.66605128,25.8595625 1.65784615,25.2788365 2.35528205,24.6223635 C3.11835897,23.9027682 4.71835897,23.0948015 8.04964103,22.606655 C9.94092308,22.3289165 12.3901538,22.1521738 15.5573333,22.1521738 L16.3610256,22.1521738 C19.5282051,22.1521738 21.9774359,22.3289165 23.8687179,22.606655 L23.8691282,22.606655 C27.2045128,23.0948015 28.8045128,23.9027682 29.5675897,24.6223635 L29.5675897,24.6223635 Z M5.43589744,22.1185085 L5.41538462,22.0680106 C4.30769231,19.1265069 5.00923077,17.4222022 5.38666667,16.5090315 L5.42769231,16.4080357 C5.45230769,16.3407051 5.47692308,16.2775827 5.4974359,16.2186685 L5.51794872,16.1723787 L7.93846154,16.1681706 L7.83179487,16.5847784 C7.56923077,17.5863204 7.17538462,19.0928416 7.7825641,21.8113128 L7.7825641,21.8113128 C7.10153846,21.8996842 6.47835897,22.0048882 5.90810256,22.1185085 L5.43589744,22.1185085 Z M3.32307692,22.1185085 L3.29846154,22.0764269 C1.78461538,19.1222987 2.74871795,17.4011614 3.26974359,16.4753663 L3.32307692,16.3743704 C3.36410256,16.3028317 3.40102564,16.2397093 3.42564103,16.1807951 L3.44615385,16.1387135 L3.45025641,16.0966319 L3.45025641,16.1387135 L4.85333333,16.1345053 L4.82871795,16.2186685 L4.70153846,16.546905 C4.30769231,17.5905286 3.71282051,19.1643803 4.7425641,22.0385534 L4.77128205,22.1185085 L3.32307692,22.1185085 Z M2.16615385,22.0848432 L2.05948718,22.0974677 L1.97333333,22.1016758 C1.91589744,22.105884 1.85846154,22.105884 1.80102564,22.105884 C1.57128205,22.105884 1.23487179,22.0638024 0.988717949,21.6976925 C0.742564103,21.3315826 0.623589744,20.708775 0.623589744,19.7956043 C0.623589744,17.2412513 1.63692308,16.1387135 2.15384615,16.1387135 L2.75282051,16.1302972 C2.75282051,16.1302972 2.62153846,16.3912031 2.56820513,16.4921989 C2.00205128,17.5947367 1.2225641,19.1012579 2.58051282,22.0048882 L2.6174359,22.0848432 L2.16615385,22.0848432 Z M23.4994872,21.7313578 C22.5969231,21.6261538 21.6041026,21.5419906 20.5091282,21.4830764 L20.5087179,21.4830764 C20.7671795,18.9160989 20.5620513,17.4053696 20.4348718,16.4753663 L20.3938462,16.1723787 L20.3979487,16.1302972 L20.3979487,16.1723787 L23.3189744,16.1723787 L23.36,16.3238725 C23.3764103,16.3912031 23.3969231,16.4669499 23.4215385,16.5595294 C23.6758974,17.5063654 24.0984615,19.0591763 23.4994872,21.7313578 L23.4994872,21.7313578 Z M19.7292308,16.1345053 L19.7620513,16.3743704 C19.8851282,17.2370432 20.1025641,18.7940623 19.8441026,21.4494111 C18.7569231,21.3989132 17.5753846,21.3736642 16.2957949,21.3736642 L16.2953846,21.3736642 L16.2953846,16.1387135 L16.2994872,16.0966319 L16.2994872,16.1387135 L19.7292308,16.1345053 Z M12.0865641,21.4494111 L12.0861538,21.4494111 L12.0861538,21.4494111 C11.8564103,19.1012579 12.0287179,17.6115694 12.1353846,16.6941906 L12.1517949,16.5342805 C12.1682051,16.4122439 12.1805128,16.3028317 12.1887179,16.1976277 L12.1969231,16.0966319 L12.1969231,16.1387135 L15.6307692,16.1345053 L15.6266667,21.3736642 C14.3507692,21.3736642 13.1737436,21.3989132 12.0865641,21.4494111 L12.0865641,21.4494111 Z M8.46358974,21.7271496 C7.81948718,18.8529765 8.32,17.2412513 8.59076923,16.3575378 L8.64410256,16.1723787 L8.64820513,16.1302972 L8.64820513,16.1723787 L11.5733333,16.1681706 L11.5282051,16.5174478 C11.3928205,17.4853246 11.2,18.9160989 11.4584615,21.4788682 L11.4584615,21.4788682 C10.3630769,21.5377824 9.37066667,21.6219456 8.464,21.7271496 L8.46358974,21.7271496 L8.46358974,21.7271496 Z M3.20820513,15.5790282 C3.53641026,13.6811482 5.15282051,9.69602089 9.12,6.79239066 C9.41538462,6.58198267 9.69435897,6.39261548 9.9774359,6.21166461 C10.1169231,6.12329326 10.2646154,6.0349219 10.3958974,5.97600767 C10.4082051,5.97179951 10.4164103,5.95496687 10.4164103,5.93813423 C11.3247179,5.39654407 12.2781538,4.9336465 13.2504615,4.5570162 L13.4551795,4.6756863 C13.4596923,4.73544217 13.4477949,4.83727964 13.4309744,4.91302651 C13.4309744,4.92733426 13.4272821,4.94374608 13.4227692,4.96226198 C13.4174359,4.98835257 13.4100513,5.0207554 13.4104615,5.06746598 L13.504,5.58254473 L13.5454359,5.62462633 C13.665641,5.74834622 13.8231795,5.76265397 13.9310769,5.76265397 C14.0053333,5.76265397 14.0812308,5.75465846 14.1530256,5.74708378 L14.2075897,5.74119235 C14.2621538,5.72688461 14.3581538,5.71257687 14.4242051,5.71257687 C14.4582564,5.71257687 14.4697436,5.71636421 14.4701538,5.71636421 C14.4931282,5.7319344 14.5493333,5.85270859 14.5739487,5.95117952 C14.6650256,6.18473239 14.7725128,6.41828526 14.9940513,6.485195 C15.0309744,6.49613621 15.0695385,6.50202764 15.1081026,6.50202764 C15.2972308,6.50202764 15.470359,6.37241631 15.6188718,6.24196336 C15.6804103,6.17421199 15.808,6.08668227 15.8334359,6.08289492 C15.8621538,6.08668227 15.9946667,6.17589525 16.0705641,6.25458784 C16.2190769,6.36357918 16.3872821,6.48687826 16.5608205,6.48687826 C16.6075897,6.48687826 16.6358974,6.48687826 16.6785641,6.46457501 C16.9177436,6.39766527 17.0104615,6.1586418 17.0986667,5.93266362 C17.1117949,5.90404813 17.1253333,5.86912041 17.1384615,5.83419268 C17.1565128,5.78664048 17.1868718,5.70752707 17.2028718,5.69574423 C17.2032821,5.69532341 17.2127179,5.69111525 17.2475897,5.69111525 C17.313641,5.69111525 17.4121026,5.70626463 17.4715897,5.72099318 L17.5204103,5.72604298 C17.5917949,5.73361766 17.6668718,5.74161317 17.7411282,5.74161317 C17.8477949,5.74161317 18.0045128,5.72730542 18.128,5.60358553 C18.174359,5.55645414 18.1973333,5.50890193 18.2219487,5.44620035 L18.2334359,5.28923599 L18.2363077,4.95132077 C20.2116923,5.7003732 22.3154872,6.88665344 23.934359,8.26945473 C25.2430769,9.41828234 26.4123077,10.7859343 27.3107692,12.2209167 C27.3107692,12.2209167 27.3928205,12.3639942 27.4297436,12.4229084 C28.094359,13.5128218 28.6071795,14.6532331 28.8410256,15.5453629 L28.8615385,15.6169017 L3.19589744,15.6547751 L3.20820513,15.5790282 Z M13.3046154,2.45041142 C13.3452308,2.42979144 13.3837949,2.41043391 13.3985641,2.39865106 C13.5561026,2.34604906 13.7538462,2.25978179 13.8818462,2.05779012 C13.9688205,1.8781017 13.9478974,1.6752684 13.9257436,1.47285591 C13.9048205,1.38658864 13.8929231,1.25487324 13.8834872,1.24771937 C13.8838974,1.24729855 13.8937436,1.24351121 13.9282051,1.24351121 C13.9922051,1.24351121 14.0898462,1.25781895 14.1526154,1.27296833 L14.2166154,1.28054301 C14.2908718,1.28980096 14.3675897,1.29947973 14.4410256,1.29947973 C14.5591795,1.29947973 14.6473846,1.27507241 14.7179487,1.22289122 C14.8918974,1.09412154 14.9735385,0.892129868 15.0219487,0.736427957 L15.0699487,0.632907227 C15.0916923,0.585775838 15.1241026,0.515078754 15.1097436,0.507504066 C15.1364103,0.515078754 15.2164103,0.574834622 15.2557949,0.603870925 L15.3152821,0.64721497 C15.4834872,0.77682629 15.6570256,0.911066587 15.8551795,0.911066587 C16.0541538,0.911066587 16.2244103,0.779351186 16.3844103,0.642165178 C16.4471795,0.57820115 16.5567179,0.50918733 16.5632821,0.502875091 C16.5817436,0.514657938 16.6211282,0.596296237 16.6424615,0.640061099 C16.6613333,0.680038616 16.6797949,0.717491238 16.6900513,0.730536533 C16.7454359,0.904754347 16.8278974,1.10001296 17.022359,1.22667857 C17.1097436,1.27086425 17.2073846,1.29190504 17.3308718,1.29190504 C17.4141538,1.29190504 17.4990769,1.28222628 17.5881026,1.27170588 C17.6438974,1.25823977 17.7411282,1.24351121 17.8121026,1.22836183 C17.8231795,1.25361079 17.8133333,1.39205925 17.7878974,1.5039963 L17.7805128,1.56796032 C17.7595897,1.74259895 17.7357949,1.94038246 17.8326154,2.0784101 C17.9109744,2.24294915 18.0775385,2.31617113 18.238359,2.38686821 L18.3885128,2.45630285 C18.4352821,2.47860609 18.5017436,2.50932566 18.5255385,2.50932566 C18.5300513,2.50932566 18.5333333,2.50806321 18.5337436,2.50553832 C18.5292308,2.53036646 18.4689231,2.6157921 18.4402051,2.65661125 L18.4008205,2.71384223 C18.2724103,2.86281108 18.1403077,3.04334113 18.1403077,3.25080341 C18.1403077,3.46415711 18.2744615,3.64174145 18.4024615,3.79407683 C18.4648205,3.85804086 18.5321026,3.96997791 18.5382564,3.9775526 C18.526359,3.99733095 18.4430769,4.03857092 18.3979487,4.06087416 C18.3610256,4.07896925 18.3261538,4.09664352 18.3122051,4.10716392 C18.1403077,4.16607816 17.9491282,4.25234543 17.8330256,4.44802486 C17.8194872,4.47579871 17.8067692,4.50315175 17.7973333,4.53555458 C17.7538462,4.69167731 17.7710769,4.8600037 17.7891282,5.02959254 C17.7965128,5.05736639 17.8047179,5.09229412 17.8084103,5.13227164 C17.8170256,5.21601401 17.8162051,5.25809561 17.8268718,5.25935806 C17.8211282,5.26062051 17.8092308,5.26272459 17.7854359,5.26272459 C17.7202051,5.26272459 17.6217436,5.24799603 17.5622564,5.23326747 L17.4994872,5.22527197 C17.4248205,5.21601401 17.3481026,5.20675606 17.2738462,5.20675606 C17.1556923,5.20675606 17.0674872,5.23074257 17.0022564,5.27913641 C16.8418462,5.35909145 16.7708718,5.52952192 16.7019487,5.69406096 L16.6412308,5.83293023 C16.6145641,5.8926861 16.5694359,5.9928403 16.5829744,5.99873173 C16.5608205,5.9953652 16.4841026,5.9372926 16.4434872,5.90657303 L16.382359,5.86196654 C16.225641,5.72309726 16.0533333,5.59474839 15.8551795,5.59474839 C15.6529231,5.59474839 15.4769231,5.72983032 15.3300513,5.86407062 C15.2685128,5.92635138 15.1548718,5.99662765 15.1483077,6.00378152 C15.1310769,5.99115704 15.0941538,5.91246445 15.0724103,5.86533306 C15.0535385,5.82535555 15.0354872,5.78664048 15.0244103,5.77064947 C14.9673846,5.59474839 14.8836923,5.39906896 14.6921026,5.27955723 C14.6092308,5.23705481 14.5013333,5.21180585 14.4028718,5.21180585 C14.3602051,5.21180585 14.3126154,5.21685565 14.2646154,5.22274707 C14.2203077,5.22779686 14.1755897,5.23284665 14.1267692,5.2341091 C14.0701538,5.24799603 13.9733333,5.26272459 13.902359,5.27745315 C13.8908718,5.24967929 13.9035897,5.09818554 13.9269744,5.00181868 L13.934359,4.93532976 C13.9548718,4.76195358 13.9786667,4.5650117 13.8785641,4.42109264 C13.8149744,4.33187965 13.7271795,4.26749481 13.6553846,4.21952178 C13.5946667,4.18543569 13.5318974,4.15387449 13.4699487,4.12231329 L13.3128205,4.04277908 C13.2701538,4.02173828 13.2102564,3.99186034 13.1885128,3.99186034 C13.184,3.99186034 13.1811282,3.99312279 13.1803077,3.9960685 C13.1860513,3.97081954 13.2418462,3.89381022 13.2717949,3.85214944 L13.3148718,3.79113112 C13.4457436,3.62911697 13.5737436,3.45405753 13.5737436,3.25080341 C13.5737436,3.05259909 13.4494359,2.87585638 13.312,2.71173815 C13.2508718,2.64903656 13.1819487,2.53289136 13.1753846,2.52573748 C13.1872821,2.50890485 13.2607179,2.47187304 13.3046154,2.45041142 L13.3046154,2.45041142 Z M31.9220513,19.7956043 C31.9507692,17.9945119 31.4994872,16.5553213 30.7117949,15.9451381 C30.4574359,15.7473546 30.1825641,15.6505669 29.8953846,15.6505669 L29.5671795,15.6505669 L29.5507692,15.600069 C29.5466667,15.5874445 29.1733333,14.1692947 28.0738462,12.2882473 C27.934359,12.0357577 27.5364103,11.3498277 26.8430769,10.4576978 C25.1979487,8.31153633 23.1302564,6.61564795 20.7015385,5.41632242 C20.5948718,5.3658245 20.4923077,5.31532658 20.3651282,5.25641235 L20.2010256,5.18066547 C19.7563077,4.97656972 19.1187692,4.7177679 18.5846154,4.51703868 C18.7634872,4.43413793 18.9329231,4.32514659 18.9878974,4.13788349 C19.0547692,3.90517225 18.9070769,3.68550631 18.7511795,3.49782239 C18.6818462,3.43091265 18.5981538,3.30045969 18.5956923,3.27310666 C18.5993846,3.24449117 18.6847179,3.1136174 18.7511795,3.05049501 L18.7778462,3.01388402 C18.9001026,2.84387436 19.0518974,2.63220393 18.9883077,2.41085472 C18.9234872,2.16467738 18.6953846,2.07167705 18.4705641,1.98035998 C18.4418462,1.96563142 18.4049231,1.95048205 18.368,1.93575349 C18.3236923,1.91807922 18.2498462,1.88778047 18.2387692,1.87431435 C18.2264615,1.84569887 18.2391795,1.6963092 18.2633846,1.59699663 L18.2683077,1.54734034 C18.289641,1.33440746 18.3142564,1.0932799 18.1485128,0.922849434 C18.0254359,0.799550353 17.8687179,0.78524261 17.7612308,0.78524261 C17.6882051,0.78524261 17.6131282,0.793238114 17.5417436,0.800812801 L17.486359,0.807125041 C17.4326154,0.821011968 17.3337436,0.835740527 17.2681026,0.835740527 C17.2594872,0.835740527 17.2393846,0.835319711 17.2369231,0.836161343 C17.2118974,0.763780995 17.1565128,0.629961515 17.12,0.554635456 C17.0289231,0.316874429 16.9152821,0.0871089069 16.6998974,0.016832639 C16.6637949,0.00547060768 16.6260513,0 16.5878974,0 C16.401641,0 16.2260513,0.1317154 16.0767179,0.262589169 C16.0073846,0.333286252 15.8830769,0.419974343 15.8580513,0.422920055 C15.8408205,0.419132711 15.7813333,0.37536785 15.742359,0.346331548 C15.694359,0.310983006 15.6443077,0.274372016 15.6127179,0.258801825 L15.5766154,0.231448786 C15.4350769,0.123299081 15.2738462,0.00126244793 15.0978462,0.00126244793 C15.0625641,0.00126244793 15.0276923,0.00631223963 14.9944615,0.016411823 C14.752,0.0875297229 14.6613333,0.325711565 14.5751795,0.551689744 C14.5612308,0.580726046 14.5464615,0.618178668 14.5321026,0.656052106 C14.5148718,0.701500231 14.4857436,0.777667922 14.4722051,0.788609138 C14.4713846,0.789029954 14.4607179,0.79365893 14.4242051,0.79365893 C14.3581538,0.79365893 14.2621538,0.779351186 14.2018462,0.763780995 L14.1444103,0.757889572 C14.0730256,0.750314884 13.9987692,0.741898565 13.9253333,0.741898565 C13.8190769,0.741898565 13.664,0.756627124 13.5458462,0.880767836 C13.3780513,1.04867341 13.4026667,1.28727607 13.4252308,1.49810487 L13.4322051,1.56080645 C13.4555897,1.65969821 13.4662564,1.80151319 13.4547692,1.82760378 C13.441641,1.85201111 13.3267692,1.91050453 13.2270769,1.93659512 C13.009641,2.02412484 12.7725128,2.13648271 12.7060513,2.36708986 C12.6358974,2.59685538 12.7848205,2.81820459 12.9419487,3.00715096 C13.0075897,3.07448152 13.0937436,3.20198876 13.0982564,3.22850016 C13.0937436,3.25879891 13.0059487,3.39135595 12.9210256,3.48435628 C12.7946667,3.65689083 12.6371282,3.87150697 12.705641,4.09453944 C12.7134359,4.12525901 12.7294359,4.15261204 12.7442051,4.18080672 C11.9068718,4.50104767 11.1003077,4.87683634 10.3261538,5.30691027 C9.49333333,5.76559968 8.70153846,6.29582781 7.96717949,6.88917833 L7.91794872,6.93125993 C7.82358974,7.00700681 7.73333333,7.08275368 7.63897436,7.16270872 C5.25128205,9.19945804 3.9425641,11.5602357 3.26564103,13.1803772 C2.67487179,14.6069433 2.49846154,15.5874445 2.49846154,15.5958609 L2.48615385,15.6505669 L2.15384615,15.6505669 C0.906666667,15.6505669 0,17.3927451 0,19.7956043 C0,22.606655 1.14051282,22.606655 2.14153846,22.606655 L3.95528205,22.606655 C1.59220513,23.3514993 0.656820513,24.3404168 0.656820513,25.3082936 C0.656820513,25.3082936 0.562461538,27.4839122 0.628102564,27.4249979 C0.660923077,27.4249979 0.915282051,27.6564467 1.12041026,27.8542302 C1.13682051,28.1572177 1.15733333,28.5022868 1.18194872,28.8852294 C1.264,30.2865466 1.35835897,29.8783551 1.35835897,30.429624 C1.35835897,31.616325 2.37989744,32.0581818 3.024,32.0581818 L8.45579487,32.0581818 C10.7409231,32.0581818 12.2629744,31.3343783 12.8537436,29.9583101 C14.5070769,26.1330929 15.3809231,26.7348597 15.8937436,26.7348597 L16.0250256,26.7348597 C16.5378462,26.7348597 17.4116923,26.1330929 19.0650256,29.9583101 C19.6598974,31.3343783 21.1778462,32.0581818 23.4629744,32.0581818 L28.8988718,32.0581818 C29.5429744,32.0581818 30.5645128,31.616325 30.5645128,30.429624 C30.5645128,29.8783551 30.6588718,30.2865466 30.7409231,28.8852294 C30.7614359,28.5022868 30.7819487,28.1614259 30.8024615,27.8584384 C31.0075897,27.6606549 31.2660513,27.4249979 31.2947692,27.4249979 C31.3604103,27.4839122 31.2701538,25.3082936 31.2701538,25.3082936 C31.2701538,24.3404168 30.3306667,23.3514993 27.9716923,22.606655 L29.8502564,22.606655 C31.0235897,22.606655 31.9220513,22.4004552 31.9220513,19.7956043 L31.9220513,19.7956043 Z" id="Fill-1"></path>
            </g>
        </g>
    </g>
</svg>