<?xml version="1.0" encoding="UTF-8"?>
<svg width="15px" height="15px" viewBox="0 0 15 15" version="1.1" xmlns="http://www.w3.org/2000/svg" xmlns:xlink="http://www.w3.org/1999/xlink">
    <!-- Generator: Sketch 46.1 (44463) - http://www.bohemiancoding.com/sketch -->
    <title>Icon/Cross/Grey</title>
    <desc>Created with Sketch.</desc>
    <defs></defs>
    <g id="Symbols" stroke="none" stroke-width="1" fill="none" fill-rule="evenodd">
        <g id="Icon/Cross/Grey" fill="#969696">
            <path d="M13.7474063,7.185375 L7.81490625,7.185375 L7.81490625,1.252875 C7.81490625,1.0588125 7.69396875,0.937875 7.49990625,0.937875 C7.30584375,0.937875 7.18584375,1.0588125 7.18584375,1.252875 L7.18584375,7.185375 L1.25240625,7.185375 C1.05834375,7.185375 0.93740625,7.3063125 0.93740625,7.500375 C0.93740625,7.6944375 1.05834375,7.8144375 1.25240625,7.8144375 L7.18584375,7.8144375 L7.18584375,13.747875 C7.18584375,13.941 7.30584375,14.062875 7.49990625,14.062875 C7.69396875,14.062875 7.81490625,13.8988125 7.81490625,13.747875 L7.81490625,7.8144375 L13.7474063,7.8144375 C13.9414688,7.8144375 14.0624063,7.6944375 14.0624063,7.500375 C14.0624063,7.3063125 13.8983438,7.185375 13.7474063,7.185375" id="Fill-1"></path>
        </g>
    </g>
</svg>