<?xml version="1.0" encoding="UTF-8" standalone="no"?>
<svg width="25px" height="25px" viewBox="0 0 25 25" version="1.1" xmlns="http://www.w3.org/2000/svg" xmlns:xlink="http://www.w3.org/1999/xlink">
    <!-- Generator: Sketch 39.1 (31720) - http://www.bohemiancoding.com/sketch -->
    <title>Icon_Pintest</title>
    <desc>Created with Sketch.</desc>
    <defs>
        <polygon id="path-1" points="9.5299 23 0 23 0 0 9.5299 0 19.0598 0 19.0598 23"></polygon>
    </defs>
    <g id="Symbols" stroke="none" stroke-width="1" fill="none" fill-rule="evenodd">
        <g id="Icon_Pintest">
            <g id="Page-1" transform="translate(3.000000, 1.000000)">
                <mask id="mask-2" fill="white">
                    <use xlink:href="#path-1"></use>
                </mask>
                <g id="Clip-2"></g>
                <path d="M5.2028,23 C4.5168,23 3.8548,22.676 3.4338,22.133 C2.7068,21.188 2.6248,19.549 3.1988,17.394 C3.2848,17.031 3.4978,16.122 3.6208,15.55 C3.6558,15.388 3.5598,15.226 3.4008,15.179 C3.2798,15.144 3.1608,15.101 3.0468,15.048 C1.1678,14.173 -0.0002,11.682 -0.0002,8.545 C-0.0002,3.274 3.6518,0 9.5298,0 C14.7838,0 19.0598,4.054 19.0598,9.037 C19.0598,14.469 15.5968,18.567 11.0068,18.567 L10.8838,18.569 C9.7798,18.569 8.7278,18.147 7.9268,17.382 C7.6698,17.125 7.6708,16.702 7.9308,16.441 C8.0578,16.315 8.2248,16.245 8.4038,16.245 C8.5828,16.245 8.7508,16.315 8.8778,16.441 C9.4338,16.952 10.1518,17.232 10.9008,17.232 L11.0168,17.23 C14.8388,17.23 17.7218,13.708 17.7218,9.037 C17.7218,4.791 14.0478,1.337 9.5298,1.337 C4.3988,1.337 1.3368,4.031 1.3368,8.545 C1.3368,9.081 1.3788,9.616 1.4628,10.136 C1.5538,11.2 1.9638,12.212 2.6458,13.054 C2.8658,13.329 3.1318,13.56 3.4328,13.74 C3.4828,13.77 3.5388,13.784 3.5948,13.784 C3.7538,13.851 3.8628,13.879 3.9638,13.879 C4.0858,13.879 4.3818,13.834 4.4838,13.416 L4.8258,12.011 C4.8908,11.792 4.8298,11.543 4.6658,11.366 C4.2548,10.865 4.0938,10.252 4.0938,9.185 L4.0968,9.028 C4.1978,6.249 6.4528,4.072 9.2318,4.072 L9.4248,4.076 C12.2488,4.076 14.2188,6.037 14.2188,8.846 C14.2188,11.889 12.5698,14.274 10.4648,14.274 C9.9988,14.274 9.7058,14.026 9.5408,13.818 C9.1978,13.383 9.0758,12.718 9.2258,12.083 C9.3658,11.497 9.5588,10.979 9.7458,10.478 C10.0268,9.726 10.2678,9.082 10.2678,8.401 C10.2678,7.219 9.6288,6.023 8.4048,6.023 C7.0388,6.023 5.5108,7.475 5.5108,9.419 C5.4638,10.005 5.6538,10.622 6.0308,11.1 L4.4878,17.75 C4.0488,19.399 4.0528,20.734 4.4958,21.316 C4.6618,21.53 4.9188,21.655 5.1858,21.655 C5.2338,21.655 5.3048,21.644 5.3598,21.611 C5.8678,21.307 6.3068,20.885 6.6308,20.388 C6.7508,20.216 6.9538,20.111 7.1738,20.111 C7.3098,20.111 7.4428,20.154 7.5568,20.233 C7.8578,20.444 7.9308,20.862 7.7198,21.163 C6.9758,22.226 5.9558,22.998 5.2958,22.998 L5.2028,23 Z" id="Fill-1" fill="#000000" mask="url(#mask-2)"></path>
            </g>
        </g>
    </g>
</svg>