<?xml version="1.0" encoding="UTF-8"?>
<svg width="25px" height="25px" viewBox="0 0 25 25" version="1.1" xmlns="http://www.w3.org/2000/svg" xmlns:xlink="http://www.w3.org/1999/xlink">
    <!-- Generator: Sketch 46.1 (44463) - http://www.bohemiancoding.com/sketch -->
    <title>Icon/Social/Phone</title>
    <desc>Created with Sketch.</desc>
    <defs></defs>
    <g id="Symbols" stroke="none" stroke-width="1" fill="none" fill-rule="evenodd">
        <g id="Icon/Social/Phone">
            <g id="1496312028_phone1" transform="translate(2.000000, 2.000000)">
                <rect id="Rectangle-path" x="0" y="0" width="22" height="22"></rect>
                <path d="M12.753633,14.9514054 C12.753633,14.9514054 14.5210483,13.9395638 14.9837453,13.696425 C15.4451328,13.4524131 15.9231076,13.3908645 16.2133845,13.5680896 C16.6529466,13.8369828 20.3440467,16.2923792 20.6548394,16.5097637 C20.9656321,16.7275846 21.1153539,17.3496184 20.6880139,17.9589932 C20.2624199,18.568368 18.2990131,20.9779304 17.4670315,20.9521761 C16.6337404,20.9251121 13.1691873,20.8491585 6.63599266,14.3140936 C0.104107546,7.78121122 0.0268458733,4.31571923 0.000218969273,3.48241223 C-0.0264079347,2.64954176 2.38310863,0.685661109 2.99247187,0.259622543 C3.60270813,-0.165979509 4.22560308,-0.00577853186 4.44211037,0.293670707 C4.6883001,0.634588863 7.11527693,4.31397317 7.38241898,4.73564658 C7.56531526,5.02374643 7.49809324,5.50434937 7.25408603,5.96618216 C7.01138835,6.42888798 5.999566,8.19633691 5.999566,8.19633691 C5.999566,8.19633691 6.71281782,9.41290401 9.12495342,11.824649 C11.5375255,14.2368304 12.753633,14.9514054 12.753633,14.9514054 Z" id="Shape" stroke="#646464" stroke-width="0.840479961"></path>
            </g>
            <path d="M2,20.7948387 C3.1124212,23.052043 4.37913456,23.6163441 5.80014009,22.4877419 C7.93164838,20.7948387 7.30376126,20 5.87298622,20 C4.44221119,20 5.20826523,23.8060829 7.76698576,23.8060829 C10.3257063,23.8060829 11.8333427,20.678341 9.90380574,20.678341 C7.97426875,20.678341 8.29360261,24 11.6468013,24 C13.8822671,24 15,23.0987404 15,21.2962212" id="Path-2" stroke="#646464" stroke-width="0.840479961"></path>
        </g>
    </g>
</svg>