<svg xmlns="http://www.w3.org/2000/svg" width="50" height="50" viewBox="0 0 50 50"><path fill="#B4B4B4" fill-rule="evenodd" d="M31.86 24.624c-1.32 0-2.352 1.033-2.352 2.353 0 1.253 1.1 2.353 2.353 2.353 1.254 0 2.354-1.1 2.354-2.353 0-1.32-1.034-2.353-2.353-2.353zm0 6.192c-2.152 0-3.838-1.687-3.838-3.84 0-2.152 1.686-3.838 3.84-3.838 2.116 0 3.838 1.722 3.838 3.84 0 2.15-1.686 3.838-3.84 3.838zM4.23 46.668H33.42l-2.773-3.644-11.787-15.438L4.23 46.668zm27.936-4.15l3.165 4.15H45.8l-8.364-11.035-5.27 6.885zm-29.47 5.636c-.053-.024-.143-.054-.262-.06l-.043-.018-.108-.108h-.11c-.03-.042-.063-.08-.102-.114-.012-.085-.034-.152-.05-.196l-.005-29.97c0-.41.333-.742.743-.742h3.53v1.486H3.5v26.794l14.7-19.312c.146-.182.376-.3.596-.3.223 0 .45.116.603.31l11.782 15.43 5.594-7.39c.146-.183.376-.3.596-.3.223 0 .45.116.604.31l8.56 11.252V18.432H17.372v-1.486h29.97c.346 0 .742.395.742.743v29.503l-.06.162v.056c0 .41-.335.744-.745.744H2.695zm8.855-21.982c-.493 0-.866-.373-.866-.867V5.095L2.836 12.87c-.164.182-.36.268-.58.268-.233 0-.455-.094-.626-.265-.174-.158-.26-.345-.264-.557-.006-.237.09-.473.264-.648l9.288-9.287c.03-.016.055-.033.078-.047h.062l.066-.055h.138l.077-.1.053-.03h.248c.084.05.192.095.328.113.018.01.04.018.06.025.038.023.078.043.12.06l9.324 9.324c.295.328.303.9 0 1.202-.164.165-.354.235-.633.235-.28 0-.47-.07-.634-.234l-7.787-7.79v20.222c0 .486-.383.867-.87.867z"/></svg>