<?xml version="1.0" encoding="UTF-8" standalone="no"?>
<svg width="25px" height="25px" viewBox="0 0 25 25" version="1.1" xmlns="http://www.w3.org/2000/svg" xmlns:xlink="http://www.w3.org/1999/xlink">
    <!-- Generator: Sketch 39.1 (31720) - http://www.bohemiancoding.com/sketch -->
    <title>Icon_Search</title>
    <desc>Created with Sketch.</desc>
    <defs></defs>
    <g id="Symbols" stroke="none" stroke-width="1" fill="none" fill-rule="evenodd">
        <g id="Icon_Search" fill="#000000">
            <g id="Page-1" transform="translate(3.000000, 3.000000)">
                <path d="M2.89357609,11.8806174 C1.69368478,10.680313 1.03281522,9.08431304 1.03281522,7.38711739 C1.03281522,5.69033478 1.69327174,4.09474783 2.89357609,2.89444348 C4.09346739,1.69372609 5.68946739,1.03285652 7.38707609,1.03285652 C9.08468478,1.03285652 10.6802717,1.69372609 11.880163,2.89444348 C14.3575978,5.37187826 14.3575978,9.40318261 11.880163,11.8806174 C10.6802717,13.0805087 9.08427174,13.7413783 7.38707609,13.7413783 C5.68946739,13.7413783 4.09388043,13.0809217 2.89357609,11.8806174 M18.6850543,17.8280304 L13.0263587,12.1503348 C15.4777717,9.25118261 15.3422935,4.89605217 12.6100109,2.16376957 C11.215163,0.768095652 9.35977174,-0.000165217391 7.38666304,-0.000165217391 C5.41396739,-0.000165217391 3.55857609,0.768508696 2.16331522,2.16376957 C0.768467391,3.55903043 0.000206521739,5.4140087 0.000206521739,7.38711739 C0.000206521739,9.36022609 0.768467391,11.2152043 2.16331522,12.6104652 C3.55857609,14.0057261 5.41396739,14.773987 7.38666304,14.773987 C9.15201087,14.773987 10.8198804,14.1556609 12.1511196,13.0272261 L17.8089891,18.7040957 C17.9300109,18.8251174 18.0886196,18.8854217 18.2472283,18.8854217 C18.405837,18.8854217 18.5644457,18.8251174 18.6850543,18.7040957 C18.9270978,18.4620522 18.9270978,18.0700739 18.6850543,17.8280304" id="Fill-1"></path>
            </g>
        </g>
    </g>
</svg>