<?xml version="1.0" encoding="utf-8"?>
<!-- Generator: Adobe Illustrator 15.0.0, SVG Export Plug-In . SVG Version: 6.00 Build 0)  -->
<!DOCTYPE svg PUBLIC "-//W3C//DTD SVG 1.1//EN" "http://www.w3.org/Graphics/SVG/1.1/DTD/svg11.dtd">
<svg version="1.1" id="Layer_1" xmlns="http://www.w3.org/2000/svg" xmlns:xlink="http://www.w3.org/1999/xlink" x="0px" y="0px"
	 width="50px" height="50px" viewBox="0 0 50 50" enable-background="new 0 0 50 50" xml:space="preserve">
<rect fill="#333332" width="50" height="50"/>
<path fill="#FFFFFF" d="M24.834,17.903c-0.604,1.198-1.246,2.684-2.15,3.589s-2.391,1.545-3.588,2.149
	C15.864,25.27,9.22,30.879,6.584,35.998l2.262,2.029c0,0,0.55-0.859,1.558-0.317c1.009,0.543,4.745,3.2,6.982,3.461
	c2.777,0.324,5.479-2.258,7.188-4.122c2.303-2.509,2.81-5.153,1.673-7.634c-1.138-2.481-2.31-4.412-2.37-5.333
	c-0.033-0.497,0.21-0.778,0.414-0.982c0.205-0.204,0.485-0.447,0.982-0.414c0.922,0.061,2.852,1.232,5.334,2.37
	c2.48,1.137,5.125,0.63,7.633-1.672c1.865-1.71,4.446-4.412,4.123-7.189c-0.262-2.237-2.918-5.975-3.461-6.983
	c-0.543-1.007,0.316-1.557,0.316-1.557l-2.029-2.262C32.071,8.028,26.463,14.672,24.834,17.903 M8.307,36.29
	c-0.152-0.152,0.115-0.665,0.596-1.146c0.48-0.481,0.992-0.747,1.145-0.595c0.152,0.152-0.113,0.665-0.594,1.146
	C8.973,36.176,8.459,36.442,8.307,36.29 M25.17,30.492c0.568,1.86,0.104,3.566-1.318,5.402c-1.422,1.835-3.688,3.463-5.256,3.861
	c-1.379,0.348-3.43-0.862-4.619-1.638s-3.67-2.533-3.361-4.239c0.312-1.707,2.795-4.292,4.576-5.868
	c1.345-1.189,4.421-3.593,5.92-3.128C22.611,25.348,24.709,28.985,25.17,30.492 M39.31,12.785c0.774,1.189,1.985,3.239,1.638,4.619
	c-0.396,1.567-2.025,3.834-3.861,5.256c-1.836,1.421-3.541,1.886-5.401,1.318c-1.507-0.46-5.145-2.559-5.61-4.058
	c-0.465-1.499,1.939-4.576,3.128-5.919c1.576-1.782,4.162-4.266,5.868-4.576C36.777,9.113,38.534,11.595,39.31,12.785 M36.889,8.261
	c-0.481,0.481-0.994,0.746-1.146,0.594c-0.152-0.152,0.113-0.665,0.595-1.146c0.48-0.48,0.993-0.748,1.146-0.595
	C37.635,7.266,37.369,7.78,36.889,8.261"/>
</svg>
