<?xml version="1.0" encoding="UTF-8" standalone="no"?>
<svg width="97px" height="38px" viewBox="0 0 97 38" version="1.1" xmlns="http://www.w3.org/2000/svg" xmlns:xlink="http://www.w3.org/1999/xlink">
    <!-- Generator: Sketch 40.1 (33804) - http://www.bohemiancoding.com/sketch -->
    <title>Icon_FrameWidth</title>
    <desc>Created with Sketch.</desc>
    <defs></defs>
    <g id="ProdcutDetail" stroke="none" stroke-width="1" fill="none" fill-rule="evenodd">
        <g id="Icon_FrameWidth" transform="translate(-4.000000, -1.000000)">
            <g id="Page-1" transform="translate(4.000000, 1.000000)">
                <path d="M89.2576364,20.3677591 C89.0724545,21.3906682 88.97325,22.4356227 88.7351591,23.4453045 C88.4595909,24.63135 88.1421364,25.8196 87.7144545,26.9571455 C87.3220455,28.0131227 86.7973636,29.0294182 86.2616591,30.0280773 C85.67525,31.13035 84.778,31.9746909 83.7396591,32.6184182 C82.9482273,33.1078273 82.0994773,33.5421227 81.2330909,33.8706 C80.3380455,34.2056909 79.3922955,34.3974864 78.4575682,34.6179409 C77.9020227,34.7502136 77.3288409,34.8075318 76.7666818,34.91335 C76.1802727,35.0191682 75.5982727,35.1867136 75.00525,35.2484409 C74.0550909,35.3432364 73.1027273,35.3939409 72.1459545,35.4314182 C71.3942045,35.4578727 70.6358409,35.4578727 69.8818864,35.4314182 C69.1830455,35.4005545 68.4842045,35.3432364 67.7897727,35.2506455 C67.0005455,35.1492364 66.2157273,35.01035 65.4353182,34.86485 C64.9811818,34.7810773 64.5336591,34.6598273 64.0905455,34.5407818 C63.85025,34.47685 63.6033409,34.4129182 63.3784773,34.3071 C63.1668409,34.2012818 63.0015,33.9786227 62.7854545,33.9146909 C61.8573409,33.6236909 61.1188182,33.0438955 60.4221818,32.3847364 C59.4698182,31.46985 58.6012273,30.4778045 57.9597045,29.3071909 C57.35125,28.1916909 56.7141364,27.0916227 56.1894545,25.9342364 C55.775,25.0391909 55.4972273,24.0780091 55.1885909,23.1366682 C54.9901818,22.5238045 54.7939773,21.9043273 54.6991818,21.2716227 C54.6220227,20.7667818 54.5470682,20.0370773 54.48975,19.3713045 C54.4147955,18.5269636 54.3685,17.7950545 54.3839318,17.7950545 C54.29575,16.3973727 54.63525,14.8652136 55.3318864,13.6615318 C55.7617727,12.9097818 56.2886591,12.2241682 56.9742727,11.7105091 C57.6885455,11.1681909 58.4425,10.6809864 59.1876364,10.1893727 C59.4499773,10.0174182 59.7365682,9.88955455 60.0165455,9.75728182 C60.1951136,9.67130455 60.3869091,9.6206 60.5654773,9.54785 C60.6580682,9.50596364 61.3436818,9.27228182 61.6016136,9.20173636 C62.6531818,8.90632727 63.6959318,8.56903182 64.7585227,8.32432727 C65.7792273,8.09064545 66.8131591,7.92089545 67.8492955,7.78641818 C69.1521818,7.61446364 70.4594773,7.45353182 71.7755909,7.38298636 C73.0454091,7.31464545 74.32625,7.34330455 75.6026818,7.37416818 C76.4712727,7.39400909 77.3464773,7.45132727 78.2106591,7.56375909 C79.4474091,7.7291 80.6841591,7.95837273 81.9187045,8.16119091 C83.1598636,8.36621364 84.3679545,8.67705455 85.5363636,9.15323636 C86.5857273,9.58091818 87.5799773,10.0791455 88.3736136,10.9521455 C89.2113409,11.87585 89.5684773,12.9825318 89.6125682,14.1796 C89.6919318,16.2474636 89.6346136,18.3197364 89.2576364,20.3677591 M42.51025,19.3713045 C42.4507273,20.0326682 42.3779773,20.7645773 42.3008182,21.2716227 C42.2060227,21.9021227 42.0076136,22.5238045 41.8114091,23.1344636 C41.5027727,24.0780091 41.2227955,25.0369864 40.8105455,25.9342364 C40.2858636,27.0894182 39.64875,28.1916909 39.0402955,29.3027818 C38.3987727,30.4778045 37.5301818,31.4654409 36.5734091,32.3803273 C35.8811818,33.0438955 35.1448636,33.6236909 34.2145455,33.9146909 C33.9985,33.9786227 33.8331591,34.1990773 33.6215227,34.3026909 C33.3988636,34.4129182 33.1541591,34.47685 32.9094545,34.5407818 C32.4663409,34.6554182 32.0188182,34.7810773 31.5690909,34.86485 C30.7842727,35.01035 29.9994545,35.1470318 29.2102273,35.2506455 C28.5157955,35.3388273 27.8169545,35.4005545 27.1181136,35.4270091 C26.3641591,35.4578727 25.6102045,35.4578727 24.8540455,35.4314182 C23.9016818,35.3939409 22.9449091,35.3432364 21.99475,35.2440318 C21.4039318,35.1845091 20.8219318,35.0191682 20.2333182,34.9089409 C19.6711591,34.8075318 19.0979773,34.7502136 18.5424318,34.6179409 C17.6121136,34.3974864 16.6641591,34.2056909 15.7713182,33.8706 C14.9027273,33.5421227 14.0561818,33.1078273 13.2603409,32.6184182 C12.2242045,31.9702818 11.3269545,31.1281455 10.7383409,30.0280773 C10.2048409,29.0294182 9.68677273,28.0131227 9.28775,26.9527364 C8.86447727,25.8151909 8.54261364,24.6269409 8.26484091,23.4453045 C8.03115909,22.4334182 7.93195455,21.3906682 7.74677273,20.3677591 C7.36759091,18.3197364 7.31247727,16.2474636 7.39184091,14.1751909 C7.43813636,12.9803273 7.79306818,11.8736455 8.633,10.9521455 C9.42443182,10.0791455 10.4208864,9.58091818 11.4658409,9.15103182 C12.6364545,8.67264545 13.84675,8.36180455 15.0857045,8.15898636 C16.3224545,7.95837273 17.5547955,7.7291 18.79375,7.56375909 C19.6579318,7.45132727 20.5309318,7.39400909 21.4039318,7.36975909 C22.6803636,7.33889545 23.9567955,7.31464545 25.2310227,7.38298636 C26.5427273,7.45132727 27.8544318,7.61446364 29.1551136,7.78200909 C30.19125,7.92089545 31.2273864,8.09064545 32.2480909,8.32432727 C33.3106818,8.56903182 34.3534318,8.90632727 35.405,9.20173636 C35.6607273,9.27007727 36.3463409,9.50596364 36.4389318,9.54344091 C36.6175,9.6206 36.8092955,9.67130455 36.9834545,9.75287273 C37.2656364,9.88955455 37.5544318,10.0174182 37.8123636,10.1871682 C38.5597045,10.6809864 39.3114545,11.1681909 40.0279318,11.7061 C40.71575,12.2241682 41.2426364,12.9097818 41.6725227,13.6571227 C42.36475,14.8630091 42.7086591,16.3929636 42.6182727,17.7950545 C42.6315,17.7950545 42.5896136,18.5269636 42.51025,19.3713045 M97,11.0601682 C97,10.7228727 96.9426818,10.4010091 96.6759318,10.1739409 C96.5502727,10.0615091 96.4025682,9.92923636 96.2460455,9.90498636 C95.7367955,9.83003182 95.2121136,9.81019091 94.6984545,9.74405455 C93.3602955,9.5721 92.0397727,9.37589545 90.7787727,8.81373636 C89.3590455,8.18323636 87.9018409,7.62989545 86.4402273,7.11182727 C85.2850455,6.70178182 84.1012045,6.38432727 82.9283864,6.04041818 C81.2242727,5.54439545 79.4716591,5.34157727 77.7190455,5.23355455 C76.2023182,5.13435 74.6811818,5.14978182 73.1600455,5.12773636 C70.8166136,5.09466818 68.4952273,5.39228182 66.1826591,5.73619091 C64.8731591,5.93019091 63.5812955,6.24103182 62.2872273,6.52321364 C61.8705682,6.61580455 61.4627273,6.75689545 61.0592955,6.89357727 C61.0350455,6.90019091 58.5968182,7.85255455 57.7899545,8.37503182 C56.8067273,9.00553182 55.2547273,9.81680455 55.1863864,9.87191818 C54.7565,10.2224409 54.2715,10.0901682 53.8129545,10.0681227 C52.7040682,10.0174182 51.5951818,9.89837273 50.4862955,9.81900909 C49.1371136,9.71980455 47.8783182,9.65366818 46.5203182,9.81900909 L46.5137045,9.81900909 C45.4092273,9.89837273 44.3003409,10.0174182 43.1870455,10.0703273 C42.7307045,10.0901682 42.2435,10.2224409 41.8158182,9.87191818 C41.7452727,9.81680455 40.1976818,9.00553182 39.2144545,8.37503182 C38.4031818,7.85255455 35.9649545,6.90019091 35.9451136,6.89357727 C35.5372727,6.75689545 35.1338409,6.61580455 34.7171818,6.52321364 C33.4187045,6.24544091 32.1268409,5.93019091 30.8173409,5.73619091 C28.5047727,5.39228182 26.1877955,5.09466818 23.8399545,5.12773636 C22.3188182,5.14978182 20.7976818,5.13435 19.2831591,5.22914545 C17.5283409,5.34157727 15.7757273,5.53998636 14.0738182,6.04041818 C12.901,6.38432727 11.7149545,6.70178182 10.5597727,7.11182727 C9.09815909,7.62989545 7.64315909,8.18323636 6.22343182,8.81373636 C4.96243182,9.37589545 3.63970455,9.5721 2.30595455,9.74405455 C1.78788636,9.81019091 1.26761364,9.83003182 0.753954545,9.90498636 C0.601840909,9.93144091 0.451931818,10.0615091 0.326272727,10.1739409 C0.0617272727,10.4010091 0.00220454545,10.7228727 0.00220454545,11.0601682 C0.00220454545,11.8890773 0.00220454545,12.7201909 0,13.5491 C0,14.2214864 0.306431818,14.6050773 0.936931818,14.7902591 C1.42193182,14.9291455 1.90472727,15.0966909 2.3765,15.2796682 C3.26493182,15.6235773 3.89984091,16.2915545 4.34295455,17.1116455 C4.66481818,17.7156909 4.88527273,18.3946909 5.07045455,19.0648727 C5.44743182,20.4581455 5.73843182,21.8800773 6.12643182,23.2711455 C6.65111364,25.1229636 7.21768182,26.9659636 8.01793182,28.7185773 C8.59772727,29.9817818 9.27011364,31.1920773 10.1783864,32.2502591 C11.1572045,33.3944182 12.3035682,34.3291455 13.6615682,34.9309864 C14.7153409,35.39835 15.8132045,35.7444636 16.8978409,36.1346682 C17.2946591,36.2801682 18.5203864,36.5910091 18.9282273,36.6769864 C20.1297045,36.9327136 20.37,36.9415318 21.5692727,37.1972591 C22.6583182,37.3780318 23.7782273,37.5081 24.8231818,37.5213273 C25.8791591,37.5345545 26.9152955,37.4155091 28.2732955,37.4155091 C29.1264545,37.3427591 29.5166591,37.3096909 30.2706136,37.1575773 C30.8393864,37.0407364 31.4081591,36.9128727 31.9747273,36.7673727 C32.6140455,36.5976227 33.2687955,36.4565318 33.8816591,36.2140318 C35.2528864,35.6849409 36.5359318,34.9684636 37.6337955,33.9698045 C38.3502727,33.3172591 39.0425,32.6096 39.6333182,31.8358045 C40.3431818,30.9076909 40.9494318,29.8913955 41.5711136,28.8927364 C41.9238409,28.3239636 42.2501136,27.7331455 42.5322955,27.1246909 C42.971,26.1745318 43.3810455,25.2089409 43.7668409,24.2367364 C44.1923182,23.1521 44.5913409,22.0542364 44.9793409,20.9563727 C45.1931818,20.3589409 45.3210455,19.7262364 45.5569318,19.1376227 C45.7421136,18.6746682 45.7288864,18.1389636 45.4048182,17.7730091 C44.8426591,17.1314864 44.7809318,15.8837136 45.3012045,15.2069182 C45.9515455,14.3625773 46.8862727,14.0318955 47.8672955,13.9371 C48.0723182,13.9172591 48.2839545,13.9260773 48.4911818,13.9106455 C48.7028182,13.9260773 48.9210682,13.9172591 49.1371136,13.9371 C50.2305682,14.0429182 51.0506591,14.3625773 51.701,15.2069182 C52.2212727,15.8837136 52.1573409,17.1314864 51.5973864,17.7730091 C51.2733182,18.1389636 51.2622955,18.6746682 51.4452727,19.1420318 C51.6811591,19.7262364 51.8134318,20.3589409 52.0250682,20.9563727 C52.4130682,22.0542364 52.8098864,23.1565091 53.2375682,24.2367364 C53.6211591,25.2089409 54.0312045,26.1745318 54.4721136,27.1246909 C54.7542955,27.7331455 55.0805682,28.3239636 55.4332955,28.8927364 C56.0505682,29.8913955 56.6568182,30.9076909 57.3688864,31.8358045 C57.9597045,32.6096 58.6519318,33.3172591 59.3706136,33.9698045 C60.4662727,34.9706682 61.7537273,35.6849409 63.1205455,36.2140318 C63.7378182,36.4521227 64.3881591,36.6020318 65.0296818,36.7673727 C65.5940455,36.9150773 66.1628182,37.0451455 66.7337955,37.1597818 C67.4855455,37.3096909 67.8779545,37.3427591 68.7311136,37.4155091 C70.0847045,37.4155091 71.1230455,37.5345545 72.1812273,37.5213273 C73.2261818,37.5081 74.3438864,37.3780318 75.4329318,37.1972591 C76.6322045,36.9415318 76.8725,36.9327136 78.0717727,36.6769864 C78.4818182,36.5910091 79.7075455,36.2801682 80.1065682,36.1346682 C81.189,35.7444636 82.2890682,35.39835 83.3384318,34.9309864 C84.7008409,34.3291455 85.845,33.3944182 86.8238182,32.2502591 C87.7342955,31.1920773 88.4022727,29.9817818 88.9842727,28.7185773 C89.7867273,26.9659636 90.3532955,25.1229636 90.8735682,23.2711455 C91.2637727,21.8800773 91.5525682,20.4581455 91.9339545,19.0648727 C92.1147273,18.3946909 92.3373864,17.7156909 92.6614545,17.1116455 C93.1001591,16.2915545 93.7350682,15.6191682 94.6279091,15.2796682 C95.0996818,15.0966909 95.5802727,14.9291455 96.0652727,14.7902591 C96.6957727,14.6072818 97.0022045,14.2214864 97,13.5491 L97,11.0601682" id="Fill-1" fill="#B4B4B4"></path>
                <path d="M96.265225,2.30128864 C95.0130432,1.83612955 93.4588386,1.04469773 92.4976568,0.204765909 L93.0554068,1.75015227 L3.94327045,1.75015227 L4.503225,0.204765909 C3.53983864,1.04469773 1.98783864,1.83612955 0.735656818,2.30128864 C1.98783864,2.76644773 3.53983864,3.55787955 4.503225,4.39781136 L3.94327045,2.852425 L93.0554068,2.852425 L92.4976568,4.39781136 C93.4588386,3.55787955 95.0130432,2.76644773 96.265225,2.30128864" id="Fill-4" fill="#000000"></path>
            </g>
        </g>
    </g>
</svg>