<?xml version="1.0" encoding="UTF-8" standalone="no"?>
<svg width="97px" height="38px" viewBox="0 0 97 38" version="1.1" xmlns="http://www.w3.org/2000/svg" xmlns:xlink="http://www.w3.org/1999/xlink">
    <!-- Generator: Sketch 40.1 (33804) - http://www.bohemiancoding.com/sketch -->
    <title>Icon_FrameWidth Copy 5</title>
    <desc>Created with Sketch.</desc>
    <defs></defs>
    <g id="ProdcutDetail" stroke="none" stroke-width="1" fill="none" fill-rule="evenodd">
        <g id="Icon_TempleWidth" transform="translate(-3.000000, -1.000000)">
            <g id="Page-1" transform="translate(3.000000, 1.000000)">
                <path d="M95.1953381,2.1965881 C93.8835286,1.70927857 92.2553143,0.880159524 91.2483619,0.000230952381 L91.8326714,1.61920714 L3.87214762,1.61920714 L4.45876667,0.000230952381 C3.44950476,0.880159524 1.82129048,1.70927857 0.509480952,2.1965881 C1.82129048,2.68389762 3.44950476,3.51301667 4.45876667,4.39294524 L3.87214762,2.77396905 L91.8326714,2.77396905 L91.2483619,4.39294524 C92.2553143,3.51301667 93.8835286,2.68389762 95.1953381,2.1965881" id="Fill-1" fill="#000000"></path>
                <path d="M0.224716667,6.03183095 L73.4620262,9.85178333 C73.4620262,9.85178333 80.5407167,9.62545 85.0327405,16.7041405 C85.0327405,16.7041405 95.1415262,30.7437357 96.0422405,33.3280929 C96.0422405,33.3280929 98.707431,38.9217595 93.2338595,36.6976881 C93.2338595,36.6976881 89.4462405,35.529069 87.0558833,27.03695 C87.0558833,27.03695 83.5985262,17.2699738 79.753169,15.0181881 C79.753169,15.0181881 77.2473357,13.1544024 70.8799786,12.8841881 L0.000692857142,12.2098071 L0.224716667,6.03183095 Z" id="Fill-3" fill="#B4B4B4"></path>
            </g>
        </g>
    </g>
</svg>